SplineFontDB: 3.2
FontName: KAAlmouziosMain-Regular
FullName: KA Almouzios Main Regular
FamilyName: KA Almouzios Main
Weight: Book
Copyright: SIL OPEN FONT LICENSE Version 1.1
Version: 1.000
ItalicAngle: 0
UnderlinePosition: -100
UnderlineWidth: 50
Ascent: 800
Descent: 200
InvalidEm: 0
sfntRevision: 0x00010000
LayerCount: 2
Layer: 0 1 "Back" 1
Layer: 1 1 "Fore" 0
XUID: [1021 596 -667042339 13515240]
StyleMap: 0x0040
FSType: 8
OS2Version: 3
OS2_WeightWidthSlopeOnly: 0
OS2_UseTypoMetrics: 0
CreationTime: 1487363816
ModificationTime: 1728368723
PfmFamily: 81
TTFWeight: 400
TTFWidth: 5
LineGap: 0
VLineGap: 0
Panose: 0 0 5 0 0 0 0 0 0 0
OS2TypoAscent: 800
OS2TypoAOffset: 0
OS2TypoDescent: -200
OS2TypoDOffset: 0
OS2TypoLinegap: 200
OS2WinAscent: 1000
OS2WinAOffset: 0
OS2WinDescent: 200
OS2WinDOffset: 0
HheadAscent: 1000
HheadAOffset: 0
HheadDescent: -200
HheadDOffset: 0
OS2SubXSize: 650
OS2SubYSize: 600
OS2SubXOff: 0
OS2SubYOff: 75
OS2SupXSize: 650
OS2SupYSize: 600
OS2SupXOff: 0
OS2SupYOff: 350
OS2StrikeYSize: 50
OS2StrikeYPos: 300
OS2CapHeight: 700
OS2XHeight: 500
OS2Vendor: 'UKWN'
OS2CodePages: 00000001.00000000
OS2UnicodeRanges: 00000001.00000000.00000000.00000000
DEI: 91125
ShortTable: maxp 16
  1
  0
  110
  185
  10
  248
  4
  1
  2
  30
  6
  0
  100
  0
  2
  3
EndShort
LangName: 1033 "" "" "" "1.000;UKWN;KAAlmouziosMain-Regular" "" "Version 1.000" "" "" "" "Trevor Bullock" "" "" "" "This Font Software is licensed under the SIL Open Font License, Version 1.1. This license is available with a FAQ at: http://scripts.sil.org/OFL" "http://scripts.sil.org/OFL"
Encoding: UnicodeBmp
Compacted: 1
UnicodeInterp: none
NameList: AGL For New Fonts
DisplaySize: -128
AntiAlias: 1
FitToEm: 1
WinInfo: 0 14 6
BeginChars: 65542 110

StartChar: .notdef
Encoding: 65536 -1 0
Width: 500
GlyphClass: 1
Flags: W
LayerCount: 2
Back
SplineSet
410 -200 m 1,0,-1
 93 -200 l 1,1,-1
 93 800 l 1,2,-1
 410 800 l 1,3,-1
 410 -200 l 1,0,-1
168 733 m 1,4,-1
 168 700 l 1,5,-1
 233 700 l 1,6,-1
 233 663 l 1,7,-1
 167 663 l 1,8,-1
 167 630 l 1,9,-1
 333 630 l 1,10,-1
 333 663 l 1,11,-1
 267 663 l 1,12,-1
 267 700 l 1,13,-1
 333 700 l 1,14,-1
 333 733 l 1,15,-1
 168 733 l 1,4,-1
167 604 m 1,16,-1
 167 500 l 1,17,-1
 333 500 l 1,18,-1
 333 534 l 1,19,-1
 267 534 l 1,20,-1
 267 604 l 1,21,-1
 167 604 l 1,16,-1
233 534 m 1,22,-1
 200 534 l 1,23,-1
 200 570 l 1,24,-1
 233 570 l 1,25,-1
 233 534 l 1,22,-1
167 473 m 1,26,-1
 167 440 l 1,27,-1
 233 440 l 1,28,-1
 233 403 l 1,29,-1
 167 403 l 1,30,-1
 167 370 l 1,31,-1
 267 370 l 1,32,-1
 267 440 l 1,33,-1
 333 440 l 1,34,-1
 333 473 l 1,35,-1
 167 473 l 1,26,-1
300 413 m 1,36,-1
 300 347 l 1,37,-1
 167 347 l 1,38,-1
 167 313 l 1,39,-1
 333 313 l 1,40,-1
 333 413 l 1,41,-1
 300 413 l 1,36,-1
233 291 m 1,42,-1
 233 235 l 1,43,-1
 267 235 l 1,44,-1
 267 258 l 1,45,-1
 300 258 l 1,46,-1
 300 211 l 1,47,-1
 200 211 l 1,48,-1
 200 291 l 1,49,-1
 167 291 l 1,50,-1
 167 178 l 1,51,-1
 333 178 l 1,52,-1
 333 291 l 1,53,-1
 233 291 l 1,42,-1
167 118 m 1,54,-1
 167 5 l 1,55,-1
 333 5 l 1,56,-1
 333 118 l 1,57,-1
 167 118 l 1,54,-1
300 38 m 1,58,-1
 200 38 l 1,59,-1
 200 85 l 1,60,-1
 300 85 l 1,61,-1
 300 38 l 1,58,-1
167 -18 m 1,62,-1
 167 -51 l 1,63,-1
 237 -51 l 1,64,-1
 167 -98 l 1,65,-1
 167 -131 l 1,66,-1
 333 -131 l 1,67,-1
 333 -98 l 1,68,-1
 231 -98 l 1,69,-1
 301 -51 l 1,70,-1
 333 -51 l 1,71,-1
 333 -18 l 1,72,-1
 167 -18 l 1,62,-1
EndSplineSet
Fore
SplineSet
522 0 m 1,0,-1
 154.280273438 0 l 1,1,-1
 154.280273438 1160 l 1,2,-1
 522 1160 l 1,3,-1
 522 0 l 1,0,-1
241.280273438 1082.28027344 m 1,4,-1
 241.280273438 1044 l 1,5,-1
 316.6796875 1044 l 1,6,-1
 316.6796875 1001.08007812 l 1,7,-1
 240.120117188 1001.08007812 l 1,8,-1
 240.120117188 962.799804688 l 1,9,-1
 432.6796875 962.799804688 l 1,10,-1
 432.6796875 1001.08007812 l 1,11,-1
 356.120117188 1001.08007812 l 1,12,-1
 356.120117188 1044 l 1,13,-1
 432.6796875 1044 l 1,14,-1
 432.6796875 1082.28027344 l 1,15,-1
 241.280273438 1082.28027344 l 1,4,-1
240.120117188 932.639648438 m 1,16,-1
 240.120117188 812 l 1,17,-1
 432.6796875 812 l 1,18,-1
 432.6796875 851.440429688 l 1,19,-1
 356.120117188 851.440429688 l 1,20,-1
 356.120117188 932.639648438 l 1,21,-1
 240.120117188 932.639648438 l 1,16,-1
316.6796875 851.440429688 m 1,22,-1
 278.400390625 851.440429688 l 1,23,-1
 278.400390625 893.200195312 l 1,24,-1
 316.6796875 893.200195312 l 1,25,-1
 316.6796875 851.440429688 l 1,22,-1
240.120117188 780.6796875 m 1,26,-1
 240.120117188 742.400390625 l 1,27,-1
 316.6796875 742.400390625 l 1,28,-1
 316.6796875 699.48046875 l 1,29,-1
 240.120117188 699.48046875 l 1,30,-1
 240.120117188 661.200195312 l 1,31,-1
 356.120117188 661.200195312 l 1,32,-1
 356.120117188 742.400390625 l 1,33,-1
 432.6796875 742.400390625 l 1,34,-1
 432.6796875 780.6796875 l 1,35,-1
 240.120117188 780.6796875 l 1,26,-1
394.400390625 711.080078125 m 1,36,-1
 394.400390625 634.51953125 l 1,37,-1
 240.120117188 634.51953125 l 1,38,-1
 240.120117188 595.080078125 l 1,39,-1
 432.6796875 595.080078125 l 1,40,-1
 432.6796875 711.080078125 l 1,41,-1
 394.400390625 711.080078125 l 1,36,-1
316.6796875 569.559570312 m 1,42,-1
 316.6796875 504.599609375 l 1,43,-1
 356.120117188 504.599609375 l 1,44,-1
 356.120117188 531.280273438 l 1,45,-1
 394.400390625 531.280273438 l 1,46,-1
 394.400390625 476.759765625 l 1,47,-1
 278.400390625 476.759765625 l 1,48,-1
 278.400390625 569.559570312 l 1,49,-1
 240.120117188 569.559570312 l 1,50,-1
 240.120117188 438.48046875 l 1,51,-1
 432.6796875 438.48046875 l 1,52,-1
 432.6796875 569.559570312 l 1,53,-1
 316.6796875 569.559570312 l 1,42,-1
240.120117188 368.879882812 m 1,54,-1
 240.120117188 237.799804688 l 1,55,-1
 432.6796875 237.799804688 l 1,56,-1
 432.6796875 368.879882812 l 1,57,-1
 240.120117188 368.879882812 l 1,54,-1
394.400390625 276.080078125 m 1,58,-1
 278.400390625 276.080078125 l 1,59,-1
 278.400390625 330.599609375 l 1,60,-1
 394.400390625 330.599609375 l 1,61,-1
 394.400390625 276.080078125 l 1,58,-1
240.120117188 211.120117188 m 1,62,-1
 240.120117188 172.83984375 l 1,63,-1
 321.3203125 172.83984375 l 1,64,-1
 240.120117188 118.3203125 l 1,65,-1
 240.120117188 80.0400390625 l 1,66,-1
 432.6796875 80.0400390625 l 1,67,-1
 432.6796875 118.3203125 l 1,68,-1
 314.360351562 118.3203125 l 1,69,-1
 395.559570312 172.83984375 l 1,70,-1
 432.6796875 172.83984375 l 1,71,-1
 432.6796875 211.120117188 l 1,72,-1
 240.120117188 211.120117188 l 1,62,-1
EndSplineSet
EndChar

StartChar: A
Encoding: 65 65 2
Width: 0
GlyphClass: 1
Flags: W
LayerCount: 2
Back
SplineSet
-428 -241 m 0,1,2
 -383 -241 -383 -241 -367 -238 c 128,-1,3
 -351 -235 -351 -235 -340 -224 c 0,4,5
 -324 -208 -324 -208 -324 -181 c 0,6,7
 -324 -168 -324 -168 -329 -151 c 0,8,9
 -336 -132 -336 -132 -366 -122 c 128,-1,10
 -396 -112 -396 -112 -445 -112 c 0,11,12
 -514 -112 -514 -112 -514 -133 c 0,13,14
 -514 -144 -514 -144 -494 -161 c 0,15,16
 -480 -172 -480 -172 -480 -180 c 0,17,18
 -480 -186 -480 -186 -494 -186 c 0,19,20
 -513 -186 -513 -186 -552 -175 c 128,-1,21
 -591 -164 -591 -164 -640 -144 c 0,22,23
 -660 -135 -660 -135 -677 -129 c 128,-1,24
 -694 -123 -694 -123 -701 -123 c 0,25,26
 -712 -123 -712 -123 -712 -134 c 0,27,28
 -712 -141 -712 -141 -709 -151 c 0,29,30
 -702 -179 -702 -179 -658 -201 c 128,-1,31
 -614 -223 -614 -223 -539 -233 c 0,32,0
 -480 -241 -480 -241 -428 -241 c 0,1,2
EndSplineSet
Fore
SplineSet
-450.080078125 -47.5595703125 m 0,1,2
 -397.879882812 -47.5595703125 -397.879882812 -47.5595703125 -379.3203125 -44.080078125 c 128,-1,3
 -360.759765625 -40.599609375 -360.759765625 -40.599609375 -348 -27.83984375 c 0,4,5
 -329.440429688 -9.2802734375 -329.440429688 -9.2802734375 -329.440429688 22.0400390625 c 0,6,7
 -329.440429688 37.1201171875 -329.440429688 37.1201171875 -335.240234375 56.83984375 c 0,8,9
 -343.360351562 78.8798828125 -343.360351562 78.8798828125 -378.16015625 90.48046875 c 128,-1,10
 -412.959960938 102.080078125 -412.959960938 102.080078125 -469.799804688 102.080078125 c 0,11,12
 -549.83984375 102.080078125 -549.83984375 102.080078125 -549.83984375 77.7197265625 c 0,13,14
 -549.83984375 64.9599609375 -549.83984375 64.9599609375 -526.639648438 45.240234375 c 0,15,16
 -510.400390625 32.48046875 -510.400390625 32.48046875 -510.400390625 23.2001953125 c 0,17,18
 -510.400390625 16.240234375 -510.400390625 16.240234375 -526.639648438 16.240234375 c 0,19,20
 -548.6796875 16.240234375 -548.6796875 16.240234375 -593.919921875 29 c 128,-1,21
 -639.16015625 41.759765625 -639.16015625 41.759765625 -696 64.9599609375 c 0,22,23
 -719.200195312 75.400390625 -719.200195312 75.400390625 -738.919921875 82.3603515625 c 128,-1,24
 -758.639648438 89.3203125 -758.639648438 89.3203125 -766.759765625 89.3203125 c 0,25,26
 -779.51953125 89.3203125 -779.51953125 89.3203125 -779.51953125 76.5595703125 c 0,27,28
 -779.51953125 68.4404296875 -779.51953125 68.4404296875 -776.040039062 56.83984375 c 0,29,30
 -767.919921875 24.3603515625 -767.919921875 24.3603515625 -716.879882812 -1.16015625 c 128,-1,31
 -665.83984375 -26.6796875 -665.83984375 -26.6796875 -578.83984375 -38.2802734375 c 0,32,0
 -510.400390625 -47.5595703125 -510.400390625 -47.5595703125 -450.080078125 -47.5595703125 c 0,1,2
EndSplineSet
EndChar

StartChar: C
Encoding: 67 67 3
Width: 1256
GlyphClass: 1
Flags: W
LayerCount: 2
Back
SplineSet
235 171.5 m 128,-1,1
 243 170 243 170 246.5 170 c 128,-1,2
 250 170 250 170 252 171 c 0,3,4
 259 174 259 174 262.5 185 c 128,-1,5
 266 196 266 196 261 200 c 0,6,7
 258 205 258 205 241 208 c 0,8,9
 198 215 198 215 175.5 232 c 128,-1,10
 153 249 153 249 153 271 c 0,11,12
 153 308 153 308 204.5 328 c 128,-1,13
 256 348 256 348 350 348 c 0,14,15
 540 348 540 348 606 275 c 0,16,17
 617 262 617 262 621.5 255 c 128,-1,18
 626 248 626 248 626 242 c 0,19,20
 626 217 626 217 586 215 c 0,21,22
 568 213 568 213 560.5 211 c 128,-1,23
 553 209 553 209 550 205 c 2,24,-1
 548 200 l 2,25,26
 548 195 548 195 557 189 c 0,27,28
 567 182 567 182 619.5 175 c 128,-1,29
 672 168 672 168 695 171 c 0,30,31
 729 176 729 176 743 179.5 c 128,-1,32
 757 183 757 183 763 191.5 c 128,-1,33
 769 200 769 200 769 219 c 0,34,35
 769 243 769 243 763 258.5 c 128,-1,36
 757 274 757 274 741 289 c 0,37,38
 681 349 681 349 514 371 c 0,39,40
 394 387 394 387 327 387 c 0,41,42
 275 387 275 387 224 378.5 c 128,-1,43
 173 370 173 370 111 350 c 0,44,45
 73 338 73 338 56 326 c 128,-1,46
 39 314 39 314 34 296 c 0,47,48
 31 286 31 286 31 274 c 256,49,50
 31 262 31 262 34 256 c 0,51,52
 44 229 44 229 88 208 c 128,-1,53
 132 187 132 187 209 176 c 0,54,0
 227 173 227 173 235 171.5 c 128,-1,1
957 175 m 0,56,57
 981 175 981 175 988 178 c 0,58,59
 998 182 998 182 998 190 c 256,60,61
 998 198 998 198 987 203 c 0,62,63
 977 206 977 206 970 220.5 c 128,-1,64
 963 235 963 235 948 284 c 0,65,66
 938 317 938 317 929 333 c 128,-1,67
 920 349 920 349 907 356.5 c 128,-1,68
 894 364 894 364 869 367 c 0,69,70
 851 370 851 370 835 370 c 0,71,72
 816 370 816 370 803.5 366.5 c 128,-1,73
 791 363 791 363 788 357 c 2,74,-1
 788 355 l 2,75,76
 788 348 788 348 801 343 c 0,77,78
 813 339 813 339 820 325 c 128,-1,79
 827 311 827 311 843 259 c 0,80,81
 854 224 854 224 867 206 c 128,-1,82
 880 188 880 188 901 181 c 0,83,55
 922 175 922 175 957 175 c 0,56,57
1137 175 m 0,85,86
 1161 175 1161 175 1168 178 c 0,87,88
 1178 182 1178 182 1178 190 c 256,89,90
 1178 198 1178 198 1167 203 c 0,91,92
 1157 206 1157 206 1150.5 220 c 128,-1,93
 1144 234 1144 234 1128 284 c 0,94,95
 1118 317 1118 317 1109 333 c 128,-1,96
 1100 349 1100 349 1087 356 c 128,-1,97
 1074 363 1074 363 1049 367 c 0,98,99
 1031 370 1031 370 1015 370 c 0,100,101
 996 370 996 370 983.5 366.5 c 128,-1,102
 971 363 971 363 968 357 c 2,103,-1
 968 355 l 2,104,105
 968 348 968 348 981 343 c 0,106,107
 993 339 993 339 1000 325 c 128,-1,108
 1007 311 1007 311 1023 259 c 0,109,110
 1034 224 1034 224 1047 206 c 128,-1,111
 1060 188 1060 188 1081 181 c 0,112,84
 1102 175 1102 175 1137 175 c 0,85,86
395 162 m 0,114,115
 420 162 420 162 446 165.5 c 128,-1,116
 472 169 472 169 483 175 c 0,117,118
 505 187 505 187 505 204 c 0,119,120
 505 220 505 220 487.5 237.5 c 128,-1,121
 470 255 470 255 439 268 c 0,122,123
 410 281 410 281 354.5 294.5 c 128,-1,124
 299 308 299 308 277 308 c 0,125,126
 265 308 265 308 257 303 c 128,-1,127
 249 298 249 298 249 290 c 0,128,129
 249 284 249 284 254 279 c 0,130,131
 257 276 257 276 271.5 272 c 128,-1,132
 286 268 286 268 304 266 c 0,133,134
 349 260 349 260 371.5 247.5 c 128,-1,135
 394 235 394 235 395 215 c 2,136,-1
 396 205 l 2,137,138
 396 197 396 197 392 195 c 128,-1,139
 388 193 388 193 375 191 c 0,140,141
 364 190 364 190 357 185.5 c 128,-1,142
 350 181 350 181 350 175 c 0,143,144
 350 167 350 167 364 164 c 0,145,113
 372 162 372 162 395 162 c 0,114,115
1214 -52 m 0,147,148
 1220 -52 1220 -52 1223 -46.5 c 128,-1,149
 1226 -41 1226 -41 1226 -32 c 0,150,151
 1226 -9 1226 -9 1211 3 c 0,152,153
 1111 88 1111 88 981 107 c 0,154,155
 957 110 957 110 856 110 c 0,156,157
 740 110 740 110 610 107 c 0,158,159
 479 104 479 104 371 104 c 0,160,161
 259 104 259 104 226 108 c 0,162,163
 90 125 90 125 57 145 c 0,164,165
 53 148 53 148 47 148 c 0,166,167
 38 148 38 148 33.5 139.5 c 128,-1,168
 29 131 29 131 31 118 c 0,169,170
 38 80 38 80 88 51 c 128,-1,171
 138 22 138 22 223 7 c 0,172,173
 318 -9 318 -9 426 -9 c 2,174,-1
 463 -9 l 2,175,176
 583 -6 583 -6 850 -6 c 0,177,178
 971 -6 971 -6 987 -7 c 0,179,180
 1089 -14 1089 -14 1145 -28 c 0,181,182
 1163 -32 1163 -32 1182 -38.5 c 128,-1,183
 1201 -45 1201 -45 1206 -49 c 0,184,146
 1211 -52 1211 -52 1214 -52 c 0,147,148
EndSplineSet
Fore
SplineSet
319 430.940429688 m 128,-1,1
 328.280273438 429.200195312 328.280273438 429.200195312 332.33984375 429.200195312 c 128,-1,2
 336.400390625 429.200195312 336.400390625 429.200195312 338.719726562 430.360351562 c 0,3,4
 346.83984375 433.83984375 346.83984375 433.83984375 350.900390625 446.599609375 c 128,-1,5
 354.959960938 459.360351562 354.959960938 459.360351562 349.16015625 464 c 0,6,7
 345.6796875 469.799804688 345.6796875 469.799804688 325.959960938 473.280273438 c 0,8,9
 276.080078125 481.400390625 276.080078125 481.400390625 249.98046875 501.120117188 c 128,-1,10
 223.879882812 520.83984375 223.879882812 520.83984375 223.879882812 546.360351562 c 0,11,12
 223.879882812 589.280273438 223.879882812 589.280273438 283.620117188 612.48046875 c 128,-1,13
 343.360351562 635.6796875 343.360351562 635.6796875 452.400390625 635.6796875 c 0,14,15
 672.799804688 635.6796875 672.799804688 635.6796875 749.360351562 551 c 0,16,17
 762.120117188 535.919921875 762.120117188 535.919921875 767.33984375 527.799804688 c 128,-1,18
 772.559570312 519.6796875 772.559570312 519.6796875 772.559570312 512.719726562 c 0,19,20
 772.559570312 483.719726562 772.559570312 483.719726562 726.16015625 481.400390625 c 0,21,22
 705.280273438 479.080078125 705.280273438 479.080078125 696.580078125 476.759765625 c 128,-1,23
 687.879882812 474.440429688 687.879882812 474.440429688 684.400390625 469.799804688 c 2,24,-1
 682.080078125 464 l 2,25,26
 682.080078125 458.200195312 682.080078125 458.200195312 692.51953125 451.240234375 c 0,27,28
 704.120117188 443.120117188 704.120117188 443.120117188 765.01953125 435 c 128,-1,29
 825.919921875 426.879882812 825.919921875 426.879882812 852.599609375 430.360351562 c 0,30,31
 892.040039062 436.16015625 892.040039062 436.16015625 908.280273438 440.219726562 c 128,-1,32
 924.51953125 444.280273438 924.51953125 444.280273438 931.48046875 454.139648438 c 128,-1,33
 938.440429688 464 938.440429688 464 938.440429688 486.040039062 c 0,34,35
 938.440429688 513.879882812 938.440429688 513.879882812 931.48046875 531.860351562 c 128,-1,36
 924.51953125 549.83984375 924.51953125 549.83984375 905.959960938 567.240234375 c 0,37,38
 836.360351562 636.83984375 836.360351562 636.83984375 642.639648438 662.360351562 c 0,39,40
 503.440429688 680.919921875 503.440429688 680.919921875 425.719726562 680.919921875 c 0,41,42
 365.400390625 680.919921875 365.400390625 680.919921875 306.240234375 671.059570312 c 128,-1,43
 247.080078125 661.200195312 247.080078125 661.200195312 175.16015625 638 c 0,44,45
 131.080078125 624.080078125 131.080078125 624.080078125 111.360351562 610.16015625 c 128,-1,46
 91.6396484375 596.240234375 91.6396484375 596.240234375 85.83984375 575.360351562 c 0,47,48
 82.3603515625 563.759765625 82.3603515625 563.759765625 82.3603515625 549.83984375 c 256,49,50
 82.3603515625 535.919921875 82.3603515625 535.919921875 85.83984375 528.959960938 c 0,51,52
 97.4404296875 497.639648438 97.4404296875 497.639648438 148.48046875 473.280273438 c 128,-1,53
 199.51953125 448.919921875 199.51953125 448.919921875 288.83984375 436.16015625 c 0,54,0
 309.719726562 432.6796875 309.719726562 432.6796875 319 430.940429688 c 128,-1,1
1156.51953125 435 m 0,56,57
 1184.36035156 435 1184.36035156 435 1192.48046875 438.48046875 c 0,58,59
 1204.08007812 443.120117188 1204.08007812 443.120117188 1204.08007812 452.400390625 c 256,60,61
 1204.08007812 461.6796875 1204.08007812 461.6796875 1191.3203125 467.48046875 c 0,62,63
 1179.71972656 470.959960938 1179.71972656 470.959960938 1171.59960938 487.780273438 c 128,-1,64
 1163.48046875 504.599609375 1163.48046875 504.599609375 1146.08007812 561.440429688 c 0,65,66
 1134.48046875 599.719726562 1134.48046875 599.719726562 1124.04003906 618.280273438 c 128,-1,67
 1113.59960938 636.83984375 1113.59960938 636.83984375 1098.51953125 645.540039062 c 128,-1,68
 1083.44042969 654.240234375 1083.44042969 654.240234375 1054.44042969 657.719726562 c 0,69,70
 1033.55957031 661.200195312 1033.55957031 661.200195312 1015 661.200195312 c 0,71,72
 992.959960938 661.200195312 992.959960938 661.200195312 978.459960938 657.139648438 c 128,-1,73
 963.959960938 653.080078125 963.959960938 653.080078125 960.48046875 646.120117188 c 2,74,-1
 960.48046875 643.799804688 l 2,75,76
 960.48046875 635.6796875 960.48046875 635.6796875 975.559570312 629.879882812 c 0,77,78
 989.48046875 625.240234375 989.48046875 625.240234375 997.599609375 609 c 128,-1,79
 1005.71972656 592.759765625 1005.71972656 592.759765625 1024.28027344 532.440429688 c 0,80,81
 1037.04003906 491.83984375 1037.04003906 491.83984375 1052.12011719 470.959960938 c 128,-1,82
 1067.20019531 450.080078125 1067.20019531 450.080078125 1091.55957031 441.959960938 c 0,83,55
 1115.91992188 435 1115.91992188 435 1156.51953125 435 c 0,56,57
1365.3203125 435 m 0,85,86
 1393.16015625 435 1393.16015625 435 1401.28027344 438.48046875 c 0,87,88
 1412.87988281 443.120117188 1412.87988281 443.120117188 1412.87988281 452.400390625 c 256,89,90
 1412.87988281 461.6796875 1412.87988281 461.6796875 1400.12011719 467.48046875 c 0,91,92
 1388.51953125 470.959960938 1388.51953125 470.959960938 1380.98046875 487.200195312 c 128,-1,93
 1373.44042969 503.440429688 1373.44042969 503.440429688 1354.87988281 561.440429688 c 0,94,95
 1343.28027344 599.719726562 1343.28027344 599.719726562 1332.83984375 618.280273438 c 128,-1,96
 1322.40039062 636.83984375 1322.40039062 636.83984375 1307.3203125 644.959960938 c 128,-1,97
 1292.24023438 653.080078125 1292.24023438 653.080078125 1263.24023438 657.719726562 c 0,98,99
 1242.36035156 661.200195312 1242.36035156 661.200195312 1223.79980469 661.200195312 c 0,100,101
 1201.75976562 661.200195312 1201.75976562 661.200195312 1187.25976562 657.139648438 c 128,-1,102
 1172.75976562 653.080078125 1172.75976562 653.080078125 1169.28027344 646.120117188 c 2,103,-1
 1169.28027344 643.799804688 l 2,104,105
 1169.28027344 635.6796875 1169.28027344 635.6796875 1184.36035156 629.879882812 c 0,106,107
 1198.28027344 625.240234375 1198.28027344 625.240234375 1206.40039062 609 c 128,-1,108
 1214.51953125 592.759765625 1214.51953125 592.759765625 1233.08007812 532.440429688 c 0,109,110
 1245.83984375 491.83984375 1245.83984375 491.83984375 1260.91992188 470.959960938 c 128,-1,111
 1276 450.080078125 1276 450.080078125 1300.36035156 441.959960938 c 0,112,84
 1324.71972656 435 1324.71972656 435 1365.3203125 435 c 0,85,86
504.599609375 419.919921875 m 0,114,115
 533.599609375 419.919921875 533.599609375 419.919921875 563.759765625 423.98046875 c 128,-1,116
 593.919921875 428.040039062 593.919921875 428.040039062 606.6796875 435 c 0,117,118
 632.200195312 448.919921875 632.200195312 448.919921875 632.200195312 468.639648438 c 0,119,120
 632.200195312 487.200195312 632.200195312 487.200195312 611.900390625 507.5 c 128,-1,121
 591.599609375 527.799804688 591.599609375 527.799804688 555.639648438 542.879882812 c 0,122,123
 522 557.959960938 522 557.959960938 457.620117188 573.620117188 c 128,-1,124
 393.240234375 589.280273438 393.240234375 589.280273438 367.719726562 589.280273438 c 0,125,126
 353.799804688 589.280273438 353.799804688 589.280273438 344.51953125 583.48046875 c 128,-1,127
 335.240234375 577.6796875 335.240234375 577.6796875 335.240234375 568.400390625 c 0,128,129
 335.240234375 561.440429688 335.240234375 561.440429688 341.040039062 555.639648438 c 0,130,131
 344.51953125 552.16015625 344.51953125 552.16015625 361.33984375 547.51953125 c 128,-1,132
 378.16015625 542.879882812 378.16015625 542.879882812 399.040039062 540.559570312 c 0,133,134
 451.240234375 533.599609375 451.240234375 533.599609375 477.33984375 519.099609375 c 128,-1,135
 503.440429688 504.599609375 503.440429688 504.599609375 504.599609375 481.400390625 c 2,136,-1
 505.759765625 469.799804688 l 2,137,138
 505.759765625 460.51953125 505.759765625 460.51953125 501.120117188 458.200195312 c 128,-1,139
 496.48046875 455.879882812 496.48046875 455.879882812 481.400390625 453.559570312 c 0,140,141
 468.639648438 452.400390625 468.639648438 452.400390625 460.51953125 447.1796875 c 128,-1,142
 452.400390625 441.959960938 452.400390625 441.959960938 452.400390625 435 c 0,143,144
 452.400390625 425.719726562 452.400390625 425.719726562 468.639648438 422.240234375 c 0,145,113
 477.919921875 419.919921875 477.919921875 419.919921875 504.599609375 419.919921875 c 0,114,115
1454.63964844 171.6796875 m 0,147,148
 1461.59960938 171.6796875 1461.59960938 171.6796875 1465.08007812 178.059570312 c 128,-1,149
 1468.55957031 184.440429688 1468.55957031 184.440429688 1468.55957031 194.879882812 c 0,150,151
 1468.55957031 221.559570312 1468.55957031 221.559570312 1451.16015625 235.48046875 c 0,152,153
 1335.16015625 334.080078125 1335.16015625 334.080078125 1184.36035156 356.120117188 c 0,154,155
 1156.51953125 359.599609375 1156.51953125 359.599609375 1039.36035156 359.599609375 c 0,156,157
 904.799804688 359.599609375 904.799804688 359.599609375 754 356.120117188 c 0,158,159
 602.040039062 352.639648438 602.040039062 352.639648438 476.759765625 352.639648438 c 0,160,161
 346.83984375 352.639648438 346.83984375 352.639648438 308.559570312 357.280273438 c 0,162,163
 150.799804688 377 150.799804688 377 112.51953125 400.200195312 c 0,164,165
 107.879882812 403.6796875 107.879882812 403.6796875 100.919921875 403.6796875 c 0,166,167
 90.48046875 403.6796875 90.48046875 403.6796875 85.259765625 393.8203125 c 128,-1,168
 80.0400390625 383.959960938 80.0400390625 383.959960938 82.3603515625 368.879882812 c 0,169,170
 90.48046875 324.799804688 90.48046875 324.799804688 148.48046875 291.16015625 c 128,-1,171
 206.48046875 257.51953125 206.48046875 257.51953125 305.080078125 240.120117188 c 0,172,173
 415.280273438 221.559570312 415.280273438 221.559570312 540.559570312 221.559570312 c 2,174,-1
 583.48046875 221.559570312 l 2,175,176
 722.6796875 225.040039062 722.6796875 225.040039062 1032.40039062 225.040039062 c 0,177,178
 1172.75976562 225.040039062 1172.75976562 225.040039062 1191.3203125 223.879882812 c 0,179,180
 1309.63964844 215.759765625 1309.63964844 215.759765625 1374.59960938 199.51953125 c 0,181,182
 1395.48046875 194.879882812 1395.48046875 194.879882812 1417.51953125 187.33984375 c 128,-1,183
 1439.55957031 179.799804688 1439.55957031 179.799804688 1445.36035156 175.16015625 c 0,184,146
 1451.16015625 171.6796875 1451.16015625 171.6796875 1454.63964844 171.6796875 c 0,147,148
EndSplineSet
EndChar

StartChar: D
Encoding: 68 68 4
Width: 0
GlyphClass: 1
Flags: W
LayerCount: 2
Back
SplineSet
-289 -220.5 m 128,-1,1
 -271 -223 -271 -223 -246 -223 c 0,2,3
 -214 -223 -214 -223 -202.5 -221.5 c 128,-1,4
 -191 -220 -191 -220 -185.5 -213.5 c 128,-1,5
 -180 -207 -180 -207 -172 -189 c 0,6,7
 -166 -175 -166 -175 -156.5 -161.5 c 128,-1,8
 -147 -148 -147 -148 -140 -144 c 0,9,10
 -130 -138 -130 -138 -140 -136 c 128,-1,11
 -150 -134 -150 -134 -189 -133 c 0,12,13
 -225 -133 -225 -133 -237.5 -134.5 c 128,-1,14
 -250 -136 -250 -136 -255.5 -141.5 c 128,-1,15
 -261 -147 -261 -147 -266 -163 c 0,16,17
 -271 -176 -271 -176 -278 -186.5 c 128,-1,18
 -285 -197 -285 -197 -292 -199 c 0,19,20
 -298 -201 -298 -201 -302.5 -205.5 c 128,-1,21
 -307 -210 -307 -210 -307 -214 c 256,22,0
 -307 -218 -307 -218 -289 -220.5 c 128,-1,1
EndSplineSet
Fore
SplineSet
-288.83984375 -23.7802734375 m 128,-1,1
 -267.959960938 -26.6796875 -267.959960938 -26.6796875 -238.959960938 -26.6796875 c 0,2,3
 -201.83984375 -26.6796875 -201.83984375 -26.6796875 -188.5 -24.9404296875 c 128,-1,4
 -175.16015625 -23.2001953125 -175.16015625 -23.2001953125 -168.780273438 -15.66015625 c 128,-1,5
 -162.400390625 -8.1201171875 -162.400390625 -8.1201171875 -153.120117188 12.759765625 c 0,6,7
 -146.16015625 29 -146.16015625 29 -135.139648438 44.66015625 c 128,-1,8
 -124.120117188 60.3203125 -124.120117188 60.3203125 -116 64.9599609375 c 0,9,10
 -104.400390625 71.919921875 -104.400390625 71.919921875 -116 74.240234375 c 128,-1,11
 -127.599609375 76.5595703125 -127.599609375 76.5595703125 -172.83984375 77.7197265625 c 0,12,13
 -214.599609375 77.7197265625 -214.599609375 77.7197265625 -229.099609375 75.98046875 c 128,-1,14
 -243.599609375 74.240234375 -243.599609375 74.240234375 -249.98046875 67.8603515625 c 128,-1,15
 -256.360351562 61.48046875 -256.360351562 61.48046875 -262.16015625 42.919921875 c 0,16,17
 -267.959960938 27.83984375 -267.959960938 27.83984375 -276.080078125 15.66015625 c 128,-1,18
 -284.200195312 3.48046875 -284.200195312 3.48046875 -292.3203125 1.16015625 c 0,19,20
 -299.280273438 -1.16015625 -299.280273438 -1.16015625 -304.5 -6.3798828125 c 128,-1,21
 -309.719726562 -11.599609375 -309.719726562 -11.599609375 -309.719726562 -16.240234375 c 256,22,0
 -309.719726562 -20.8798828125 -309.719726562 -20.8798828125 -288.83984375 -23.7802734375 c 128,-1,1
EndSplineSet
EndChar

StartChar: F
Encoding: 70 70 6
Width: 0
GlyphClass: 1
Flags: W
LayerCount: 2
Back
SplineSet
-381 -220.5 m 128,-1,1
 -363 -223 -363 -223 -338 -223 c 0,2,3
 -306 -223 -306 -223 -294.5 -221.5 c 128,-1,4
 -283 -220 -283 -220 -277.5 -213.5 c 128,-1,5
 -272 -207 -272 -207 -264 -189 c 0,6,7
 -258 -175 -258 -175 -248.5 -161.5 c 128,-1,8
 -239 -148 -239 -148 -232 -144 c 0,9,10
 -222 -138 -222 -138 -232 -136 c 128,-1,11
 -242 -134 -242 -134 -281 -133 c 0,12,13
 -317 -133 -317 -133 -329.5 -134.5 c 128,-1,14
 -342 -136 -342 -136 -347.5 -141.5 c 128,-1,15
 -353 -147 -353 -147 -358 -163 c 0,16,17
 -363 -176 -363 -176 -370 -186.5 c 128,-1,18
 -377 -197 -377 -197 -384 -199 c 0,19,20
 -390 -201 -390 -201 -394.5 -205.5 c 128,-1,21
 -399 -210 -399 -210 -399 -214 c 256,22,0
 -399 -218 -399 -218 -381 -220.5 c 128,-1,1
-217 -220.5 m 128,-1,24
 -199 -223 -199 -223 -174 -223 c 0,25,26
 -142 -223 -142 -223 -130.5 -221.5 c 128,-1,27
 -119 -220 -119 -220 -113.5 -213.5 c 128,-1,28
 -108 -207 -108 -207 -100 -189 c 0,29,30
 -94 -175 -94 -175 -84.5 -161.5 c 128,-1,31
 -75 -148 -75 -148 -68 -144 c 0,32,33
 -58 -138 -58 -138 -68 -136 c 128,-1,34
 -78 -134 -78 -134 -117 -133 c 0,35,36
 -153 -133 -153 -133 -165.5 -134.5 c 128,-1,37
 -178 -136 -178 -136 -183.5 -141.5 c 128,-1,38
 -189 -147 -189 -147 -194 -163 c 0,39,40
 -199 -176 -199 -176 -206 -186.5 c 128,-1,41
 -213 -197 -213 -197 -220 -199 c 0,42,43
 -226 -201 -226 -201 -230.5 -205.5 c 128,-1,44
 -235 -210 -235 -210 -235 -214 c 256,45,23
 -235 -218 -235 -218 -217 -220.5 c 128,-1,24
EndSplineSet
Fore
SplineSet
-395.559570312 -23.7802734375 m 128,-1,1
 -374.6796875 -26.6796875 -374.6796875 -26.6796875 -345.6796875 -26.6796875 c 0,2,3
 -308.559570312 -26.6796875 -308.559570312 -26.6796875 -295.219726562 -24.9404296875 c 128,-1,4
 -281.879882812 -23.2001953125 -281.879882812 -23.2001953125 -275.5 -15.66015625 c 128,-1,5
 -269.120117188 -8.1201171875 -269.120117188 -8.1201171875 -259.83984375 12.759765625 c 0,6,7
 -252.879882812 29 -252.879882812 29 -241.860351562 44.66015625 c 128,-1,8
 -230.83984375 60.3203125 -230.83984375 60.3203125 -222.719726562 64.9599609375 c 0,9,10
 -211.120117188 71.919921875 -211.120117188 71.919921875 -222.719726562 74.240234375 c 128,-1,11
 -234.3203125 76.5595703125 -234.3203125 76.5595703125 -279.559570312 77.7197265625 c 0,12,13
 -321.3203125 77.7197265625 -321.3203125 77.7197265625 -335.8203125 75.98046875 c 128,-1,14
 -350.3203125 74.240234375 -350.3203125 74.240234375 -356.700195312 67.8603515625 c 128,-1,15
 -363.080078125 61.48046875 -363.080078125 61.48046875 -368.879882812 42.919921875 c 0,16,17
 -374.6796875 27.83984375 -374.6796875 27.83984375 -382.799804688 15.66015625 c 128,-1,18
 -390.919921875 3.48046875 -390.919921875 3.48046875 -399.040039062 1.16015625 c 0,19,20
 -406 -1.16015625 -406 -1.16015625 -411.219726562 -6.3798828125 c 128,-1,21
 -416.440429688 -11.599609375 -416.440429688 -11.599609375 -416.440429688 -16.240234375 c 256,22,0
 -416.440429688 -20.8798828125 -416.440429688 -20.8798828125 -395.559570312 -23.7802734375 c 128,-1,1
-205.3203125 -23.7802734375 m 128,-1,24
 -184.440429688 -26.6796875 -184.440429688 -26.6796875 -155.440429688 -26.6796875 c 0,25,26
 -118.3203125 -26.6796875 -118.3203125 -26.6796875 -104.98046875 -24.9404296875 c 128,-1,27
 -91.6396484375 -23.2001953125 -91.6396484375 -23.2001953125 -85.259765625 -15.66015625 c 128,-1,28
 -78.8798828125 -8.1201171875 -78.8798828125 -8.1201171875 -69.599609375 12.759765625 c 0,29,30
 -62.6396484375 29 -62.6396484375 29 -51.6201171875 44.66015625 c 128,-1,31
 -40.599609375 60.3203125 -40.599609375 60.3203125 -32.48046875 64.9599609375 c 0,32,33
 -20.8798828125 71.919921875 -20.8798828125 71.919921875 -32.48046875 74.240234375 c 128,-1,34
 -44.080078125 76.5595703125 -44.080078125 76.5595703125 -89.3203125 77.7197265625 c 0,35,36
 -131.080078125 77.7197265625 -131.080078125 77.7197265625 -145.580078125 75.98046875 c 128,-1,37
 -160.080078125 74.240234375 -160.080078125 74.240234375 -166.459960938 67.8603515625 c 128,-1,38
 -172.83984375 61.48046875 -172.83984375 61.48046875 -178.639648438 42.919921875 c 0,39,40
 -184.440429688 27.83984375 -184.440429688 27.83984375 -192.559570312 15.66015625 c 128,-1,41
 -200.6796875 3.48046875 -200.6796875 3.48046875 -208.799804688 1.16015625 c 0,42,43
 -215.759765625 -1.16015625 -215.759765625 -1.16015625 -220.98046875 -6.3798828125 c 128,-1,44
 -226.200195312 -11.599609375 -226.200195312 -11.599609375 -226.200195312 -16.240234375 c 256,45,23
 -226.200195312 -20.8798828125 -226.200195312 -20.8798828125 -205.3203125 -23.7802734375 c 128,-1,24
EndSplineSet
EndChar

StartChar: G
Encoding: 71 71 7
Width: 0
GlyphClass: 1
Flags: W
LayerCount: 2
Back
SplineSet
-456 -220.5 m 128,-1,1
 -438 -223 -438 -223 -413 -223 c 0,2,3
 -381 -223 -381 -223 -369.5 -221.5 c 128,-1,4
 -358 -220 -358 -220 -352.5 -213.5 c 128,-1,5
 -347 -207 -347 -207 -339 -189 c 0,6,7
 -333 -175 -333 -175 -323.5 -161.5 c 128,-1,8
 -314 -148 -314 -148 -307 -144 c 0,9,10
 -297 -138 -297 -138 -307 -136 c 128,-1,11
 -317 -134 -317 -134 -356 -133 c 0,12,13
 -392 -133 -392 -133 -404.5 -134.5 c 128,-1,14
 -417 -136 -417 -136 -422.5 -141.5 c 128,-1,15
 -428 -147 -428 -147 -433 -163 c 0,16,17
 -438 -176 -438 -176 -445 -186.5 c 128,-1,18
 -452 -197 -452 -197 -459 -199 c 0,19,20
 -465 -201 -465 -201 -469.5 -205.5 c 128,-1,21
 -474 -210 -474 -210 -474 -214 c 256,22,0
 -474 -218 -474 -218 -456 -220.5 c 128,-1,1
-287 -220.5 m 128,-1,24
 -269 -223 -269 -223 -244 -223 c 0,25,26
 -212 -223 -212 -223 -200.5 -221.5 c 128,-1,27
 -189 -220 -189 -220 -183.5 -213.5 c 128,-1,28
 -178 -207 -178 -207 -170 -189 c 0,29,30
 -164 -175 -164 -175 -154.5 -161.5 c 128,-1,31
 -145 -148 -145 -148 -138 -144 c 0,32,33
 -128 -138 -128 -138 -138 -136 c 128,-1,34
 -148 -134 -148 -134 -187 -133 c 0,35,36
 -223 -133 -223 -133 -235.5 -134.5 c 128,-1,37
 -248 -136 -248 -136 -253.5 -141.5 c 128,-1,38
 -259 -147 -259 -147 -264 -163 c 0,39,40
 -269 -176 -269 -176 -276 -186.5 c 128,-1,41
 -283 -197 -283 -197 -290 -199 c 0,42,43
 -296 -201 -296 -201 -300.5 -205.5 c 128,-1,44
 -305 -210 -305 -210 -305 -214 c 256,45,23
 -305 -218 -305 -218 -287 -220.5 c 128,-1,24
-118 -220.5 m 128,-1,47
 -100 -223 -100 -223 -75 -223 c 0,48,49
 -43 -223 -43 -223 -31.5 -221.5 c 128,-1,50
 -20 -220 -20 -220 -14.5 -213.5 c 128,-1,51
 -9 -207 -9 -207 -1 -189 c 0,52,53
 5 -175 5 -175 14.5 -161.5 c 128,-1,54
 24 -148 24 -148 31 -144 c 0,55,56
 41 -138 41 -138 31 -136 c 128,-1,57
 21 -134 21 -134 -18 -133 c 0,58,59
 -54 -133 -54 -133 -66.5 -134.5 c 128,-1,60
 -79 -136 -79 -136 -84.5 -141.5 c 128,-1,61
 -90 -147 -90 -147 -95 -163 c 0,62,63
 -100 -176 -100 -176 -107 -186.5 c 128,-1,64
 -114 -197 -114 -197 -121 -199 c 0,65,66
 -127 -201 -127 -201 -131.5 -205.5 c 128,-1,67
 -136 -210 -136 -210 -136 -214 c 256,68,46
 -136 -218 -136 -218 -118 -220.5 c 128,-1,47
EndSplineSet
Fore
SplineSet
-482.559570312 -23.7802734375 m 128,-1,1
 -461.6796875 -26.6796875 -461.6796875 -26.6796875 -432.6796875 -26.6796875 c 0,2,3
 -395.559570312 -26.6796875 -395.559570312 -26.6796875 -382.219726562 -24.9404296875 c 128,-1,4
 -368.879882812 -23.2001953125 -368.879882812 -23.2001953125 -362.5 -15.66015625 c 128,-1,5
 -356.120117188 -8.1201171875 -356.120117188 -8.1201171875 -346.83984375 12.759765625 c 0,6,7
 -339.879882812 29 -339.879882812 29 -328.860351562 44.66015625 c 128,-1,8
 -317.83984375 60.3203125 -317.83984375 60.3203125 -309.719726562 64.9599609375 c 0,9,10
 -298.120117188 71.919921875 -298.120117188 71.919921875 -309.719726562 74.240234375 c 128,-1,11
 -321.3203125 76.5595703125 -321.3203125 76.5595703125 -366.559570312 77.7197265625 c 0,12,13
 -408.3203125 77.7197265625 -408.3203125 77.7197265625 -422.8203125 75.98046875 c 128,-1,14
 -437.3203125 74.240234375 -437.3203125 74.240234375 -443.700195312 67.8603515625 c 128,-1,15
 -450.080078125 61.48046875 -450.080078125 61.48046875 -455.879882812 42.919921875 c 0,16,17
 -461.6796875 27.83984375 -461.6796875 27.83984375 -469.799804688 15.66015625 c 128,-1,18
 -477.919921875 3.48046875 -477.919921875 3.48046875 -486.040039062 1.16015625 c 0,19,20
 -493 -1.16015625 -493 -1.16015625 -498.219726562 -6.3798828125 c 128,-1,21
 -503.440429688 -11.599609375 -503.440429688 -11.599609375 -503.440429688 -16.240234375 c 256,22,0
 -503.440429688 -20.8798828125 -503.440429688 -20.8798828125 -482.559570312 -23.7802734375 c 128,-1,1
-286.51953125 -23.7802734375 m 128,-1,24
 -265.639648438 -26.6796875 -265.639648438 -26.6796875 -236.639648438 -26.6796875 c 0,25,26
 -199.51953125 -26.6796875 -199.51953125 -26.6796875 -186.1796875 -24.9404296875 c 128,-1,27
 -172.83984375 -23.2001953125 -172.83984375 -23.2001953125 -166.459960938 -15.66015625 c 128,-1,28
 -160.080078125 -8.1201171875 -160.080078125 -8.1201171875 -150.799804688 12.759765625 c 0,29,30
 -143.83984375 29 -143.83984375 29 -132.8203125 44.66015625 c 128,-1,31
 -121.799804688 60.3203125 -121.799804688 60.3203125 -113.6796875 64.9599609375 c 0,32,33
 -102.080078125 71.919921875 -102.080078125 71.919921875 -113.6796875 74.240234375 c 128,-1,34
 -125.280273438 76.5595703125 -125.280273438 76.5595703125 -170.51953125 77.7197265625 c 0,35,36
 -212.280273438 77.7197265625 -212.280273438 77.7197265625 -226.780273438 75.98046875 c 128,-1,37
 -241.280273438 74.240234375 -241.280273438 74.240234375 -247.66015625 67.8603515625 c 128,-1,38
 -254.040039062 61.48046875 -254.040039062 61.48046875 -259.83984375 42.919921875 c 0,39,40
 -265.639648438 27.83984375 -265.639648438 27.83984375 -273.759765625 15.66015625 c 128,-1,41
 -281.879882812 3.48046875 -281.879882812 3.48046875 -290 1.16015625 c 0,42,43
 -296.959960938 -1.16015625 -296.959960938 -1.16015625 -302.1796875 -6.3798828125 c 128,-1,44
 -307.400390625 -11.599609375 -307.400390625 -11.599609375 -307.400390625 -16.240234375 c 256,45,23
 -307.400390625 -20.8798828125 -307.400390625 -20.8798828125 -286.51953125 -23.7802734375 c 128,-1,24
-90.48046875 -23.7802734375 m 128,-1,47
 -69.599609375 -26.6796875 -69.599609375 -26.6796875 -40.599609375 -26.6796875 c 0,48,49
 -3.48046875 -26.6796875 -3.48046875 -26.6796875 9.8603515625 -24.9404296875 c 128,-1,50
 23.2001953125 -23.2001953125 23.2001953125 -23.2001953125 29.580078125 -15.66015625 c 128,-1,51
 35.9599609375 -8.1201171875 35.9599609375 -8.1201171875 45.240234375 12.759765625 c 0,52,53
 52.2001953125 29 52.2001953125 29 63.2197265625 44.66015625 c 128,-1,54
 74.240234375 60.3203125 74.240234375 60.3203125 82.3603515625 64.9599609375 c 0,55,56
 93.9599609375 71.919921875 93.9599609375 71.919921875 82.3603515625 74.240234375 c 128,-1,57
 70.759765625 76.5595703125 70.759765625 76.5595703125 25.51953125 77.7197265625 c 0,58,59
 -16.240234375 77.7197265625 -16.240234375 77.7197265625 -30.740234375 75.98046875 c 128,-1,60
 -45.240234375 74.240234375 -45.240234375 74.240234375 -51.6201171875 67.8603515625 c 128,-1,61
 -58 61.48046875 -58 61.48046875 -63.7998046875 42.919921875 c 0,62,63
 -69.599609375 27.83984375 -69.599609375 27.83984375 -77.7197265625 15.66015625 c 128,-1,64
 -85.83984375 3.48046875 -85.83984375 3.48046875 -93.9599609375 1.16015625 c 0,65,66
 -100.919921875 -1.16015625 -100.919921875 -1.16015625 -106.139648438 -6.3798828125 c 128,-1,67
 -111.360351562 -11.599609375 -111.360351562 -11.599609375 -111.360351562 -16.240234375 c 256,68,46
 -111.360351562 -20.8798828125 -111.360351562 -20.8798828125 -90.48046875 -23.7802734375 c 128,-1,47
EndSplineSet
EndChar

StartChar: H
Encoding: 72 72 8
Width: 0
GlyphClass: 1
Flags: W
LayerCount: 2
Back
SplineSet
-325 -220.5 m 128,-1,1
 -307 -223 -307 -223 -282 -223 c 0,2,3
 -250 -223 -250 -223 -238.5 -221.5 c 128,-1,4
 -227 -220 -227 -220 -221.5 -213.5 c 128,-1,5
 -216 -207 -216 -207 -208 -189 c 0,6,7
 -202 -175 -202 -175 -192.5 -161.5 c 128,-1,8
 -183 -148 -183 -148 -176 -144 c 0,9,10
 -166 -138 -166 -138 -176 -136 c 128,-1,11
 -186 -134 -186 -134 -225 -133 c 0,12,13
 -261 -133 -261 -133 -273.5 -134.5 c 128,-1,14
 -286 -136 -286 -136 -291.5 -141.5 c 128,-1,15
 -297 -147 -297 -147 -302 -163 c 0,16,17
 -307 -176 -307 -176 -314 -186.5 c 128,-1,18
 -321 -197 -321 -197 -328 -199 c 0,19,20
 -334 -201 -334 -201 -338.5 -205.5 c 128,-1,21
 -343 -210 -343 -210 -343 -214 c 256,22,0
 -343 -218 -343 -218 -325 -220.5 c 128,-1,1
-157 -220.5 m 128,-1,24
 -139 -223 -139 -223 -114 -223 c 0,25,26
 -82 -223 -82 -223 -70.5 -221.5 c 128,-1,27
 -59 -220 -59 -220 -53.5 -213.5 c 128,-1,28
 -48 -207 -48 -207 -40 -189 c 0,29,30
 -34 -175 -34 -175 -24.5 -161.5 c 128,-1,31
 -15 -148 -15 -148 -8 -144 c 0,32,33
 2 -138 2 -138 -8 -136 c 128,-1,34
 -18 -134 -18 -134 -57 -133 c 0,35,36
 -93 -133 -93 -133 -105.5 -134.5 c 128,-1,37
 -118 -136 -118 -136 -123.5 -141.5 c 128,-1,38
 -129 -147 -129 -147 -134 -163 c 0,39,40
 -139 -176 -139 -176 -146 -186.5 c 128,-1,41
 -153 -197 -153 -197 -160 -199 c 0,42,43
 -166 -201 -166 -201 -170.5 -205.5 c 128,-1,44
 -175 -210 -175 -210 -175 -214 c 256,45,23
 -175 -218 -175 -218 -157 -220.5 c 128,-1,24
11 -220.5 m 128,-1,47
 29 -223 29 -223 54 -223 c 0,48,49
 86 -223 86 -223 97.5 -221.5 c 128,-1,50
 109 -220 109 -220 114.5 -213.5 c 128,-1,51
 120 -207 120 -207 128 -189 c 0,52,53
 134 -175 134 -175 143.5 -161.5 c 128,-1,54
 153 -148 153 -148 160 -144 c 0,55,56
 170 -138 170 -138 160 -136 c 128,-1,57
 150 -134 150 -134 111 -133 c 0,58,59
 75 -133 75 -133 62.5 -134.5 c 128,-1,60
 50 -136 50 -136 44.5 -141.5 c 128,-1,61
 39 -147 39 -147 34 -163 c 0,62,63
 29 -176 29 -176 22 -186.5 c 128,-1,64
 15 -197 15 -197 8 -199 c 0,65,66
 2 -201 2 -201 -2.5 -205.5 c 128,-1,67
 -7 -210 -7 -210 -7 -214 c 256,68,46
 -7 -218 -7 -218 11 -220.5 c 128,-1,47
-493 -221.5 m 128,-1,70
 -475 -224 -475 -224 -450 -224 c 0,71,72
 -418 -224 -418 -224 -406.5 -222.5 c 128,-1,73
 -395 -221 -395 -221 -389.5 -214.5 c 128,-1,74
 -384 -208 -384 -208 -376 -190 c 0,75,76
 -370 -176 -370 -176 -360.5 -162.5 c 128,-1,77
 -351 -149 -351 -149 -344 -145 c 0,78,79
 -334 -139 -334 -139 -344 -137 c 128,-1,80
 -354 -135 -354 -135 -393 -134 c 0,81,82
 -429 -134 -429 -134 -441.5 -135.5 c 128,-1,83
 -454 -137 -454 -137 -459.5 -142.5 c 128,-1,84
 -465 -148 -465 -148 -470 -164 c 0,85,86
 -475 -177 -475 -177 -482 -187.5 c 128,-1,87
 -489 -198 -489 -198 -496 -200 c 0,88,89
 -502 -202 -502 -202 -506.5 -206.5 c 128,-1,90
 -511 -211 -511 -211 -511 -215 c 256,91,69
 -511 -219 -511 -219 -493 -221.5 c 128,-1,70
EndSplineSet
Fore
SplineSet
-330.599609375 -23.7802734375 m 128,-1,1
 -309.719726562 -26.6796875 -309.719726562 -26.6796875 -280.719726562 -26.6796875 c 0,2,3
 -243.599609375 -26.6796875 -243.599609375 -26.6796875 -230.259765625 -24.9404296875 c 128,-1,4
 -216.919921875 -23.2001953125 -216.919921875 -23.2001953125 -210.540039062 -15.66015625 c 128,-1,5
 -204.16015625 -8.1201171875 -204.16015625 -8.1201171875 -194.879882812 12.759765625 c 0,6,7
 -187.919921875 29 -187.919921875 29 -176.900390625 44.66015625 c 128,-1,8
 -165.879882812 60.3203125 -165.879882812 60.3203125 -157.759765625 64.9599609375 c 0,9,10
 -146.16015625 71.919921875 -146.16015625 71.919921875 -157.759765625 74.240234375 c 128,-1,11
 -169.360351562 76.5595703125 -169.360351562 76.5595703125 -214.599609375 77.7197265625 c 0,12,13
 -256.360351562 77.7197265625 -256.360351562 77.7197265625 -270.860351562 75.98046875 c 128,-1,14
 -285.360351562 74.240234375 -285.360351562 74.240234375 -291.740234375 67.8603515625 c 128,-1,15
 -298.120117188 61.48046875 -298.120117188 61.48046875 -303.919921875 42.919921875 c 0,16,17
 -309.719726562 27.83984375 -309.719726562 27.83984375 -317.83984375 15.66015625 c 128,-1,18
 -325.959960938 3.48046875 -325.959960938 3.48046875 -334.080078125 1.16015625 c 0,19,20
 -341.040039062 -1.16015625 -341.040039062 -1.16015625 -346.259765625 -6.3798828125 c 128,-1,21
 -351.48046875 -11.599609375 -351.48046875 -11.599609375 -351.48046875 -16.240234375 c 256,22,0
 -351.48046875 -20.8798828125 -351.48046875 -20.8798828125 -330.599609375 -23.7802734375 c 128,-1,1
-135.719726562 -23.7802734375 m 128,-1,24
 -114.83984375 -26.6796875 -114.83984375 -26.6796875 -85.83984375 -26.6796875 c 0,25,26
 -48.7197265625 -26.6796875 -48.7197265625 -26.6796875 -35.3798828125 -24.9404296875 c 128,-1,27
 -22.0400390625 -23.2001953125 -22.0400390625 -23.2001953125 -15.66015625 -15.66015625 c 128,-1,28
 -9.2802734375 -8.1201171875 -9.2802734375 -8.1201171875 0 12.759765625 c 0,29,30
 6.9599609375 29 6.9599609375 29 17.98046875 44.66015625 c 128,-1,31
 29 60.3203125 29 60.3203125 37.1201171875 64.9599609375 c 0,32,33
 48.7197265625 71.919921875 48.7197265625 71.919921875 37.1201171875 74.240234375 c 128,-1,34
 25.51953125 76.5595703125 25.51953125 76.5595703125 -19.7197265625 77.7197265625 c 0,35,36
 -61.48046875 77.7197265625 -61.48046875 77.7197265625 -75.98046875 75.98046875 c 128,-1,37
 -90.48046875 74.240234375 -90.48046875 74.240234375 -96.8603515625 67.8603515625 c 128,-1,38
 -103.240234375 61.48046875 -103.240234375 61.48046875 -109.040039062 42.919921875 c 0,39,40
 -114.83984375 27.83984375 -114.83984375 27.83984375 -122.959960938 15.66015625 c 128,-1,41
 -131.080078125 3.48046875 -131.080078125 3.48046875 -139.200195312 1.16015625 c 0,42,43
 -146.16015625 -1.16015625 -146.16015625 -1.16015625 -151.379882812 -6.3798828125 c 128,-1,44
 -156.599609375 -11.599609375 -156.599609375 -11.599609375 -156.599609375 -16.240234375 c 256,45,23
 -156.599609375 -20.8798828125 -156.599609375 -20.8798828125 -135.719726562 -23.7802734375 c 128,-1,24
59.16015625 -23.7802734375 m 128,-1,47
 80.0400390625 -26.6796875 80.0400390625 -26.6796875 109.040039062 -26.6796875 c 0,48,49
 146.16015625 -26.6796875 146.16015625 -26.6796875 159.5 -24.9404296875 c 128,-1,50
 172.83984375 -23.2001953125 172.83984375 -23.2001953125 179.219726562 -15.66015625 c 128,-1,51
 185.599609375 -8.1201171875 185.599609375 -8.1201171875 194.879882812 12.759765625 c 0,52,53
 201.83984375 29 201.83984375 29 212.860351562 44.66015625 c 128,-1,54
 223.879882812 60.3203125 223.879882812 60.3203125 232 64.9599609375 c 0,55,56
 243.599609375 71.919921875 243.599609375 71.919921875 232 74.240234375 c 128,-1,57
 220.400390625 76.5595703125 220.400390625 76.5595703125 175.16015625 77.7197265625 c 0,58,59
 133.400390625 77.7197265625 133.400390625 77.7197265625 118.900390625 75.98046875 c 128,-1,60
 104.400390625 74.240234375 104.400390625 74.240234375 98.01953125 67.8603515625 c 128,-1,61
 91.6396484375 61.48046875 91.6396484375 61.48046875 85.83984375 42.919921875 c 0,62,63
 80.0400390625 27.83984375 80.0400390625 27.83984375 71.919921875 15.66015625 c 128,-1,64
 63.7998046875 3.48046875 63.7998046875 3.48046875 55.6796875 1.16015625 c 0,65,66
 48.7197265625 -1.16015625 48.7197265625 -1.16015625 43.5 -6.3798828125 c 128,-1,67
 38.2802734375 -11.599609375 38.2802734375 -11.599609375 38.2802734375 -16.240234375 c 256,68,46
 38.2802734375 -20.8798828125 38.2802734375 -20.8798828125 59.16015625 -23.7802734375 c 128,-1,47
-525.48046875 -24.9404296875 m 128,-1,70
 -504.599609375 -27.83984375 -504.599609375 -27.83984375 -475.599609375 -27.83984375 c 0,71,72
 -438.48046875 -27.83984375 -438.48046875 -27.83984375 -425.139648438 -26.099609375 c 128,-1,73
 -411.799804688 -24.3603515625 -411.799804688 -24.3603515625 -405.419921875 -16.8203125 c 128,-1,74
 -399.040039062 -9.2802734375 -399.040039062 -9.2802734375 -389.759765625 11.599609375 c 0,75,76
 -382.799804688 27.83984375 -382.799804688 27.83984375 -371.780273438 43.5 c 128,-1,77
 -360.759765625 59.16015625 -360.759765625 59.16015625 -352.639648438 63.7998046875 c 0,78,79
 -341.040039062 70.759765625 -341.040039062 70.759765625 -352.639648438 73.080078125 c 128,-1,80
 -364.240234375 75.400390625 -364.240234375 75.400390625 -409.48046875 76.5595703125 c 0,81,82
 -451.240234375 76.5595703125 -451.240234375 76.5595703125 -465.740234375 74.8203125 c 128,-1,83
 -480.240234375 73.080078125 -480.240234375 73.080078125 -486.620117188 66.7001953125 c 128,-1,84
 -493 60.3203125 -493 60.3203125 -498.799804688 41.759765625 c 0,85,86
 -504.599609375 26.6796875 -504.599609375 26.6796875 -512.719726562 14.5 c 128,-1,87
 -520.83984375 2.3203125 -520.83984375 2.3203125 -528.959960938 0 c 0,88,89
 -535.919921875 -2.3203125 -535.919921875 -2.3203125 -541.139648438 -7.5400390625 c 128,-1,90
 -546.360351562 -12.759765625 -546.360351562 -12.759765625 -546.360351562 -17.400390625 c 256,91,69
 -546.360351562 -22.0400390625 -546.360351562 -22.0400390625 -525.48046875 -24.9404296875 c 128,-1,70
EndSplineSet
EndChar

StartChar: J
Encoding: 74 74 10
Width: 0
GlyphClass: 1
Flags: W
LayerCount: 2
Back
SplineSet
-23 -479 m 0,1,2
 7 -479 7 -479 25 -470 c 0,3,4
 37 -463 37 -463 45 -443.5 c 128,-1,5
 53 -424 53 -424 53 -403 c 0,6,7
 53 -391 53 -391 50 -380 c 0,8,9
 43 -359 43 -359 -1 -338 c 128,-1,10
 -45 -317 -45 -317 -113 -302 c 0,11,12
 -160 -293 -160 -293 -233.5 -289.5 c 128,-1,13
 -307 -286 -307 -286 -470 -286 c 0,14,15
 -715 -286 -715 -286 -852.5 -299.5 c 128,-1,16
 -990 -313 -990 -313 -990 -336 c 0,17,18
 -990 -344 -990 -344 -979 -347.5 c 128,-1,19
 -968 -351 -968 -351 -937 -351 c 0,20,21
 -928 -351 -928 -351 -874 -349 c 2,22,-1
 -838 -347 l 2,23,24
 -736 -341 -736 -341 -586 -341 c 0,25,26
 -424 -341 -424 -341 -283 -347.5 c 128,-1,27
 -142 -354 -142 -354 -112 -363 c 0,28,29
 -76 -374 -76 -374 -51.5 -390 c 128,-1,30
 -27 -406 -27 -406 -27 -416 c 0,31,32
 -27 -423 -27 -423 -42 -423 c 0,33,34
 -50 -423 -50 -423 -55 -422 c 0,35,36
 -73 -420 -73 -420 -83.5 -426 c 128,-1,37
 -94 -432 -94 -432 -94 -443 c 0,38,39
 -94 -456 -94 -456 -80 -466 c 0,40,0
 -63 -479 -63 -479 -23 -479 c 0,1,2
EndSplineSet
Fore
SplineSet
19.7197265625 -323.639648438 m 0,1,2
 54.51953125 -323.639648438 54.51953125 -323.639648438 75.400390625 -313.200195312 c 0,3,4
 89.3203125 -305.080078125 89.3203125 -305.080078125 98.599609375 -282.459960938 c 128,-1,5
 107.879882812 -259.83984375 107.879882812 -259.83984375 107.879882812 -235.48046875 c 0,6,7
 107.879882812 -221.559570312 107.879882812 -221.559570312 104.400390625 -208.799804688 c 0,8,9
 96.2802734375 -184.440429688 96.2802734375 -184.440429688 45.240234375 -160.080078125 c 128,-1,10
 -5.7998046875 -135.719726562 -5.7998046875 -135.719726562 -84.6796875 -118.3203125 c 0,11,12
 -139.200195312 -107.879882812 -139.200195312 -107.879882812 -224.459960938 -103.8203125 c 128,-1,13
 -309.719726562 -99.759765625 -309.719726562 -99.759765625 -498.799804688 -99.759765625 c 0,14,15
 -783 -99.759765625 -783 -99.759765625 -942.5 -115.419921875 c 128,-1,16
 -1102 -131.080078125 -1102 -131.080078125 -1102 -157.759765625 c 0,17,18
 -1102 -167.040039062 -1102 -167.040039062 -1089.24023438 -171.099609375 c 128,-1,19
 -1076.48046875 -175.16015625 -1076.48046875 -175.16015625 -1040.51953125 -175.16015625 c 0,20,21
 -1030.08007812 -175.16015625 -1030.08007812 -175.16015625 -967.440429688 -172.83984375 c 2,22,-1
 -925.6796875 -170.51953125 l 2,23,24
 -807.360351562 -163.559570312 -807.360351562 -163.559570312 -633.360351562 -163.559570312 c 0,25,26
 -445.440429688 -163.559570312 -445.440429688 -163.559570312 -281.879882812 -171.099609375 c 128,-1,27
 -118.3203125 -178.639648438 -118.3203125 -178.639648438 -83.51953125 -189.080078125 c 0,28,29
 -41.759765625 -201.83984375 -41.759765625 -201.83984375 -13.33984375 -220.400390625 c 128,-1,30
 15.080078125 -238.959960938 15.080078125 -238.959960938 15.080078125 -250.559570312 c 0,31,32
 15.080078125 -258.6796875 15.080078125 -258.6796875 -2.3203125 -258.6796875 c 0,33,34
 -11.599609375 -258.6796875 -11.599609375 -258.6796875 -17.400390625 -257.51953125 c 0,35,36
 -38.2802734375 -255.200195312 -38.2802734375 -255.200195312 -50.4599609375 -262.16015625 c 128,-1,37
 -62.6396484375 -269.120117188 -62.6396484375 -269.120117188 -62.6396484375 -281.879882812 c 0,38,39
 -62.6396484375 -296.959960938 -62.6396484375 -296.959960938 -46.400390625 -308.559570312 c 0,40,0
 -26.6796875 -323.639648438 -26.6796875 -323.639648438 19.7197265625 -323.639648438 c 0,1,2
EndSplineSet
EndChar

StartChar: N
Encoding: 78 78 14
Width: 0
GlyphClass: 1
Flags: W
LayerCount: 2
Back
SplineSet
-647 -547 m 256,1,2
 -619 -547 -619 -547 -569 -545 c 0,3,4
 -499 -541 -499 -541 -440.5 -523.5 c 128,-1,5
 -382 -506 -382 -506 -316 -469 c 128,-1,6
 -250 -432 -250 -432 -157 -365 c 0,7,8
 -90 -316 -90 -316 -8 -264 c 0,9,10
 24 -244 24 -244 40 -227 c 128,-1,11
 56 -210 56 -210 48 -203 c 0,12,13
 43 -198 43 -198 -1 -198 c 0,14,15
 -32 -198 -32 -198 -68 -201 c 128,-1,16
 -104 -204 -104 -204 -125 -208 c 0,17,18
 -171 -218 -171 -218 -196 -227 c 128,-1,19
 -221 -236 -221 -236 -235 -251 c 0,20,21
 -255 -271 -255 -271 -307 -311.5 c 128,-1,22
 -359 -352 -359 -352 -396 -375 c 0,23,24
 -495 -437 -495 -437 -574 -464 c 0,25,26
 -631 -483 -631 -483 -696 -483 c 0,27,28
 -794 -483 -794 -483 -915 -440 c 0,29,30
 -925 -437 -925 -437 -951.5 -427.5 c 128,-1,31
 -978 -418 -978 -418 -986 -418 c 0,32,33
 -995 -418 -995 -418 -999 -425 c 0,34,35
 -1002 -430 -1002 -430 -1002 -434 c 0,36,37
 -1002 -451 -1002 -451 -944 -476 c 0,38,39
 -822 -532 -822 -532 -683 -546 c 0,40,0
 -675 -547 -675 -547 -647 -547 c 256,1,2
EndSplineSet
Fore
SplineSet
-704.120117188 -402.51953125 m 256,1,2
 -671.639648438 -402.51953125 -671.639648438 -402.51953125 -613.639648438 -400.200195312 c 0,3,4
 -532.440429688 -395.559570312 -532.440429688 -395.559570312 -464.580078125 -375.259765625 c 128,-1,5
 -396.719726562 -354.959960938 -396.719726562 -354.959960938 -320.16015625 -312.040039062 c 128,-1,6
 -243.599609375 -269.120117188 -243.599609375 -269.120117188 -135.719726562 -191.400390625 c 0,7,8
 -58 -134.559570312 -58 -134.559570312 37.1201171875 -74.240234375 c 0,9,10
 74.240234375 -51.0400390625 74.240234375 -51.0400390625 92.7998046875 -31.3203125 c 128,-1,11
 111.360351562 -11.599609375 111.360351562 -11.599609375 102.080078125 -3.48046875 c 0,12,13
 96.2802734375 2.3203125 96.2802734375 2.3203125 45.240234375 2.3203125 c 0,14,15
 9.2802734375 2.3203125 9.2802734375 2.3203125 -32.48046875 -1.16015625 c 128,-1,16
 -74.240234375 -4.6396484375 -74.240234375 -4.6396484375 -98.599609375 -9.2802734375 c 0,17,18
 -151.959960938 -20.8798828125 -151.959960938 -20.8798828125 -180.959960938 -31.3203125 c 128,-1,19
 -209.959960938 -41.759765625 -209.959960938 -41.759765625 -226.200195312 -59.16015625 c 0,20,21
 -249.400390625 -82.3603515625 -249.400390625 -82.3603515625 -309.719726562 -129.33984375 c 128,-1,22
 -370.040039062 -176.3203125 -370.040039062 -176.3203125 -412.959960938 -203 c 0,23,24
 -527.799804688 -274.919921875 -527.799804688 -274.919921875 -619.440429688 -306.240234375 c 0,25,26
 -685.559570312 -328.280273438 -685.559570312 -328.280273438 -760.959960938 -328.280273438 c 0,27,28
 -874.639648438 -328.280273438 -874.639648438 -328.280273438 -1015 -278.400390625 c 0,29,30
 -1026.59960938 -274.919921875 -1026.59960938 -274.919921875 -1057.33984375 -263.900390625 c 128,-1,31
 -1088.08007812 -252.879882812 -1088.08007812 -252.879882812 -1097.36035156 -252.879882812 c 0,32,33
 -1107.79980469 -252.879882812 -1107.79980469 -252.879882812 -1112.44042969 -261 c 0,34,35
 -1115.91992188 -266.799804688 -1115.91992188 -266.799804688 -1115.91992188 -271.440429688 c 0,36,37
 -1115.91992188 -291.16015625 -1115.91992188 -291.16015625 -1048.63964844 -320.16015625 c 0,38,39
 -907.120117188 -385.120117188 -907.120117188 -385.120117188 -745.879882812 -401.360351562 c 0,40,0
 -736.599609375 -402.51953125 -736.599609375 -402.51953125 -704.120117188 -402.51953125 c 256,1,2
EndSplineSet
EndChar

StartChar: S
Encoding: 83 83 19
Width: 0
GlyphClass: 1
Flags: W
LayerCount: 2
Back
SplineSet
-408 -291 m 0,1,2
 -363 -291 -363 -291 -347 -288 c 128,-1,3
 -331 -285 -331 -285 -320 -274 c 0,4,5
 -304 -258 -304 -258 -304 -231 c 0,6,7
 -304 -218 -304 -218 -309 -201 c 0,8,9
 -316 -182 -316 -182 -346 -172 c 128,-1,10
 -376 -162 -376 -162 -425 -162 c 0,11,12
 -494 -162 -494 -162 -494 -183 c 0,13,14
 -494 -194 -494 -194 -474 -211 c 0,15,16
 -460 -222 -460 -222 -460 -230 c 0,17,18
 -460 -236 -460 -236 -474 -236 c 0,19,20
 -493 -236 -493 -236 -532 -225 c 128,-1,21
 -571 -214 -571 -214 -620 -194 c 0,22,23
 -640 -185 -640 -185 -657 -179 c 128,-1,24
 -674 -173 -674 -173 -681 -173 c 0,25,26
 -692 -173 -692 -173 -692 -184 c 0,27,28
 -692 -191 -692 -191 -689 -201 c 0,29,30
 -682 -229 -682 -229 -638 -251 c 128,-1,31
 -594 -273 -594 -273 -519 -283 c 0,32,0
 -460 -291 -460 -291 -408 -291 c 0,1,2
EndSplineSet
Fore
SplineSet
-426.879882812 -105.559570312 m 0,1,2
 -374.6796875 -105.559570312 -374.6796875 -105.559570312 -356.120117188 -102.080078125 c 128,-1,3
 -337.559570312 -98.599609375 -337.559570312 -98.599609375 -324.799804688 -85.83984375 c 0,4,5
 -306.240234375 -67.2802734375 -306.240234375 -67.2802734375 -306.240234375 -35.9599609375 c 0,6,7
 -306.240234375 -20.8798828125 -306.240234375 -20.8798828125 -312.040039062 -1.16015625 c 0,8,9
 -320.16015625 20.8798828125 -320.16015625 20.8798828125 -354.959960938 32.48046875 c 128,-1,10
 -389.759765625 44.080078125 -389.759765625 44.080078125 -446.599609375 44.080078125 c 0,11,12
 -526.639648438 44.080078125 -526.639648438 44.080078125 -526.639648438 19.7197265625 c 0,13,14
 -526.639648438 6.9599609375 -526.639648438 6.9599609375 -503.440429688 -12.759765625 c 0,15,16
 -487.200195312 -25.51953125 -487.200195312 -25.51953125 -487.200195312 -34.7998046875 c 0,17,18
 -487.200195312 -41.759765625 -487.200195312 -41.759765625 -503.440429688 -41.759765625 c 0,19,20
 -525.48046875 -41.759765625 -525.48046875 -41.759765625 -570.719726562 -29 c 128,-1,21
 -615.959960938 -16.240234375 -615.959960938 -16.240234375 -672.799804688 6.9599609375 c 0,22,23
 -696 17.400390625 -696 17.400390625 -715.719726562 24.3603515625 c 128,-1,24
 -735.440429688 31.3203125 -735.440429688 31.3203125 -743.559570312 31.3203125 c 0,25,26
 -756.3203125 31.3203125 -756.3203125 31.3203125 -756.3203125 18.5595703125 c 0,27,28
 -756.3203125 10.4404296875 -756.3203125 10.4404296875 -752.83984375 -1.16015625 c 0,29,30
 -744.719726562 -33.6396484375 -744.719726562 -33.6396484375 -693.6796875 -59.16015625 c 128,-1,31
 -642.639648438 -84.6796875 -642.639648438 -84.6796875 -555.639648438 -96.2802734375 c 0,32,0
 -487.200195312 -105.559570312 -487.200195312 -105.559570312 -426.879882812 -105.559570312 c 0,1,2
EndSplineSet
EndChar

StartChar: V
Encoding: 86 86 22
Width: 1654
GlyphClass: 1
Flags: W
LayerCount: 2
Back
SplineSet
270 196 m 0,1,2
 314 196 314 196 349 207 c 0,3,4
 407 226 407 226 407 255 c 0,5,6
 407 273 407 273 388 292 c 0,7,8
 369 312 369 312 311 333.5 c 128,-1,9
 253 355 253 355 185.5 369 c 128,-1,10
 118 383 118 383 75 383 c 0,11,12
 36 383 36 383 32 371 c 0,13,14
 29 364 29 364 29 357 c 0,15,16
 29 344 29 344 47.5 338 c 128,-1,17
 66 332 66 332 115 329 c 0,18,19
 178 325 178 325 211 316.5 c 128,-1,20
 244 308 244 308 258 292 c 0,21,22
 271 278 271 278 271 266 c 0,23,24
 271 249 271 249 240 243 c 0,25,26
 224 240 224 240 215 233.5 c 128,-1,27
 206 227 206 227 206 219 c 0,28,29
 206 210 206 210 220 203 c 0,30,0
 235 196 235 196 270 196 c 0,1,2
623 182 m 0,32,33
 632 182 632 182 636 184.5 c 128,-1,34
 640 187 640 187 642 193 c 0,35,36
 646 204 646 204 638.5 210.5 c 128,-1,37
 631 217 631 217 607 221 c 0,38,39
 578 226 578 226 560 242 c 128,-1,40
 542 258 542 258 542 277 c 0,41,42
 542 313 542 313 585.5 330.5 c 128,-1,43
 629 348 629 348 722 348 c 0,44,45
 819 348 819 348 878.5 330.5 c 128,-1,46
 938 313 938 313 972 274 c 0,47,48
 987 258 987 258 987 247 c 0,49,50
 987 238 987 238 976 232.5 c 128,-1,51
 965 227 965 227 937 221 c 0,52,53
 926 219 926 219 919 216 c 128,-1,54
 912 213 912 213 912 209 c 0,55,56
 912 198 912 198 951.5 190 c 128,-1,57
 991 182 991 182 1034 182 c 0,58,59
 1073 182 1073 182 1091 189 c 256,60,61
 1109 196 1109 196 1113 202 c 128,-1,62
 1117 208 1117 208 1119 230 c 0,63,64
 1122 283 1122 283 1066 317 c 128,-1,65
 1010 351 1010 351 885 371 c 0,66,67
 777 388 777 388 711 388 c 0,68,69
 651 388 651 388 592 376 c 0,70,71
 503 358 503 358 464 336 c 128,-1,72
 425 314 425 314 425 281 c 0,73,74
 425 277 425 277 427 267 c 0,75,76
 432 242 432 242 471 221.5 c 128,-1,77
 510 201 510 201 575 188 c 0,78,31
 611 182 611 182 623 182 c 0,32,33
1327 175 m 0,80,81
 1351 175 1351 175 1358 178 c 0,82,83
 1368 182 1368 182 1368 190 c 256,84,85
 1368 198 1368 198 1357 203 c 0,86,87
 1347 206 1347 206 1340 220.5 c 128,-1,88
 1333 235 1333 235 1318 284 c 0,89,90
 1308 317 1308 317 1299 333 c 128,-1,91
 1290 349 1290 349 1277 356.5 c 128,-1,92
 1264 364 1264 364 1239 367 c 0,93,94
 1221 370 1221 370 1205 370 c 0,95,96
 1186 370 1186 370 1173.5 366.5 c 128,-1,97
 1161 363 1161 363 1158 357 c 2,98,-1
 1158 355 l 2,99,100
 1158 348 1158 348 1171 343 c 0,101,102
 1183 339 1183 339 1190 325 c 128,-1,103
 1197 311 1197 311 1213 259 c 0,104,105
 1224 224 1224 224 1237 206 c 128,-1,106
 1250 188 1250 188 1271 181 c 0,107,79
 1292 175 1292 175 1327 175 c 0,80,81
1507 175 m 0,109,110
 1531 175 1531 175 1538 178 c 0,111,112
 1548 182 1548 182 1548 190 c 256,113,114
 1548 198 1548 198 1537 203 c 0,115,116
 1527 206 1527 206 1520.5 220 c 128,-1,117
 1514 234 1514 234 1498 284 c 0,118,119
 1488 317 1488 317 1479 333 c 128,-1,120
 1470 349 1470 349 1457 356 c 128,-1,121
 1444 363 1444 363 1419 367 c 0,122,123
 1401 370 1401 370 1385 370 c 0,124,125
 1366 370 1366 370 1353.5 366.5 c 128,-1,126
 1341 363 1341 363 1338 357 c 2,127,-1
 1338 355 l 2,128,129
 1338 348 1338 348 1351 343 c 0,130,131
 1363 339 1363 339 1370 325 c 128,-1,132
 1377 311 1377 311 1393 259 c 0,133,134
 1404 224 1404 224 1417 206 c 128,-1,135
 1430 188 1430 188 1451 181 c 0,136,108
 1472 175 1472 175 1507 175 c 0,109,110
1613 -52 m 0,138,139
 1619 -52 1619 -52 1622 -46.5 c 128,-1,140
 1625 -41 1625 -41 1625 -32 c 0,141,142
 1625 -9 1625 -9 1610 3 c 0,143,144
 1510 88 1510 88 1380 107 c 0,145,146
 1356 110 1356 110 1255 110 c 0,147,148
 1140 110 1140 110 1009 107 c 0,149,150
 879 104 879 104 770 104 c 0,151,152
 658 104 658 104 625 108 c 0,153,154
 489 125 489 125 456 145 c 0,155,156
 452 148 452 148 446 148 c 0,157,158
 437 148 437 148 432.5 139.5 c 128,-1,159
 428 131 428 131 430 118 c 0,160,161
 437 80 437 80 487 51 c 128,-1,162
 537 22 537 22 622 7 c 0,163,164
 717 -9 717 -9 825 -9 c 2,165,-1
 862 -9 l 2,166,167
 982 -6 982 -6 1249 -6 c 0,168,169
 1370 -6 1370 -6 1386 -7 c 0,170,171
 1488 -14 1488 -14 1544 -28 c 0,172,173
 1562 -32 1562 -32 1581 -38.5 c 128,-1,174
 1600 -45 1600 -45 1605 -49 c 0,175,137
 1610 -52 1610 -52 1613 -52 c 0,138,139
EndSplineSet
Fore
SplineSet
359.599609375 459.360351562 m 0,1,2
 410.639648438 459.360351562 410.639648438 459.360351562 451.240234375 472.120117188 c 0,3,4
 518.51953125 494.16015625 518.51953125 494.16015625 518.51953125 527.799804688 c 0,5,6
 518.51953125 548.6796875 518.51953125 548.6796875 496.48046875 570.719726562 c 0,7,8
 474.440429688 593.919921875 474.440429688 593.919921875 407.16015625 618.860351562 c 128,-1,9
 339.879882812 643.799804688 339.879882812 643.799804688 261.580078125 660.040039062 c 128,-1,10
 183.280273438 676.280273438 183.280273438 676.280273438 133.400390625 676.280273438 c 0,11,12
 88.16015625 676.280273438 88.16015625 676.280273438 83.51953125 662.360351562 c 0,13,14
 80.0400390625 654.240234375 80.0400390625 654.240234375 80.0400390625 646.120117188 c 0,15,16
 80.0400390625 631.040039062 80.0400390625 631.040039062 101.5 624.080078125 c 128,-1,17
 122.959960938 617.120117188 122.959960938 617.120117188 179.799804688 613.639648438 c 0,18,19
 252.879882812 609 252.879882812 609 291.16015625 599.139648438 c 128,-1,20
 329.440429688 589.280273438 329.440429688 589.280273438 345.6796875 570.719726562 c 0,21,22
 360.759765625 554.48046875 360.759765625 554.48046875 360.759765625 540.559570312 c 0,23,24
 360.759765625 520.83984375 360.759765625 520.83984375 324.799804688 513.879882812 c 0,25,26
 306.240234375 510.400390625 306.240234375 510.400390625 295.799804688 502.860351562 c 128,-1,27
 285.360351562 495.3203125 285.360351562 495.3203125 285.360351562 486.040039062 c 0,28,29
 285.360351562 475.599609375 285.360351562 475.599609375 301.599609375 467.48046875 c 0,30,0
 319 459.360351562 319 459.360351562 359.599609375 459.360351562 c 0,1,2
769.080078125 443.120117188 m 0,32,33
 779.51953125 443.120117188 779.51953125 443.120117188 784.16015625 446.01953125 c 128,-1,34
 788.799804688 448.919921875 788.799804688 448.919921875 791.120117188 455.879882812 c 0,35,36
 795.759765625 468.639648438 795.759765625 468.639648438 787.059570312 476.1796875 c 128,-1,37
 778.360351562 483.719726562 778.360351562 483.719726562 750.51953125 488.360351562 c 0,38,39
 716.879882812 494.16015625 716.879882812 494.16015625 696 512.719726562 c 128,-1,40
 675.120117188 531.280273438 675.120117188 531.280273438 675.120117188 553.3203125 c 0,41,42
 675.120117188 595.080078125 675.120117188 595.080078125 725.580078125 615.379882812 c 128,-1,43
 776.040039062 635.6796875 776.040039062 635.6796875 883.919921875 635.6796875 c 0,44,45
 996.440429688 635.6796875 996.440429688 635.6796875 1065.45996094 615.379882812 c 128,-1,46
 1134.48046875 595.080078125 1134.48046875 595.080078125 1173.91992188 549.83984375 c 0,47,48
 1191.3203125 531.280273438 1191.3203125 531.280273438 1191.3203125 518.51953125 c 0,49,50
 1191.3203125 508.080078125 1191.3203125 508.080078125 1178.55957031 501.700195312 c 128,-1,51
 1165.79980469 495.3203125 1165.79980469 495.3203125 1133.3203125 488.360351562 c 0,52,53
 1120.55957031 486.040039062 1120.55957031 486.040039062 1112.44042969 482.559570312 c 128,-1,54
 1104.3203125 479.080078125 1104.3203125 479.080078125 1104.3203125 474.440429688 c 0,55,56
 1104.3203125 461.6796875 1104.3203125 461.6796875 1150.13964844 452.400390625 c 128,-1,57
 1195.95996094 443.120117188 1195.95996094 443.120117188 1245.83984375 443.120117188 c 0,58,59
 1291.08007812 443.120117188 1291.08007812 443.120117188 1311.95996094 451.240234375 c 256,60,61
 1332.83984375 459.360351562 1332.83984375 459.360351562 1337.48046875 466.3203125 c 128,-1,62
 1342.12011719 473.280273438 1342.12011719 473.280273438 1344.44042969 498.799804688 c 0,63,64
 1347.91992188 560.280273438 1347.91992188 560.280273438 1282.95996094 599.719726562 c 128,-1,65
 1218 639.16015625 1218 639.16015625 1073 662.360351562 c 0,66,67
 947.719726562 682.080078125 947.719726562 682.080078125 871.16015625 682.080078125 c 0,68,69
 801.559570312 682.080078125 801.559570312 682.080078125 733.120117188 668.16015625 c 0,70,71
 629.879882812 647.280273438 629.879882812 647.280273438 584.639648438 621.759765625 c 128,-1,72
 539.400390625 596.240234375 539.400390625 596.240234375 539.400390625 557.959960938 c 0,73,74
 539.400390625 553.3203125 539.400390625 553.3203125 541.719726562 541.719726562 c 0,75,76
 547.51953125 512.719726562 547.51953125 512.719726562 592.759765625 488.940429688 c 128,-1,77
 638 465.16015625 638 465.16015625 713.400390625 450.080078125 c 0,78,31
 755.16015625 443.120117188 755.16015625 443.120117188 769.080078125 443.120117188 c 0,32,33
1585.71972656 435 m 0,80,81
 1613.55957031 435 1613.55957031 435 1621.6796875 438.48046875 c 0,82,83
 1633.28027344 443.120117188 1633.28027344 443.120117188 1633.28027344 452.400390625 c 256,84,85
 1633.28027344 461.6796875 1633.28027344 461.6796875 1620.51953125 467.48046875 c 0,86,87
 1608.91992188 470.959960938 1608.91992188 470.959960938 1600.79980469 487.780273438 c 128,-1,88
 1592.6796875 504.599609375 1592.6796875 504.599609375 1575.28027344 561.440429688 c 0,89,90
 1563.6796875 599.719726562 1563.6796875 599.719726562 1553.24023438 618.280273438 c 128,-1,91
 1542.79980469 636.83984375 1542.79980469 636.83984375 1527.71972656 645.540039062 c 128,-1,92
 1512.63964844 654.240234375 1512.63964844 654.240234375 1483.63964844 657.719726562 c 0,93,94
 1462.75976562 661.200195312 1462.75976562 661.200195312 1444.20019531 661.200195312 c 0,95,96
 1422.16015625 661.200195312 1422.16015625 661.200195312 1407.66015625 657.139648438 c 128,-1,97
 1393.16015625 653.080078125 1393.16015625 653.080078125 1389.6796875 646.120117188 c 2,98,-1
 1389.6796875 643.799804688 l 2,99,100
 1389.6796875 635.6796875 1389.6796875 635.6796875 1404.75976562 629.879882812 c 0,101,102
 1418.6796875 625.240234375 1418.6796875 625.240234375 1426.79980469 609 c 128,-1,103
 1434.91992188 592.759765625 1434.91992188 592.759765625 1453.48046875 532.440429688 c 0,104,105
 1466.24023438 491.83984375 1466.24023438 491.83984375 1481.3203125 470.959960938 c 128,-1,106
 1496.40039062 450.080078125 1496.40039062 450.080078125 1520.75976562 441.959960938 c 0,107,79
 1545.12011719 435 1545.12011719 435 1585.71972656 435 c 0,80,81
1794.51953125 435 m 0,109,110
 1822.36035156 435 1822.36035156 435 1830.48046875 438.48046875 c 0,111,112
 1842.08007812 443.120117188 1842.08007812 443.120117188 1842.08007812 452.400390625 c 256,113,114
 1842.08007812 461.6796875 1842.08007812 461.6796875 1829.3203125 467.48046875 c 0,115,116
 1817.71972656 470.959960938 1817.71972656 470.959960938 1810.1796875 487.200195312 c 128,-1,117
 1802.63964844 503.440429688 1802.63964844 503.440429688 1784.08007812 561.440429688 c 0,118,119
 1772.48046875 599.719726562 1772.48046875 599.719726562 1762.04003906 618.280273438 c 128,-1,120
 1751.59960938 636.83984375 1751.59960938 636.83984375 1736.51953125 644.959960938 c 128,-1,121
 1721.44042969 653.080078125 1721.44042969 653.080078125 1692.44042969 657.719726562 c 0,122,123
 1671.55957031 661.200195312 1671.55957031 661.200195312 1653 661.200195312 c 0,124,125
 1630.95996094 661.200195312 1630.95996094 661.200195312 1616.45996094 657.139648438 c 128,-1,126
 1601.95996094 653.080078125 1601.95996094 653.080078125 1598.48046875 646.120117188 c 2,127,-1
 1598.48046875 643.799804688 l 2,128,129
 1598.48046875 635.6796875 1598.48046875 635.6796875 1613.55957031 629.879882812 c 0,130,131
 1627.48046875 625.240234375 1627.48046875 625.240234375 1635.59960938 609 c 128,-1,132
 1643.71972656 592.759765625 1643.71972656 592.759765625 1662.28027344 532.440429688 c 0,133,134
 1675.04003906 491.83984375 1675.04003906 491.83984375 1690.12011719 470.959960938 c 128,-1,135
 1705.20019531 450.080078125 1705.20019531 450.080078125 1729.55957031 441.959960938 c 0,136,108
 1753.91992188 435 1753.91992188 435 1794.51953125 435 c 0,109,110
1917.48046875 171.6796875 m 0,138,139
 1924.44042969 171.6796875 1924.44042969 171.6796875 1927.91992188 178.059570312 c 128,-1,140
 1931.40039062 184.440429688 1931.40039062 184.440429688 1931.40039062 194.879882812 c 0,141,142
 1931.40039062 221.559570312 1931.40039062 221.559570312 1914 235.48046875 c 0,143,144
 1798 334.080078125 1798 334.080078125 1647.20019531 356.120117188 c 0,145,146
 1619.36035156 359.599609375 1619.36035156 359.599609375 1502.20019531 359.599609375 c 0,147,148
 1368.79980469 359.599609375 1368.79980469 359.599609375 1216.83984375 356.120117188 c 0,149,150
 1066.04003906 352.639648438 1066.04003906 352.639648438 939.599609375 352.639648438 c 0,151,152
 809.6796875 352.639648438 809.6796875 352.639648438 771.400390625 357.280273438 c 0,153,154
 613.639648438 377 613.639648438 377 575.360351562 400.200195312 c 0,155,156
 570.719726562 403.6796875 570.719726562 403.6796875 563.759765625 403.6796875 c 0,157,158
 553.3203125 403.6796875 553.3203125 403.6796875 548.099609375 393.8203125 c 128,-1,159
 542.879882812 383.959960938 542.879882812 383.959960938 545.200195312 368.879882812 c 0,160,161
 553.3203125 324.799804688 553.3203125 324.799804688 611.3203125 291.16015625 c 128,-1,162
 669.3203125 257.51953125 669.3203125 257.51953125 767.919921875 240.120117188 c 0,163,164
 878.120117188 221.559570312 878.120117188 221.559570312 1003.40039062 221.559570312 c 2,165,-1
 1046.3203125 221.559570312 l 2,166,167
 1185.51953125 225.040039062 1185.51953125 225.040039062 1495.24023438 225.040039062 c 0,168,169
 1635.59960938 225.040039062 1635.59960938 225.040039062 1654.16015625 223.879882812 c 0,170,171
 1772.48046875 215.759765625 1772.48046875 215.759765625 1837.44042969 199.51953125 c 0,172,173
 1858.3203125 194.879882812 1858.3203125 194.879882812 1880.36035156 187.33984375 c 128,-1,174
 1902.40039062 179.799804688 1902.40039062 179.799804688 1908.20019531 175.16015625 c 0,175,137
 1914 171.6796875 1914 171.6796875 1917.48046875 171.6796875 c 0,138,139
EndSplineSet
EndChar

StartChar: X
Encoding: 88 88 24
Width: 1256
GlyphClass: 1
Flags: W
LayerCount: 2
Back
SplineSet
400 186 m 0,1,2
 471 186 471 186 522 201 c 0,3,4
 611 228 611 228 611 266 c 0,5,6
 611 287 611 287 582 314 c 256,7,8
 553 341 553 341 463.5 369.5 c 128,-1,9
 374 398 374 398 270 417 c 128,-1,10
 166 436 166 436 100 436 c 0,11,12
 41 436 41 436 34 419 c 0,13,14
 30 410 30 410 30 401 c 0,15,16
 30 383 30 383 58.5 375.5 c 128,-1,17
 87 368 87 368 162 364 c 0,18,19
 259 359 259 359 309.5 347.5 c 128,-1,20
 360 336 360 336 382 314 c 0,21,22
 402 294 402 294 402 279 c 0,23,24
 402 257 402 257 354 249 c 0,25,26
 329 245 329 245 315 236 c 128,-1,27
 301 227 301 227 301 217 c 0,28,29
 301 205 301 205 323 196 c 0,30,0
 346 186 346 186 400 186 c 0,1,2
908 182 m 0,32,33
 935 182 935 182 943 186 c 0,34,35
 954 190 954 190 954 199 c 0,36,37
 954 209 954 209 942 213 c 0,38,39
 931 217 931 217 923 233 c 128,-1,40
 915 249 915 249 899 303 c 0,41,42
 888 340 888 340 878 358 c 128,-1,43
 868 376 868 376 853 384 c 128,-1,44
 838 392 838 392 811 396 c 0,45,46
 791 399 791 399 774 399 c 0,47,48
 753 399 753 399 738.5 395 c 128,-1,49
 724 391 724 391 721 384 c 2,50,-1
 721 382 l 2,51,52
 721 379 721 379 725 375 c 128,-1,53
 729 371 729 371 736 369 c 0,54,55
 749 364 749 364 757 348 c 128,-1,56
 765 332 765 332 782 276 c 0,57,58
 794 236 794 236 808.5 216 c 128,-1,59
 823 196 823 196 847 189 c 0,60,31
 868 182 868 182 908 182 c 0,32,33
1108 182 m 0,62,63
 1135 182 1135 182 1143 186 c 0,64,65
 1154 190 1154 190 1154 199 c 0,66,67
 1154 209 1154 209 1142 213 c 0,68,69
 1131 217 1131 217 1123.5 232.5 c 128,-1,70
 1116 248 1116 248 1099 303 c 0,71,72
 1088 339 1088 339 1078 357 c 128,-1,73
 1068 375 1068 375 1053 383.5 c 128,-1,74
 1038 392 1038 392 1011 396 c 0,75,76
 992 399 992 399 974 399 c 0,77,78
 953 399 953 399 938.5 395 c 128,-1,79
 924 391 924 391 921 384 c 2,80,-1
 921 382 l 2,81,82
 921 379 921 379 925 375 c 128,-1,83
 929 371 929 371 936 369 c 0,84,85
 949 364 949 364 957 348 c 128,-1,86
 965 332 965 332 982 276 c 0,87,88
 994 236 994 236 1008.5 216 c 128,-1,89
 1023 196 1023 196 1047 189 c 0,90,61
 1068 182 1068 182 1108 182 c 0,62,63
1214 -52 m 0,92,93
 1220 -52 1220 -52 1223 -46.5 c 128,-1,94
 1226 -41 1226 -41 1226 -32 c 0,95,96
 1226 -9 1226 -9 1211 3 c 0,97,98
 1111 88 1111 88 981 107 c 0,99,100
 957 110 957 110 856 110 c 0,101,102
 740 110 740 110 610 107 c 0,103,104
 479 104 479 104 371 104 c 0,105,106
 259 104 259 104 226 108 c 0,107,108
 90 125 90 125 57 145 c 0,109,110
 53 148 53 148 47 148 c 0,111,112
 38 148 38 148 33.5 139.5 c 128,-1,113
 29 131 29 131 31 118 c 0,114,115
 38 80 38 80 88 51 c 128,-1,116
 138 22 138 22 223 7 c 0,117,118
 318 -9 318 -9 426 -9 c 2,119,-1
 463 -9 l 2,120,121
 583 -6 583 -6 850 -6 c 0,122,123
 971 -6 971 -6 987 -7 c 0,124,125
 1089 -14 1089 -14 1145 -28 c 0,126,127
 1163 -32 1163 -32 1182 -38.5 c 128,-1,128
 1201 -45 1201 -45 1206 -49 c 0,129,91
 1211 -52 1211 -52 1214 -52 c 0,92,93
EndSplineSet
Fore
SplineSet
510.400390625 447.759765625 m 0,1,2
 592.759765625 447.759765625 592.759765625 447.759765625 651.919921875 465.16015625 c 0,3,4
 755.16015625 496.48046875 755.16015625 496.48046875 755.16015625 540.559570312 c 0,5,6
 755.16015625 564.919921875 755.16015625 564.919921875 721.51953125 596.240234375 c 256,7,8
 687.879882812 627.559570312 687.879882812 627.559570312 584.059570312 660.620117188 c 128,-1,9
 480.240234375 693.6796875 480.240234375 693.6796875 359.599609375 715.719726562 c 128,-1,10
 238.959960938 737.759765625 238.959960938 737.759765625 162.400390625 737.759765625 c 0,11,12
 93.9599609375 737.759765625 93.9599609375 737.759765625 85.83984375 718.040039062 c 0,13,14
 81.2001953125 707.599609375 81.2001953125 707.599609375 81.2001953125 697.16015625 c 0,15,16
 81.2001953125 676.280273438 81.2001953125 676.280273438 114.259765625 667.580078125 c 128,-1,17
 147.3203125 658.879882812 147.3203125 658.879882812 234.3203125 654.240234375 c 0,18,19
 346.83984375 648.440429688 346.83984375 648.440429688 405.419921875 635.099609375 c 128,-1,20
 464 621.759765625 464 621.759765625 489.51953125 596.240234375 c 0,21,22
 512.719726562 573.040039062 512.719726562 573.040039062 512.719726562 555.639648438 c 0,23,24
 512.719726562 530.120117188 512.719726562 530.120117188 457.040039062 520.83984375 c 0,25,26
 428.040039062 516.200195312 428.040039062 516.200195312 411.799804688 505.759765625 c 128,-1,27
 395.559570312 495.3203125 395.559570312 495.3203125 395.559570312 483.719726562 c 0,28,29
 395.559570312 469.799804688 395.559570312 469.799804688 421.080078125 459.360351562 c 0,30,0
 447.759765625 447.759765625 447.759765625 447.759765625 510.400390625 447.759765625 c 0,1,2
1099.6796875 443.120117188 m 0,32,33
 1131 443.120117188 1131 443.120117188 1140.28027344 447.759765625 c 0,34,35
 1153.04003906 452.400390625 1153.04003906 452.400390625 1153.04003906 462.83984375 c 0,36,37
 1153.04003906 474.440429688 1153.04003906 474.440429688 1139.12011719 479.080078125 c 0,38,39
 1126.36035156 483.719726562 1126.36035156 483.719726562 1117.08007812 502.280273438 c 128,-1,40
 1107.79980469 520.83984375 1107.79980469 520.83984375 1089.24023438 583.48046875 c 0,41,42
 1076.48046875 626.400390625 1076.48046875 626.400390625 1064.87988281 647.280273438 c 128,-1,43
 1053.28027344 668.16015625 1053.28027344 668.16015625 1035.87988281 677.440429688 c 128,-1,44
 1018.48046875 686.719726562 1018.48046875 686.719726562 987.16015625 691.360351562 c 0,45,46
 963.959960938 694.83984375 963.959960938 694.83984375 944.240234375 694.83984375 c 0,47,48
 919.879882812 694.83984375 919.879882812 694.83984375 903.059570312 690.200195312 c 128,-1,49
 886.240234375 685.559570312 886.240234375 685.559570312 882.759765625 677.440429688 c 2,50,-1
 882.759765625 675.120117188 l 2,51,52
 882.759765625 671.639648438 882.759765625 671.639648438 887.400390625 667 c 128,-1,53
 892.040039062 662.360351562 892.040039062 662.360351562 900.16015625 660.040039062 c 0,54,55
 915.240234375 654.240234375 915.240234375 654.240234375 924.51953125 635.6796875 c 128,-1,56
 933.799804688 617.120117188 933.799804688 617.120117188 953.51953125 552.16015625 c 0,57,58
 967.440429688 505.759765625 967.440429688 505.759765625 984.259765625 482.559570312 c 128,-1,59
 1001.08007812 459.360351562 1001.08007812 459.360351562 1028.91992188 451.240234375 c 0,60,31
 1053.28027344 443.120117188 1053.28027344 443.120117188 1099.6796875 443.120117188 c 0,32,33
1331.6796875 443.120117188 m 0,62,63
 1363 443.120117188 1363 443.120117188 1372.28027344 447.759765625 c 0,64,65
 1385.04003906 452.400390625 1385.04003906 452.400390625 1385.04003906 462.83984375 c 0,66,67
 1385.04003906 474.440429688 1385.04003906 474.440429688 1371.12011719 479.080078125 c 0,68,69
 1358.36035156 483.719726562 1358.36035156 483.719726562 1349.66015625 501.700195312 c 128,-1,70
 1340.95996094 519.6796875 1340.95996094 519.6796875 1321.24023438 583.48046875 c 0,71,72
 1308.48046875 625.240234375 1308.48046875 625.240234375 1296.87988281 646.120117188 c 128,-1,73
 1285.28027344 667 1285.28027344 667 1267.87988281 676.860351562 c 128,-1,74
 1250.48046875 686.719726562 1250.48046875 686.719726562 1219.16015625 691.360351562 c 0,75,76
 1197.12011719 694.83984375 1197.12011719 694.83984375 1176.24023438 694.83984375 c 0,77,78
 1151.87988281 694.83984375 1151.87988281 694.83984375 1135.05957031 690.200195312 c 128,-1,79
 1118.24023438 685.559570312 1118.24023438 685.559570312 1114.75976562 677.440429688 c 2,80,-1
 1114.75976562 675.120117188 l 2,81,82
 1114.75976562 671.639648438 1114.75976562 671.639648438 1119.40039062 667 c 128,-1,83
 1124.04003906 662.360351562 1124.04003906 662.360351562 1132.16015625 660.040039062 c 0,84,85
 1147.24023438 654.240234375 1147.24023438 654.240234375 1156.51953125 635.6796875 c 128,-1,86
 1165.79980469 617.120117188 1165.79980469 617.120117188 1185.51953125 552.16015625 c 0,87,88
 1199.44042969 505.759765625 1199.44042969 505.759765625 1216.25976562 482.559570312 c 128,-1,89
 1233.08007812 459.360351562 1233.08007812 459.360351562 1260.91992188 451.240234375 c 0,90,61
 1285.28027344 443.120117188 1285.28027344 443.120117188 1331.6796875 443.120117188 c 0,62,63
1454.63964844 171.6796875 m 0,92,93
 1461.59960938 171.6796875 1461.59960938 171.6796875 1465.08007812 178.059570312 c 128,-1,94
 1468.55957031 184.440429688 1468.55957031 184.440429688 1468.55957031 194.879882812 c 0,95,96
 1468.55957031 221.559570312 1468.55957031 221.559570312 1451.16015625 235.48046875 c 0,97,98
 1335.16015625 334.080078125 1335.16015625 334.080078125 1184.36035156 356.120117188 c 0,99,100
 1156.51953125 359.599609375 1156.51953125 359.599609375 1039.36035156 359.599609375 c 0,101,102
 904.799804688 359.599609375 904.799804688 359.599609375 754 356.120117188 c 0,103,104
 602.040039062 352.639648438 602.040039062 352.639648438 476.759765625 352.639648438 c 0,105,106
 346.83984375 352.639648438 346.83984375 352.639648438 308.559570312 357.280273438 c 0,107,108
 150.799804688 377 150.799804688 377 112.51953125 400.200195312 c 0,109,110
 107.879882812 403.6796875 107.879882812 403.6796875 100.919921875 403.6796875 c 0,111,112
 90.48046875 403.6796875 90.48046875 403.6796875 85.259765625 393.8203125 c 128,-1,113
 80.0400390625 383.959960938 80.0400390625 383.959960938 82.3603515625 368.879882812 c 0,114,115
 90.48046875 324.799804688 90.48046875 324.799804688 148.48046875 291.16015625 c 128,-1,116
 206.48046875 257.51953125 206.48046875 257.51953125 305.080078125 240.120117188 c 0,117,118
 415.280273438 221.559570312 415.280273438 221.559570312 540.559570312 221.559570312 c 2,119,-1
 583.48046875 221.559570312 l 2,120,121
 722.6796875 225.040039062 722.6796875 225.040039062 1032.40039062 225.040039062 c 0,122,123
 1172.75976562 225.040039062 1172.75976562 225.040039062 1191.3203125 223.879882812 c 0,124,125
 1309.63964844 215.759765625 1309.63964844 215.759765625 1374.59960938 199.51953125 c 0,126,127
 1395.48046875 194.879882812 1395.48046875 194.879882812 1417.51953125 187.33984375 c 128,-1,128
 1439.55957031 179.799804688 1439.55957031 179.799804688 1445.36035156 175.16015625 c 0,129,91
 1451.16015625 171.6796875 1451.16015625 171.6796875 1454.63964844 171.6796875 c 0,92,93
EndSplineSet
EndChar

StartChar: a
Encoding: 97 97 27
Width: 0
GlyphClass: 1
Flags: W
LayerCount: 2
Back
SplineSet
-508 199 m 0,1,2
 -463 199 -463 199 -447 202 c 128,-1,3
 -431 205 -431 205 -420 216 c 0,4,5
 -404 232 -404 232 -404 259 c 0,6,7
 -404 272 -404 272 -409 289 c 0,8,9
 -416 308 -416 308 -446 318 c 128,-1,10
 -476 328 -476 328 -525 328 c 0,11,12
 -594 328 -594 328 -594 307 c 0,13,14
 -594 296 -594 296 -574 279 c 0,15,16
 -560 268 -560 268 -560 260 c 0,17,18
 -560 254 -560 254 -574 254 c 0,19,20
 -593 254 -593 254 -632 265 c 128,-1,21
 -671 276 -671 276 -720 296 c 0,22,23
 -740 305 -740 305 -757 311 c 128,-1,24
 -774 317 -774 317 -781 317 c 0,25,26
 -792 317 -792 317 -792 306 c 0,27,28
 -792 300 -792 300 -789 289 c 0,29,30
 -782 261 -782 261 -738 239 c 128,-1,31
 -694 217 -694 217 -619 207 c 0,32,0
 -560 199 -560 199 -508 199 c 0,1,2
EndSplineSet
Fore
SplineSet
-542.879882812 462.83984375 m 0,1,2
 -490.6796875 462.83984375 -490.6796875 462.83984375 -472.120117188 466.3203125 c 128,-1,3
 -453.559570312 469.799804688 -453.559570312 469.799804688 -440.799804688 482.559570312 c 0,4,5
 -422.240234375 501.120117188 -422.240234375 501.120117188 -422.240234375 532.440429688 c 0,6,7
 -422.240234375 547.51953125 -422.240234375 547.51953125 -428.040039062 567.240234375 c 0,8,9
 -436.16015625 589.280273438 -436.16015625 589.280273438 -470.959960938 600.879882812 c 128,-1,10
 -505.759765625 612.48046875 -505.759765625 612.48046875 -562.599609375 612.48046875 c 0,11,12
 -642.639648438 612.48046875 -642.639648438 612.48046875 -642.639648438 588.120117188 c 0,13,14
 -642.639648438 575.360351562 -642.639648438 575.360351562 -619.440429688 555.639648438 c 0,15,16
 -603.200195312 542.879882812 -603.200195312 542.879882812 -603.200195312 533.599609375 c 0,17,18
 -603.200195312 526.639648438 -603.200195312 526.639648438 -619.440429688 526.639648438 c 0,19,20
 -641.48046875 526.639648438 -641.48046875 526.639648438 -686.719726562 539.400390625 c 128,-1,21
 -731.959960938 552.16015625 -731.959960938 552.16015625 -788.799804688 575.360351562 c 0,22,23
 -812 585.799804688 -812 585.799804688 -831.719726562 592.759765625 c 128,-1,24
 -851.440429688 599.719726562 -851.440429688 599.719726562 -859.559570312 599.719726562 c 0,25,26
 -872.3203125 599.719726562 -872.3203125 599.719726562 -872.3203125 586.959960938 c 0,27,28
 -872.3203125 580 -872.3203125 580 -868.83984375 567.240234375 c 0,29,30
 -860.719726562 534.759765625 -860.719726562 534.759765625 -809.6796875 509.240234375 c 128,-1,31
 -758.639648438 483.719726562 -758.639648438 483.719726562 -671.639648438 472.120117188 c 0,32,0
 -603.200195312 462.83984375 -603.200195312 462.83984375 -542.879882812 462.83984375 c 0,1,2
EndSplineSet
EndChar

StartChar: aring
Encoding: 229 229 28
Width: 0
GlyphClass: 1
Flags: W
LayerCount: 2
Back
SplineSet
-498 249 m 0,1,2
 -453 249 -453 249 -437 252 c 128,-1,3
 -421 255 -421 255 -410 266 c 0,4,5
 -394 282 -394 282 -394 309 c 0,6,7
 -394 322 -394 322 -399 339 c 0,8,9
 -406 358 -406 358 -436 368 c 128,-1,10
 -466 378 -466 378 -515 378 c 0,11,12
 -584 378 -584 378 -584 357 c 0,13,14
 -584 346 -584 346 -564 329 c 0,15,16
 -550 318 -550 318 -550 310 c 0,17,18
 -550 304 -550 304 -564 304 c 0,19,20
 -583 304 -583 304 -622 315 c 128,-1,21
 -661 326 -661 326 -710 346 c 0,22,23
 -730 355 -730 355 -747 361 c 128,-1,24
 -764 367 -764 367 -771 367 c 0,25,26
 -782 367 -782 367 -782 356 c 0,27,28
 -782 350 -782 350 -779 339 c 0,29,30
 -772 311 -772 311 -728 289 c 128,-1,31
 -684 267 -684 267 -609 257 c 0,32,0
 -550 249 -550 249 -498 249 c 0,1,2
EndSplineSet
Fore
SplineSet
-531.280273438 520.83984375 m 0,1,2
 -479.080078125 520.83984375 -479.080078125 520.83984375 -460.51953125 524.3203125 c 128,-1,3
 -441.959960938 527.799804688 -441.959960938 527.799804688 -429.200195312 540.559570312 c 0,4,5
 -410.639648438 559.120117188 -410.639648438 559.120117188 -410.639648438 590.440429688 c 0,6,7
 -410.639648438 605.51953125 -410.639648438 605.51953125 -416.440429688 625.240234375 c 0,8,9
 -424.559570312 647.280273438 -424.559570312 647.280273438 -459.360351562 658.879882812 c 128,-1,10
 -494.16015625 670.48046875 -494.16015625 670.48046875 -551 670.48046875 c 0,11,12
 -631.040039062 670.48046875 -631.040039062 670.48046875 -631.040039062 646.120117188 c 0,13,14
 -631.040039062 633.360351562 -631.040039062 633.360351562 -607.83984375 613.639648438 c 0,15,16
 -591.599609375 600.879882812 -591.599609375 600.879882812 -591.599609375 591.599609375 c 0,17,18
 -591.599609375 584.639648438 -591.599609375 584.639648438 -607.83984375 584.639648438 c 0,19,20
 -629.879882812 584.639648438 -629.879882812 584.639648438 -675.120117188 597.400390625 c 128,-1,21
 -720.360351562 610.16015625 -720.360351562 610.16015625 -777.200195312 633.360351562 c 0,22,23
 -800.400390625 643.799804688 -800.400390625 643.799804688 -820.120117188 650.759765625 c 128,-1,24
 -839.83984375 657.719726562 -839.83984375 657.719726562 -847.959960938 657.719726562 c 0,25,26
 -860.719726562 657.719726562 -860.719726562 657.719726562 -860.719726562 644.959960938 c 0,27,28
 -860.719726562 638 -860.719726562 638 -857.240234375 625.240234375 c 0,29,30
 -849.120117188 592.759765625 -849.120117188 592.759765625 -798.080078125 567.240234375 c 128,-1,31
 -747.040039062 541.719726562 -747.040039062 541.719726562 -660.040039062 530.120117188 c 0,32,0
 -591.599609375 520.83984375 -591.599609375 520.83984375 -531.280273438 520.83984375 c 0,1,2
EndSplineSet
EndChar

StartChar: b
Encoding: 98 98 29
Width: 1362
GlyphClass: 1
Flags: W
LayerCount: 2
Back
SplineSet
498.5 204.5 m 128,-1,1
 512 223 512 223 514 243 c 0,2,3
 514 246 514 246 524 246 c 0,4,5
 537 246 537 246 549 245 c 0,6,7
 614 242 614 242 652 241 c 0,8,9
 740 239 740 239 770 237 c 128,-1,10
 800 235 800 235 815 229 c 0,11,12
 836 222 836 222 841 222 c 0,13,14
 854 222 854 222 854 239 c 0,15,16
 854 264 854 264 807.5 275.5 c 128,-1,17
 761 287 761 287 643 292 c 0,18,19
 599 294 599 294 564 297 c 128,-1,20
 529 300 529 300 518 302 c 0,21,22
 516 302 516 302 516 305 c 0,23,24
 516 309 516 309 519 321 c 0,25,26
 521 330 521 330 525.5 331.5 c 128,-1,27
 530 333 530 333 532 337 c 0,28,29
 537 347 537 347 537 351 c 0,30,31
 537 373 537 373 476 373 c 0,32,33
 438 373 438 373 438 328 c 0,34,35
 438 322 438 322 437.5 315 c 128,-1,36
 437 308 437 308 435 308 c 0,37,38
 412 308 412 308 404 310 c 0,39,40
 350 318 350 318 311.5 351 c 128,-1,41
 273 384 273 384 259 434 c 0,42,43
 247 478 247 478 210 506 c 128,-1,44
 173 534 173 534 116 543 c 0,45,46
 70 550 70 550 57 550 c 0,47,48
 43 550 43 550 36.5 546.5 c 128,-1,49
 30 543 30 543 30 536 c 256,50,51
 30 529 30 529 34 521 c 0,52,53
 39 510 39 510 46 506.5 c 128,-1,54
 53 503 53 503 72 503 c 0,55,56
 100 503 100 503 118 484.5 c 128,-1,57
 136 466 136 466 154 414 c 0,58,59
 173 362 173 362 204 333 c 128,-1,60
 235 304 235 304 289 285 c 0,61,62
 310 278 310 278 336 272.5 c 128,-1,63
 362 267 362 267 376 265 c 2,64,-1
 402 262 l 2,65,66
 415 261 415 261 422 259.5 c 128,-1,67
 429 258 429 258 429 256 c 0,68,69
 429 248 429 248 423 232 c 0,70,71
 411 207 411 207 411 201 c 0,72,73
 411 197 411 197 415.5 194.5 c 128,-1,74
 420 192 420 192 425 191 c 128,-1,75
 430 190 430 190 432 189 c 0,76,77
 453 184 453 184 473 185 c 0,78,0
 485 186 485 186 498.5 204.5 c 128,-1,1
1057 175 m 0,80,81
 1081 175 1081 175 1088 178 c 0,82,83
 1098 182 1098 182 1098 190 c 256,84,85
 1098 198 1098 198 1087 203 c 0,86,87
 1077 206 1077 206 1070 220.5 c 128,-1,88
 1063 235 1063 235 1048 284 c 0,89,90
 1038 317 1038 317 1029 333 c 128,-1,91
 1020 349 1020 349 1007 356.5 c 128,-1,92
 994 364 994 364 969 367 c 0,93,94
 951 370 951 370 935 370 c 0,95,96
 916 370 916 370 903.5 366.5 c 128,-1,97
 891 363 891 363 888 357 c 2,98,-1
 888 355 l 2,99,100
 888 348 888 348 901 343 c 0,101,102
 913 339 913 339 920 325 c 128,-1,103
 927 311 927 311 943 259 c 0,104,105
 954 224 954 224 967 206 c 128,-1,106
 980 188 980 188 1001 181 c 0,107,79
 1022 175 1022 175 1057 175 c 0,80,81
1237 175 m 0,109,110
 1261 175 1261 175 1268 178 c 0,111,112
 1278 182 1278 182 1278 190 c 256,113,114
 1278 198 1278 198 1267 203 c 0,115,116
 1257 206 1257 206 1250.5 220 c 128,-1,117
 1244 234 1244 234 1228 284 c 0,118,119
 1218 317 1218 317 1209 333 c 128,-1,120
 1200 349 1200 349 1187 356 c 128,-1,121
 1174 363 1174 363 1149 367 c 0,122,123
 1131 370 1131 370 1115 370 c 0,124,125
 1096 370 1096 370 1083.5 366.5 c 128,-1,126
 1071 363 1071 363 1068 357 c 2,127,-1
 1068 355 l 2,128,129
 1068 348 1068 348 1081 343 c 0,130,131
 1093 339 1093 339 1100 325 c 128,-1,132
 1107 311 1107 311 1123 259 c 0,133,134
 1134 224 1134 224 1147 206 c 128,-1,135
 1160 188 1160 188 1181 181 c 0,136,108
 1202 175 1202 175 1237 175 c 0,109,110
1320 -52 m 0,138,139
 1326 -52 1326 -52 1329 -46.5 c 128,-1,140
 1332 -41 1332 -41 1332 -32 c 0,141,142
 1332 -9 1332 -9 1317 3 c 0,143,144
 1217 88 1217 88 1087 107 c 0,145,146
 1063 110 1063 110 962 110 c 0,147,148
 847 110 847 110 716 107 c 0,149,150
 586 104 586 104 477 104 c 0,151,152
 365 104 365 104 332 108 c 0,153,154
 196 125 196 125 163 145 c 0,155,156
 159 148 159 148 153 148 c 0,157,158
 144 148 144 148 139.5 139.5 c 128,-1,159
 135 131 135 131 137 118 c 0,160,161
 144 80 144 80 194 51 c 128,-1,162
 244 22 244 22 329 7 c 0,163,164
 424 -9 424 -9 532 -9 c 2,165,-1
 569 -9 l 2,166,167
 689 -6 689 -6 956 -6 c 0,168,169
 1077 -6 1077 -6 1093 -7 c 0,170,171
 1195 -14 1195 -14 1251 -28 c 0,172,173
 1269 -32 1269 -32 1288 -38.5 c 128,-1,174
 1307 -45 1307 -45 1312 -49 c 0,175,137
 1317 -52 1317 -52 1320 -52 c 0,138,139
EndSplineSet
Fore
SplineSet
624.66015625 469.219726562 m 128,-1,1
 640.3203125 490.6796875 640.3203125 490.6796875 642.639648438 513.879882812 c 0,2,3
 642.639648438 517.360351562 642.639648438 517.360351562 654.240234375 517.360351562 c 0,4,5
 669.3203125 517.360351562 669.3203125 517.360351562 683.240234375 516.200195312 c 0,6,7
 758.639648438 512.719726562 758.639648438 512.719726562 802.719726562 511.559570312 c 0,8,9
 904.799804688 509.240234375 904.799804688 509.240234375 939.599609375 506.919921875 c 128,-1,10
 974.400390625 504.599609375 974.400390625 504.599609375 991.799804688 497.639648438 c 0,11,12
 1016.16015625 489.51953125 1016.16015625 489.51953125 1021.95996094 489.51953125 c 0,13,14
 1037.04003906 489.51953125 1037.04003906 489.51953125 1037.04003906 509.240234375 c 0,15,16
 1037.04003906 538.240234375 1037.04003906 538.240234375 983.099609375 551.580078125 c 128,-1,17
 929.16015625 564.919921875 929.16015625 564.919921875 792.280273438 570.719726562 c 0,18,19
 741.240234375 573.040039062 741.240234375 573.040039062 700.639648438 576.51953125 c 128,-1,20
 660.040039062 580 660.040039062 580 647.280273438 582.3203125 c 0,21,22
 644.959960938 582.3203125 644.959960938 582.3203125 644.959960938 585.799804688 c 0,23,24
 644.959960938 590.440429688 644.959960938 590.440429688 648.440429688 604.360351562 c 0,25,26
 650.759765625 614.799804688 650.759765625 614.799804688 655.98046875 616.540039062 c 128,-1,27
 661.200195312 618.280273438 661.200195312 618.280273438 663.51953125 622.919921875 c 0,28,29
 669.3203125 634.51953125 669.3203125 634.51953125 669.3203125 639.16015625 c 0,30,31
 669.3203125 664.6796875 669.3203125 664.6796875 598.559570312 664.6796875 c 0,32,33
 554.48046875 664.6796875 554.48046875 664.6796875 554.48046875 612.48046875 c 0,34,35
 554.48046875 605.51953125 554.48046875 605.51953125 553.900390625 597.400390625 c 128,-1,36
 553.3203125 589.280273438 553.3203125 589.280273438 551 589.280273438 c 0,37,38
 524.3203125 589.280273438 524.3203125 589.280273438 515.040039062 591.599609375 c 0,39,40
 452.400390625 600.879882812 452.400390625 600.879882812 407.740234375 639.16015625 c 128,-1,41
 363.080078125 677.440429688 363.080078125 677.440429688 346.83984375 735.440429688 c 0,42,43
 332.919921875 786.48046875 332.919921875 786.48046875 290 818.959960938 c 128,-1,44
 247.080078125 851.440429688 247.080078125 851.440429688 180.959960938 861.879882812 c 0,45,46
 127.599609375 870 127.599609375 870 112.51953125 870 c 0,47,48
 96.2802734375 870 96.2802734375 870 88.740234375 865.940429688 c 128,-1,49
 81.2001953125 861.879882812 81.2001953125 861.879882812 81.2001953125 853.759765625 c 256,50,51
 81.2001953125 845.639648438 81.2001953125 845.639648438 85.83984375 836.360351562 c 0,52,53
 91.6396484375 823.599609375 91.6396484375 823.599609375 99.759765625 819.540039062 c 128,-1,54
 107.879882812 815.48046875 107.879882812 815.48046875 129.919921875 815.48046875 c 0,55,56
 162.400390625 815.48046875 162.400390625 815.48046875 183.280273438 794.01953125 c 128,-1,57
 204.16015625 772.559570312 204.16015625 772.559570312 225.040039062 712.240234375 c 0,58,59
 247.080078125 651.919921875 247.080078125 651.919921875 283.040039062 618.280273438 c 128,-1,60
 319 584.639648438 319 584.639648438 381.639648438 562.599609375 c 0,61,62
 406 554.48046875 406 554.48046875 436.16015625 548.099609375 c 128,-1,63
 466.3203125 541.719726562 466.3203125 541.719726562 482.559570312 539.400390625 c 2,64,-1
 512.719726562 535.919921875 l 2,65,66
 527.799804688 534.759765625 527.799804688 534.759765625 535.919921875 533.01953125 c 128,-1,67
 544.040039062 531.280273438 544.040039062 531.280273438 544.040039062 528.959960938 c 0,68,69
 544.040039062 519.6796875 544.040039062 519.6796875 537.080078125 501.120117188 c 0,70,71
 523.16015625 472.120117188 523.16015625 472.120117188 523.16015625 465.16015625 c 0,72,73
 523.16015625 460.51953125 523.16015625 460.51953125 528.379882812 457.620117188 c 128,-1,74
 533.599609375 454.719726562 533.599609375 454.719726562 539.400390625 453.559570312 c 128,-1,75
 545.200195312 452.400390625 545.200195312 452.400390625 547.51953125 451.240234375 c 0,76,77
 571.879882812 445.440429688 571.879882812 445.440429688 595.080078125 446.599609375 c 0,78,0
 609 447.759765625 609 447.759765625 624.66015625 469.219726562 c 128,-1,1
1272.51953125 435 m 0,80,81
 1300.36035156 435 1300.36035156 435 1308.48046875 438.48046875 c 0,82,83
 1320.08007812 443.120117188 1320.08007812 443.120117188 1320.08007812 452.400390625 c 256,84,85
 1320.08007812 461.6796875 1320.08007812 461.6796875 1307.3203125 467.48046875 c 0,86,87
 1295.71972656 470.959960938 1295.71972656 470.959960938 1287.59960938 487.780273438 c 128,-1,88
 1279.48046875 504.599609375 1279.48046875 504.599609375 1262.08007812 561.440429688 c 0,89,90
 1250.48046875 599.719726562 1250.48046875 599.719726562 1240.04003906 618.280273438 c 128,-1,91
 1229.59960938 636.83984375 1229.59960938 636.83984375 1214.51953125 645.540039062 c 128,-1,92
 1199.44042969 654.240234375 1199.44042969 654.240234375 1170.44042969 657.719726562 c 0,93,94
 1149.55957031 661.200195312 1149.55957031 661.200195312 1131 661.200195312 c 0,95,96
 1108.95996094 661.200195312 1108.95996094 661.200195312 1094.45996094 657.139648438 c 128,-1,97
 1079.95996094 653.080078125 1079.95996094 653.080078125 1076.48046875 646.120117188 c 2,98,-1
 1076.48046875 643.799804688 l 2,99,100
 1076.48046875 635.6796875 1076.48046875 635.6796875 1091.55957031 629.879882812 c 0,101,102
 1105.48046875 625.240234375 1105.48046875 625.240234375 1113.59960938 609 c 128,-1,103
 1121.71972656 592.759765625 1121.71972656 592.759765625 1140.28027344 532.440429688 c 0,104,105
 1153.04003906 491.83984375 1153.04003906 491.83984375 1168.12011719 470.959960938 c 128,-1,106
 1183.20019531 450.080078125 1183.20019531 450.080078125 1207.55957031 441.959960938 c 0,107,79
 1231.91992188 435 1231.91992188 435 1272.51953125 435 c 0,80,81
1481.3203125 435 m 0,109,110
 1509.16015625 435 1509.16015625 435 1517.28027344 438.48046875 c 0,111,112
 1528.87988281 443.120117188 1528.87988281 443.120117188 1528.87988281 452.400390625 c 256,113,114
 1528.87988281 461.6796875 1528.87988281 461.6796875 1516.12011719 467.48046875 c 0,115,116
 1504.51953125 470.959960938 1504.51953125 470.959960938 1496.98046875 487.200195312 c 128,-1,117
 1489.44042969 503.440429688 1489.44042969 503.440429688 1470.87988281 561.440429688 c 0,118,119
 1459.28027344 599.719726562 1459.28027344 599.719726562 1448.83984375 618.280273438 c 128,-1,120
 1438.40039062 636.83984375 1438.40039062 636.83984375 1423.3203125 644.959960938 c 128,-1,121
 1408.24023438 653.080078125 1408.24023438 653.080078125 1379.24023438 657.719726562 c 0,122,123
 1358.36035156 661.200195312 1358.36035156 661.200195312 1339.79980469 661.200195312 c 0,124,125
 1317.75976562 661.200195312 1317.75976562 661.200195312 1303.25976562 657.139648438 c 128,-1,126
 1288.75976562 653.080078125 1288.75976562 653.080078125 1285.28027344 646.120117188 c 2,127,-1
 1285.28027344 643.799804688 l 2,128,129
 1285.28027344 635.6796875 1285.28027344 635.6796875 1300.36035156 629.879882812 c 0,130,131
 1314.28027344 625.240234375 1314.28027344 625.240234375 1322.40039062 609 c 128,-1,132
 1330.51953125 592.759765625 1330.51953125 592.759765625 1349.08007812 532.440429688 c 0,133,134
 1361.83984375 491.83984375 1361.83984375 491.83984375 1376.91992188 470.959960938 c 128,-1,135
 1392 450.080078125 1392 450.080078125 1416.36035156 441.959960938 c 0,136,108
 1440.71972656 435 1440.71972656 435 1481.3203125 435 c 0,109,110
1577.59960938 171.6796875 m 0,138,139
 1584.55957031 171.6796875 1584.55957031 171.6796875 1588.04003906 178.059570312 c 128,-1,140
 1591.51953125 184.440429688 1591.51953125 184.440429688 1591.51953125 194.879882812 c 0,141,142
 1591.51953125 221.559570312 1591.51953125 221.559570312 1574.12011719 235.48046875 c 0,143,144
 1458.12011719 334.080078125 1458.12011719 334.080078125 1307.3203125 356.120117188 c 0,145,146
 1279.48046875 359.599609375 1279.48046875 359.599609375 1162.3203125 359.599609375 c 0,147,148
 1028.91992188 359.599609375 1028.91992188 359.599609375 876.959960938 356.120117188 c 0,149,150
 726.16015625 352.639648438 726.16015625 352.639648438 599.719726562 352.639648438 c 0,151,152
 469.799804688 352.639648438 469.799804688 352.639648438 431.51953125 357.280273438 c 0,153,154
 273.759765625 377 273.759765625 377 235.48046875 400.200195312 c 0,155,156
 230.83984375 403.6796875 230.83984375 403.6796875 223.879882812 403.6796875 c 0,157,158
 213.440429688 403.6796875 213.440429688 403.6796875 208.219726562 393.8203125 c 128,-1,159
 203 383.959960938 203 383.959960938 205.3203125 368.879882812 c 0,160,161
 213.440429688 324.799804688 213.440429688 324.799804688 271.440429688 291.16015625 c 128,-1,162
 329.440429688 257.51953125 329.440429688 257.51953125 428.040039062 240.120117188 c 0,163,164
 538.240234375 221.559570312 538.240234375 221.559570312 663.51953125 221.559570312 c 2,165,-1
 706.440429688 221.559570312 l 2,166,167
 845.639648438 225.040039062 845.639648438 225.040039062 1155.36035156 225.040039062 c 0,168,169
 1295.71972656 225.040039062 1295.71972656 225.040039062 1314.28027344 223.879882812 c 0,170,171
 1432.59960938 215.759765625 1432.59960938 215.759765625 1497.55957031 199.51953125 c 0,172,173
 1518.44042969 194.879882812 1518.44042969 194.879882812 1540.48046875 187.33984375 c 128,-1,174
 1562.51953125 179.799804688 1562.51953125 179.799804688 1568.3203125 175.16015625 c 0,175,137
 1574.12011719 171.6796875 1574.12011719 171.6796875 1577.59960938 171.6796875 c 0,138,139
EndSplineSet
EndChar

StartChar: c
Encoding: 99 99 30
Width: 1258
GlyphClass: 1
Flags: W
LayerCount: 2
Back
SplineSet
235 171.5 m 128,-1,1
 243 170 243 170 246.5 170 c 128,-1,2
 250 170 250 170 252 171 c 0,3,4
 259 174 259 174 262.5 185 c 128,-1,5
 266 196 266 196 261 200 c 0,6,7
 258 205 258 205 241 208 c 0,8,9
 198 215 198 215 175.5 232 c 128,-1,10
 153 249 153 249 153 271 c 0,11,12
 153 308 153 308 204.5 328 c 128,-1,13
 256 348 256 348 350 348 c 0,14,15
 540 348 540 348 606 275 c 0,16,17
 617 262 617 262 621.5 255 c 128,-1,18
 626 248 626 248 626 242 c 0,19,20
 626 217 626 217 586 215 c 0,21,22
 568 213 568 213 560.5 211 c 128,-1,23
 553 209 553 209 550 205 c 2,24,-1
 548 200 l 2,25,26
 548 195 548 195 557 189 c 0,27,28
 567 182 567 182 619.5 175 c 128,-1,29
 672 168 672 168 695 171 c 0,30,31
 729 176 729 176 743 179.5 c 128,-1,32
 757 183 757 183 763 191.5 c 128,-1,33
 769 200 769 200 769 219 c 0,34,35
 769 243 769 243 763 258.5 c 128,-1,36
 757 274 757 274 741 289 c 0,37,38
 681 349 681 349 514 371 c 0,39,40
 394 387 394 387 327 387 c 0,41,42
 275 387 275 387 224 378.5 c 128,-1,43
 173 370 173 370 111 350 c 0,44,45
 73 338 73 338 56 326 c 128,-1,46
 39 314 39 314 34 296 c 0,47,48
 31 286 31 286 31 274 c 256,49,50
 31 262 31 262 34 256 c 0,51,52
 44 229 44 229 88 208 c 128,-1,53
 132 187 132 187 209 176 c 0,54,0
 227 173 227 173 235 171.5 c 128,-1,1
957 175 m 0,56,57
 981 175 981 175 988 178 c 0,58,59
 998 182 998 182 998 190 c 256,60,61
 998 198 998 198 987 203 c 0,62,63
 977 206 977 206 970 220.5 c 128,-1,64
 963 235 963 235 948 284 c 0,65,66
 938 317 938 317 929 333 c 128,-1,67
 920 349 920 349 907 356.5 c 128,-1,68
 894 364 894 364 869 367 c 0,69,70
 851 370 851 370 835 370 c 0,71,72
 816 370 816 370 803.5 366.5 c 128,-1,73
 791 363 791 363 788 357 c 2,74,-1
 788 355 l 2,75,76
 788 348 788 348 801 343 c 0,77,78
 813 339 813 339 820 325 c 128,-1,79
 827 311 827 311 843 259 c 0,80,81
 854 224 854 224 867 206 c 128,-1,82
 880 188 880 188 901 181 c 0,83,55
 922 175 922 175 957 175 c 0,56,57
1137 175 m 0,85,86
 1161 175 1161 175 1168 178 c 0,87,88
 1178 182 1178 182 1178 190 c 256,89,90
 1178 198 1178 198 1167 203 c 0,91,92
 1157 206 1157 206 1150.5 220 c 128,-1,93
 1144 234 1144 234 1128 284 c 0,94,95
 1118 317 1118 317 1109 333 c 128,-1,96
 1100 349 1100 349 1087 356 c 128,-1,97
 1074 363 1074 363 1049 367 c 0,98,99
 1031 370 1031 370 1015 370 c 0,100,101
 996 370 996 370 983.5 366.5 c 128,-1,102
 971 363 971 363 968 357 c 2,103,-1
 968 355 l 2,104,105
 968 348 968 348 981 343 c 0,106,107
 993 339 993 339 1000 325 c 128,-1,108
 1007 311 1007 311 1023 259 c 0,109,110
 1034 224 1034 224 1047 206 c 128,-1,111
 1060 188 1060 188 1081 181 c 0,112,84
 1102 175 1102 175 1137 175 c 0,85,86
1216 -52 m 0,114,115
 1222 -52 1222 -52 1225 -46.5 c 128,-1,116
 1228 -41 1228 -41 1228 -32 c 0,117,118
 1228 -9 1228 -9 1213 3 c 0,119,120
 1113 88 1113 88 983 107 c 0,121,122
 959 110 959 110 858 110 c 0,123,124
 743 110 743 110 612 107 c 0,125,126
 482 104 482 104 373 104 c 0,127,128
 261 104 261 104 228 108 c 0,129,130
 92 125 92 125 59 145 c 0,131,132
 54 148 54 148 49 148 c 0,133,134
 40 148 40 148 35.5 139.5 c 128,-1,135
 31 131 31 131 33 118 c 0,136,137
 40 80 40 80 90 51 c 128,-1,138
 140 22 140 22 225 7 c 0,139,140
 320 -9 320 -9 428 -9 c 2,141,-1
 465 -9 l 2,142,143
 585 -6 585 -6 852 -6 c 0,144,145
 973 -6 973 -6 989 -7 c 0,146,147
 1091 -14 1091 -14 1147 -28 c 0,148,149
 1165 -32 1165 -32 1184 -38.5 c 128,-1,150
 1203 -45 1203 -45 1208 -49 c 0,151,113
 1213 -52 1213 -52 1216 -52 c 0,114,115
EndSplineSet
Fore
SplineSet
319 430.940429688 m 128,-1,1
 328.280273438 429.200195312 328.280273438 429.200195312 332.33984375 429.200195312 c 128,-1,2
 336.400390625 429.200195312 336.400390625 429.200195312 338.719726562 430.360351562 c 0,3,4
 346.83984375 433.83984375 346.83984375 433.83984375 350.900390625 446.599609375 c 128,-1,5
 354.959960938 459.360351562 354.959960938 459.360351562 349.16015625 464 c 0,6,7
 345.6796875 469.799804688 345.6796875 469.799804688 325.959960938 473.280273438 c 0,8,9
 276.080078125 481.400390625 276.080078125 481.400390625 249.98046875 501.120117188 c 128,-1,10
 223.879882812 520.83984375 223.879882812 520.83984375 223.879882812 546.360351562 c 0,11,12
 223.879882812 589.280273438 223.879882812 589.280273438 283.620117188 612.48046875 c 128,-1,13
 343.360351562 635.6796875 343.360351562 635.6796875 452.400390625 635.6796875 c 0,14,15
 672.799804688 635.6796875 672.799804688 635.6796875 749.360351562 551 c 0,16,17
 762.120117188 535.919921875 762.120117188 535.919921875 767.33984375 527.799804688 c 128,-1,18
 772.559570312 519.6796875 772.559570312 519.6796875 772.559570312 512.719726562 c 0,19,20
 772.559570312 483.719726562 772.559570312 483.719726562 726.16015625 481.400390625 c 0,21,22
 705.280273438 479.080078125 705.280273438 479.080078125 696.580078125 476.759765625 c 128,-1,23
 687.879882812 474.440429688 687.879882812 474.440429688 684.400390625 469.799804688 c 2,24,-1
 682.080078125 464 l 2,25,26
 682.080078125 458.200195312 682.080078125 458.200195312 692.51953125 451.240234375 c 0,27,28
 704.120117188 443.120117188 704.120117188 443.120117188 765.01953125 435 c 128,-1,29
 825.919921875 426.879882812 825.919921875 426.879882812 852.599609375 430.360351562 c 0,30,31
 892.040039062 436.16015625 892.040039062 436.16015625 908.280273438 440.219726562 c 128,-1,32
 924.51953125 444.280273438 924.51953125 444.280273438 931.48046875 454.139648438 c 128,-1,33
 938.440429688 464 938.440429688 464 938.440429688 486.040039062 c 0,34,35
 938.440429688 513.879882812 938.440429688 513.879882812 931.48046875 531.860351562 c 128,-1,36
 924.51953125 549.83984375 924.51953125 549.83984375 905.959960938 567.240234375 c 0,37,38
 836.360351562 636.83984375 836.360351562 636.83984375 642.639648438 662.360351562 c 0,39,40
 503.440429688 680.919921875 503.440429688 680.919921875 425.719726562 680.919921875 c 0,41,42
 365.400390625 680.919921875 365.400390625 680.919921875 306.240234375 671.059570312 c 128,-1,43
 247.080078125 661.200195312 247.080078125 661.200195312 175.16015625 638 c 0,44,45
 131.080078125 624.080078125 131.080078125 624.080078125 111.360351562 610.16015625 c 128,-1,46
 91.6396484375 596.240234375 91.6396484375 596.240234375 85.83984375 575.360351562 c 0,47,48
 82.3603515625 563.759765625 82.3603515625 563.759765625 82.3603515625 549.83984375 c 256,49,50
 82.3603515625 535.919921875 82.3603515625 535.919921875 85.83984375 528.959960938 c 0,51,52
 97.4404296875 497.639648438 97.4404296875 497.639648438 148.48046875 473.280273438 c 128,-1,53
 199.51953125 448.919921875 199.51953125 448.919921875 288.83984375 436.16015625 c 0,54,0
 309.719726562 432.6796875 309.719726562 432.6796875 319 430.940429688 c 128,-1,1
1156.51953125 435 m 0,56,57
 1184.36035156 435 1184.36035156 435 1192.48046875 438.48046875 c 0,58,59
 1204.08007812 443.120117188 1204.08007812 443.120117188 1204.08007812 452.400390625 c 256,60,61
 1204.08007812 461.6796875 1204.08007812 461.6796875 1191.3203125 467.48046875 c 0,62,63
 1179.71972656 470.959960938 1179.71972656 470.959960938 1171.59960938 487.780273438 c 128,-1,64
 1163.48046875 504.599609375 1163.48046875 504.599609375 1146.08007812 561.440429688 c 0,65,66
 1134.48046875 599.719726562 1134.48046875 599.719726562 1124.04003906 618.280273438 c 128,-1,67
 1113.59960938 636.83984375 1113.59960938 636.83984375 1098.51953125 645.540039062 c 128,-1,68
 1083.44042969 654.240234375 1083.44042969 654.240234375 1054.44042969 657.719726562 c 0,69,70
 1033.55957031 661.200195312 1033.55957031 661.200195312 1015 661.200195312 c 0,71,72
 992.959960938 661.200195312 992.959960938 661.200195312 978.459960938 657.139648438 c 128,-1,73
 963.959960938 653.080078125 963.959960938 653.080078125 960.48046875 646.120117188 c 2,74,-1
 960.48046875 643.799804688 l 2,75,76
 960.48046875 635.6796875 960.48046875 635.6796875 975.559570312 629.879882812 c 0,77,78
 989.48046875 625.240234375 989.48046875 625.240234375 997.599609375 609 c 128,-1,79
 1005.71972656 592.759765625 1005.71972656 592.759765625 1024.28027344 532.440429688 c 0,80,81
 1037.04003906 491.83984375 1037.04003906 491.83984375 1052.12011719 470.959960938 c 128,-1,82
 1067.20019531 450.080078125 1067.20019531 450.080078125 1091.55957031 441.959960938 c 0,83,55
 1115.91992188 435 1115.91992188 435 1156.51953125 435 c 0,56,57
1365.3203125 435 m 0,85,86
 1393.16015625 435 1393.16015625 435 1401.28027344 438.48046875 c 0,87,88
 1412.87988281 443.120117188 1412.87988281 443.120117188 1412.87988281 452.400390625 c 256,89,90
 1412.87988281 461.6796875 1412.87988281 461.6796875 1400.12011719 467.48046875 c 0,91,92
 1388.51953125 470.959960938 1388.51953125 470.959960938 1380.98046875 487.200195312 c 128,-1,93
 1373.44042969 503.440429688 1373.44042969 503.440429688 1354.87988281 561.440429688 c 0,94,95
 1343.28027344 599.719726562 1343.28027344 599.719726562 1332.83984375 618.280273438 c 128,-1,96
 1322.40039062 636.83984375 1322.40039062 636.83984375 1307.3203125 644.959960938 c 128,-1,97
 1292.24023438 653.080078125 1292.24023438 653.080078125 1263.24023438 657.719726562 c 0,98,99
 1242.36035156 661.200195312 1242.36035156 661.200195312 1223.79980469 661.200195312 c 0,100,101
 1201.75976562 661.200195312 1201.75976562 661.200195312 1187.25976562 657.139648438 c 128,-1,102
 1172.75976562 653.080078125 1172.75976562 653.080078125 1169.28027344 646.120117188 c 2,103,-1
 1169.28027344 643.799804688 l 2,104,105
 1169.28027344 635.6796875 1169.28027344 635.6796875 1184.36035156 629.879882812 c 0,106,107
 1198.28027344 625.240234375 1198.28027344 625.240234375 1206.40039062 609 c 128,-1,108
 1214.51953125 592.759765625 1214.51953125 592.759765625 1233.08007812 532.440429688 c 0,109,110
 1245.83984375 491.83984375 1245.83984375 491.83984375 1260.91992188 470.959960938 c 128,-1,111
 1276 450.080078125 1276 450.080078125 1300.36035156 441.959960938 c 0,112,84
 1324.71972656 435 1324.71972656 435 1365.3203125 435 c 0,85,86
1456.95996094 171.6796875 m 0,114,115
 1463.91992188 171.6796875 1463.91992188 171.6796875 1467.40039062 178.059570312 c 128,-1,116
 1470.87988281 184.440429688 1470.87988281 184.440429688 1470.87988281 194.879882812 c 0,117,118
 1470.87988281 221.559570312 1470.87988281 221.559570312 1453.48046875 235.48046875 c 0,119,120
 1337.48046875 334.080078125 1337.48046875 334.080078125 1186.6796875 356.120117188 c 0,121,122
 1158.83984375 359.599609375 1158.83984375 359.599609375 1041.6796875 359.599609375 c 0,123,124
 908.280273438 359.599609375 908.280273438 359.599609375 756.3203125 356.120117188 c 0,125,126
 605.51953125 352.639648438 605.51953125 352.639648438 479.080078125 352.639648438 c 0,127,128
 349.16015625 352.639648438 349.16015625 352.639648438 310.879882812 357.280273438 c 0,129,130
 153.120117188 377 153.120117188 377 114.83984375 400.200195312 c 0,131,132
 109.040039062 403.6796875 109.040039062 403.6796875 103.240234375 403.6796875 c 0,133,134
 92.7998046875 403.6796875 92.7998046875 403.6796875 87.580078125 393.8203125 c 128,-1,135
 82.3603515625 383.959960938 82.3603515625 383.959960938 84.6796875 368.879882812 c 0,136,137
 92.7998046875 324.799804688 92.7998046875 324.799804688 150.799804688 291.16015625 c 128,-1,138
 208.799804688 257.51953125 208.799804688 257.51953125 307.400390625 240.120117188 c 0,139,140
 417.599609375 221.559570312 417.599609375 221.559570312 542.879882812 221.559570312 c 2,141,-1
 585.799804688 221.559570312 l 2,142,143
 725 225.040039062 725 225.040039062 1034.71972656 225.040039062 c 0,144,145
 1175.08007812 225.040039062 1175.08007812 225.040039062 1193.63964844 223.879882812 c 0,146,147
 1311.95996094 215.759765625 1311.95996094 215.759765625 1376.91992188 199.51953125 c 0,148,149
 1397.79980469 194.879882812 1397.79980469 194.879882812 1419.83984375 187.33984375 c 128,-1,150
 1441.87988281 179.799804688 1441.87988281 179.799804688 1447.6796875 175.16015625 c 0,151,113
 1453.48046875 171.6796875 1453.48046875 171.6796875 1456.95996094 171.6796875 c 0,114,115
EndSplineSet
EndChar

StartChar: d
Encoding: 100 100 31
Width: 0
GlyphClass: 1
Flags: W
LayerCount: 2
Back
SplineSet
-408 209 m 0,1,2
 -363 209 -363 209 -347 212 c 128,-1,3
 -331 215 -331 215 -320 226 c 0,4,5
 -304 242 -304 242 -304 269 c 0,6,7
 -304 282 -304 282 -309 299 c 0,8,9
 -316 318 -316 318 -346 328 c 128,-1,10
 -376 338 -376 338 -425 338 c 0,11,12
 -494 338 -494 338 -494 317 c 0,13,14
 -494 306 -494 306 -474 289 c 0,15,16
 -460 278 -460 278 -460 270 c 0,17,18
 -460 264 -460 264 -474 264 c 0,19,20
 -493 264 -493 264 -532 275 c 128,-1,21
 -571 286 -571 286 -620 306 c 0,22,23
 -640 315 -640 315 -657 321 c 128,-1,24
 -674 327 -674 327 -681 327 c 0,25,26
 -692 327 -692 327 -692 316 c 0,27,28
 -692 310 -692 310 -689 299 c 0,29,30
 -682 271 -682 271 -638 249 c 128,-1,31
 -594 227 -594 227 -519 217 c 0,32,0
 -460 209 -460 209 -408 209 c 0,1,2
EndSplineSet
Fore
SplineSet
-426.879882812 474.440429688 m 0,1,2
 -374.6796875 474.440429688 -374.6796875 474.440429688 -356.120117188 477.919921875 c 128,-1,3
 -337.559570312 481.400390625 -337.559570312 481.400390625 -324.799804688 494.16015625 c 0,4,5
 -306.240234375 512.719726562 -306.240234375 512.719726562 -306.240234375 544.040039062 c 0,6,7
 -306.240234375 559.120117188 -306.240234375 559.120117188 -312.040039062 578.83984375 c 0,8,9
 -320.16015625 600.879882812 -320.16015625 600.879882812 -354.959960938 612.48046875 c 128,-1,10
 -389.759765625 624.080078125 -389.759765625 624.080078125 -446.599609375 624.080078125 c 0,11,12
 -526.639648438 624.080078125 -526.639648438 624.080078125 -526.639648438 599.719726562 c 0,13,14
 -526.639648438 586.959960938 -526.639648438 586.959960938 -503.440429688 567.240234375 c 0,15,16
 -487.200195312 554.48046875 -487.200195312 554.48046875 -487.200195312 545.200195312 c 0,17,18
 -487.200195312 538.240234375 -487.200195312 538.240234375 -503.440429688 538.240234375 c 0,19,20
 -525.48046875 538.240234375 -525.48046875 538.240234375 -570.719726562 551 c 128,-1,21
 -615.959960938 563.759765625 -615.959960938 563.759765625 -672.799804688 586.959960938 c 0,22,23
 -696 597.400390625 -696 597.400390625 -715.719726562 604.360351562 c 128,-1,24
 -735.440429688 611.3203125 -735.440429688 611.3203125 -743.559570312 611.3203125 c 0,25,26
 -756.3203125 611.3203125 -756.3203125 611.3203125 -756.3203125 598.559570312 c 0,27,28
 -756.3203125 591.599609375 -756.3203125 591.599609375 -752.83984375 578.83984375 c 0,29,30
 -744.719726562 546.360351562 -744.719726562 546.360351562 -693.6796875 520.83984375 c 128,-1,31
 -642.639648438 495.3203125 -642.639648438 495.3203125 -555.639648438 483.719726562 c 0,32,0
 -487.200195312 474.440429688 -487.200195312 474.440429688 -426.879882812 474.440429688 c 0,1,2
EndSplineSet
EndChar

StartChar: i
Encoding: 105 105 36
Width: 1218
GlyphClass: 1
Flags: W
LayerCount: 2
Back
SplineSet
306 212 m 0,1,2
 325 212 325 212 323 224 c 0,3,4
 322 234 322 234 282.5 256 c 128,-1,5
 243 278 243 278 205 289 c 2,6,-1
 162 302 l 1,7,-1
 196 309 l 2,8,9
 256 322 256 322 312 364 c 128,-1,10
 368 406 368 406 386 452 c 0,11,12
 390 463 390 463 395 501 c 128,-1,13
 400 539 400 539 402 581 c 0,14,15
 406 655 406 655 416.5 689 c 128,-1,16
 427 723 427 723 450 736 c 0,17,18
 462 744 462 744 462 765 c 0,19,20
 462 779 462 779 456.5 792.5 c 128,-1,21
 451 806 451 806 441 813 c 0,22,23
 423 827 423 827 402 827 c 0,24,25
 383 827 383 827 358 814 c 0,26,27
 326 797 326 797 307 749.5 c 128,-1,28
 288 702 288 702 281 613 c 0,29,30
 272 509 272 509 247.5 457.5 c 128,-1,31
 223 406 223 406 168 374 c 0,32,33
 146 361 146 361 119 350.5 c 128,-1,34
 92 340 92 340 74 337 c 2,35,-1
 30 330 l 1,36,-1
 215 241 l 2,37,0
 278 212 278 212 306 212 c 0,1,2
1032 212 m 0,39,40
 1051 212 1051 212 1049 224 c 0,41,42
 1048 234 1048 234 1008.5 256 c 128,-1,43
 969 278 969 278 931 289 c 2,44,-1
 888 302 l 1,45,-1
 922 309 l 2,46,47
 982 322 982 322 1038 364 c 128,-1,48
 1094 406 1094 406 1112 452 c 0,49,50
 1116 463 1116 463 1121 501 c 128,-1,51
 1126 539 1126 539 1128 581 c 0,52,53
 1132 655 1132 655 1142.5 689 c 128,-1,54
 1153 723 1153 723 1176 736 c 0,55,56
 1188 744 1188 744 1188 765 c 0,57,58
 1188 779 1188 779 1182.5 792.5 c 128,-1,59
 1177 806 1177 806 1167 813 c 0,60,61
 1149 827 1149 827 1128 827 c 0,62,63
 1109 827 1109 827 1084 814 c 0,64,65
 1052 797 1052 797 1033 749.5 c 128,-1,66
 1014 702 1014 702 1007 613 c 0,67,68
 998 509 998 509 973.5 457.5 c 128,-1,69
 949 406 949 406 894 374 c 0,70,71
 872 361 872 361 845 350.5 c 128,-1,72
 818 340 818 340 800 337 c 2,73,-1
 756 330 l 1,74,-1
 941 241 l 2,75,38
 1004 212 1004 212 1032 212 c 0,39,40
1047 -10.5 m 128,-1,77
 1087 8 1087 8 1094 25 c 0,78,79
 1100 40 1100 40 1100 53 c 0,80,81
 1100 92 1100 92 1046 119 c 128,-1,82
 992 146 992 146 876 166 c 0,83,84
 820 176 820 176 801 176 c 0,85,86
 784 176 784 176 779 168 c 0,87,88
 772 158 772 158 772 153 c 0,89,90
 772 146 772 146 783.5 141.5 c 128,-1,91
 795 137 795 137 834 126 c 0,92,93
 883 112 883 112 906 96.5 c 128,-1,94
 929 81 929 81 929 60 c 0,95,96
 929 17 929 17 855.5 -6 c 128,-1,97
 782 -29 782 -29 652 -29 c 0,98,99
 631 -29 631 -29 583 -27 c 0,100,101
 507 -25 507 -25 461.5 -19 c 128,-1,102
 416 -13 416 -13 380 -1 c 0,103,104
 315 20 315 20 278.5 44.5 c 128,-1,105
 242 69 242 69 242 90 c 0,106,107
 242 115 242 115 292 125 c 0,108,109
 311 129 311 129 327 134 c 128,-1,110
 343 139 343 139 346 142 c 0,111,112
 354 151 354 151 329 158.5 c 128,-1,113
 304 166 304 166 260 171 c 128,-1,114
 216 176 216 176 172 176 c 0,115,116
 113 176 113 176 85 168 c 0,117,118
 49 158 49 158 39.5 150 c 128,-1,119
 30 142 30 142 30 120 c 0,120,121
 30 77 30 77 78 38.5 c 128,-1,122
 126 0 126 0 210 -24 c 0,123,124
 299 -49 299 -49 409.5 -62.5 c 128,-1,125
 520 -76 520 -76 634 -76 c 0,126,127
 814 -76 814 -76 945 -44 c 0,128,76
 1007 -29 1007 -29 1047 -10.5 c 128,-1,77
EndSplineSet
Fore
SplineSet
401.360351562 477.919921875 m 0,1,2
 423.400390625 477.919921875 423.400390625 477.919921875 421.080078125 491.83984375 c 0,3,4
 419.919921875 503.440429688 419.919921875 503.440429688 374.099609375 528.959960938 c 128,-1,5
 328.280273438 554.48046875 328.280273438 554.48046875 284.200195312 567.240234375 c 2,6,-1
 234.3203125 582.3203125 l 1,7,-1
 273.759765625 590.440429688 l 2,8,9
 343.360351562 605.51953125 343.360351562 605.51953125 408.3203125 654.240234375 c 128,-1,10
 473.280273438 702.959960938 473.280273438 702.959960938 494.16015625 756.3203125 c 0,11,12
 498.799804688 769.080078125 498.799804688 769.080078125 504.599609375 813.16015625 c 128,-1,13
 510.400390625 857.240234375 510.400390625 857.240234375 512.719726562 905.959960938 c 0,14,15
 517.360351562 991.799804688 517.360351562 991.799804688 529.540039062 1031.24023438 c 128,-1,16
 541.719726562 1070.6796875 541.719726562 1070.6796875 568.400390625 1085.75976562 c 0,17,18
 582.3203125 1095.04003906 582.3203125 1095.04003906 582.3203125 1119.40039062 c 0,19,20
 582.3203125 1135.63964844 582.3203125 1135.63964844 575.940429688 1151.29980469 c 128,-1,21
 569.559570312 1166.95996094 569.559570312 1166.95996094 557.959960938 1175.08007812 c 0,22,23
 537.080078125 1191.3203125 537.080078125 1191.3203125 512.719726562 1191.3203125 c 0,24,25
 490.6796875 1191.3203125 490.6796875 1191.3203125 461.6796875 1176.24023438 c 0,26,27
 424.559570312 1156.51953125 424.559570312 1156.51953125 402.51953125 1101.41992188 c 128,-1,28
 380.48046875 1046.3203125 380.48046875 1046.3203125 372.360351562 943.080078125 c 0,29,30
 361.919921875 822.440429688 361.919921875 822.440429688 333.5 762.700195312 c 128,-1,31
 305.080078125 702.959960938 305.080078125 702.959960938 241.280273438 665.83984375 c 0,32,33
 215.759765625 650.759765625 215.759765625 650.759765625 184.440429688 638.580078125 c 128,-1,34
 153.120117188 626.400390625 153.120117188 626.400390625 132.240234375 622.919921875 c 2,35,-1
 81.2001953125 614.799804688 l 1,36,-1
 295.799804688 511.559570312 l 2,37,0
 368.879882812 477.919921875 368.879882812 477.919921875 401.360351562 477.919921875 c 0,1,2
1243.51953125 477.919921875 m 0,39,40
 1265.55957031 477.919921875 1265.55957031 477.919921875 1263.24023438 491.83984375 c 0,41,42
 1262.08007812 503.440429688 1262.08007812 503.440429688 1216.25976562 528.959960938 c 128,-1,43
 1170.44042969 554.48046875 1170.44042969 554.48046875 1126.36035156 567.240234375 c 2,44,-1
 1076.48046875 582.3203125 l 1,45,-1
 1115.91992188 590.440429688 l 2,46,47
 1185.51953125 605.51953125 1185.51953125 605.51953125 1250.48046875 654.240234375 c 128,-1,48
 1315.44042969 702.959960938 1315.44042969 702.959960938 1336.3203125 756.3203125 c 0,49,50
 1340.95996094 769.080078125 1340.95996094 769.080078125 1346.75976562 813.16015625 c 128,-1,51
 1352.55957031 857.240234375 1352.55957031 857.240234375 1354.87988281 905.959960938 c 0,52,53
 1359.51953125 991.799804688 1359.51953125 991.799804688 1371.70019531 1031.24023438 c 128,-1,54
 1383.87988281 1070.6796875 1383.87988281 1070.6796875 1410.55957031 1085.75976562 c 0,55,56
 1424.48046875 1095.04003906 1424.48046875 1095.04003906 1424.48046875 1119.40039062 c 0,57,58
 1424.48046875 1135.63964844 1424.48046875 1135.63964844 1418.09960938 1151.29980469 c 128,-1,59
 1411.71972656 1166.95996094 1411.71972656 1166.95996094 1400.12011719 1175.08007812 c 0,60,61
 1379.24023438 1191.3203125 1379.24023438 1191.3203125 1354.87988281 1191.3203125 c 0,62,63
 1332.83984375 1191.3203125 1332.83984375 1191.3203125 1303.83984375 1176.24023438 c 0,64,65
 1266.71972656 1156.51953125 1266.71972656 1156.51953125 1244.6796875 1101.41992188 c 128,-1,66
 1222.63964844 1046.3203125 1222.63964844 1046.3203125 1214.51953125 943.080078125 c 0,67,68
 1204.08007812 822.440429688 1204.08007812 822.440429688 1175.66015625 762.700195312 c 128,-1,69
 1147.24023438 702.959960938 1147.24023438 702.959960938 1083.44042969 665.83984375 c 0,70,71
 1057.91992188 650.759765625 1057.91992188 650.759765625 1026.59960938 638.580078125 c 128,-1,72
 995.280273438 626.400390625 995.280273438 626.400390625 974.400390625 622.919921875 c 2,73,-1
 923.360351562 614.799804688 l 1,74,-1
 1137.95996094 511.559570312 l 2,75,38
 1211.04003906 477.919921875 1211.04003906 477.919921875 1243.51953125 477.919921875 c 0,39,40
1260.91992188 219.8203125 m 128,-1,77
 1307.3203125 241.280273438 1307.3203125 241.280273438 1315.44042969 261 c 0,78,79
 1322.40039062 278.400390625 1322.40039062 278.400390625 1322.40039062 293.48046875 c 0,80,81
 1322.40039062 338.719726562 1322.40039062 338.719726562 1259.75976562 370.040039062 c 128,-1,82
 1197.12011719 401.360351562 1197.12011719 401.360351562 1062.55957031 424.559570312 c 0,83,84
 997.599609375 436.16015625 997.599609375 436.16015625 975.559570312 436.16015625 c 0,85,86
 955.83984375 436.16015625 955.83984375 436.16015625 950.040039062 426.879882812 c 0,87,88
 941.919921875 415.280273438 941.919921875 415.280273438 941.919921875 409.48046875 c 0,89,90
 941.919921875 401.360351562 941.919921875 401.360351562 955.259765625 396.139648438 c 128,-1,91
 968.599609375 390.919921875 968.599609375 390.919921875 1013.83984375 378.16015625 c 0,92,93
 1070.6796875 361.919921875 1070.6796875 361.919921875 1097.36035156 343.940429688 c 128,-1,94
 1124.04003906 325.959960938 1124.04003906 325.959960938 1124.04003906 301.599609375 c 0,95,96
 1124.04003906 251.719726562 1124.04003906 251.719726562 1038.78027344 225.040039062 c 128,-1,97
 953.51953125 198.360351562 953.51953125 198.360351562 802.719726562 198.360351562 c 0,98,99
 778.360351562 198.360351562 778.360351562 198.360351562 722.6796875 200.6796875 c 0,100,101
 634.51953125 203 634.51953125 203 581.740234375 209.959960938 c 128,-1,102
 528.959960938 216.919921875 528.959960938 216.919921875 487.200195312 230.83984375 c 0,103,104
 411.799804688 255.200195312 411.799804688 255.200195312 369.459960938 283.620117188 c 128,-1,105
 327.120117188 312.040039062 327.120117188 312.040039062 327.120117188 336.400390625 c 0,106,107
 327.120117188 365.400390625 327.120117188 365.400390625 385.120117188 377 c 0,108,109
 407.16015625 381.639648438 407.16015625 381.639648438 425.719726562 387.440429688 c 128,-1,110
 444.280273438 393.240234375 444.280273438 393.240234375 447.759765625 396.719726562 c 0,111,112
 457.040039062 407.16015625 457.040039062 407.16015625 428.040039062 415.860351562 c 128,-1,113
 399.040039062 424.559570312 399.040039062 424.559570312 348 430.360351562 c 128,-1,114
 296.959960938 436.16015625 296.959960938 436.16015625 245.919921875 436.16015625 c 0,115,116
 177.48046875 436.16015625 177.48046875 436.16015625 145 426.879882812 c 0,117,118
 103.240234375 415.280273438 103.240234375 415.280273438 92.2197265625 406 c 128,-1,119
 81.2001953125 396.719726562 81.2001953125 396.719726562 81.2001953125 371.200195312 c 0,120,121
 81.2001953125 321.3203125 81.2001953125 321.3203125 136.879882812 276.66015625 c 128,-1,122
 192.559570312 232 192.559570312 232 290 204.16015625 c 0,123,124
 393.240234375 175.16015625 393.240234375 175.16015625 521.419921875 159.5 c 128,-1,125
 649.599609375 143.83984375 649.599609375 143.83984375 781.83984375 143.83984375 c 0,126,127
 990.639648438 143.83984375 990.639648438 143.83984375 1142.59960938 180.959960938 c 0,128,76
 1214.51953125 198.360351562 1214.51953125 198.360351562 1260.91992188 219.8203125 c 128,-1,77
EndSplineSet
EndChar

StartChar: j
Encoding: 106 106 37
Width: 0
GlyphClass: 1
Flags: W
LayerCount: 2
Back
SplineSet
-23 -309 m 0,1,2
 7 -309 7 -309 25 -300 c 0,3,4
 37 -293 37 -293 45 -273.5 c 128,-1,5
 53 -254 53 -254 53 -233 c 0,6,7
 53 -221 53 -221 50 -210 c 0,8,9
 43 -189 43 -189 -1 -168 c 128,-1,10
 -45 -147 -45 -147 -113 -132 c 0,11,12
 -160 -123 -160 -123 -233.5 -119.5 c 128,-1,13
 -307 -116 -307 -116 -470 -116 c 0,14,15
 -715 -116 -715 -116 -852.5 -129.5 c 128,-1,16
 -990 -143 -990 -143 -990 -166 c 0,17,18
 -990 -174 -990 -174 -979 -177.5 c 128,-1,19
 -968 -181 -968 -181 -937 -181 c 0,20,21
 -928 -181 -928 -181 -874 -179 c 2,22,-1
 -838 -177 l 2,23,24
 -736 -171 -736 -171 -586 -171 c 0,25,26
 -424 -171 -424 -171 -283 -177.5 c 128,-1,27
 -142 -184 -142 -184 -112 -193 c 0,28,29
 -76 -204 -76 -204 -51.5 -220 c 128,-1,30
 -27 -236 -27 -236 -27 -246 c 0,31,32
 -27 -253 -27 -253 -42 -253 c 0,33,34
 -50 -253 -50 -253 -55 -252 c 0,35,36
 -73 -250 -73 -250 -83.5 -256 c 128,-1,37
 -94 -262 -94 -262 -94 -273 c 0,38,39
 -94 -286 -94 -286 -80 -296 c 0,40,0
 -63 -309 -63 -309 -23 -309 c 0,1,2
EndSplineSet
Fore
SplineSet
19.7197265625 -126.440429688 m 0,1,2
 54.51953125 -126.440429688 54.51953125 -126.440429688 75.400390625 -116 c 0,3,4
 89.3203125 -107.879882812 89.3203125 -107.879882812 98.599609375 -85.259765625 c 128,-1,5
 107.879882812 -62.6396484375 107.879882812 -62.6396484375 107.879882812 -38.2802734375 c 0,6,7
 107.879882812 -24.3603515625 107.879882812 -24.3603515625 104.400390625 -11.599609375 c 0,8,9
 96.2802734375 12.759765625 96.2802734375 12.759765625 45.240234375 37.1201171875 c 128,-1,10
 -5.7998046875 61.48046875 -5.7998046875 61.48046875 -84.6796875 78.8798828125 c 0,11,12
 -139.200195312 89.3203125 -139.200195312 89.3203125 -224.459960938 93.3798828125 c 128,-1,13
 -309.719726562 97.4404296875 -309.719726562 97.4404296875 -498.799804688 97.4404296875 c 0,14,15
 -783 97.4404296875 -783 97.4404296875 -942.5 81.7802734375 c 128,-1,16
 -1102 66.1201171875 -1102 66.1201171875 -1102 39.4404296875 c 0,17,18
 -1102 30.16015625 -1102 30.16015625 -1089.24023438 26.099609375 c 128,-1,19
 -1076.48046875 22.0400390625 -1076.48046875 22.0400390625 -1040.51953125 22.0400390625 c 0,20,21
 -1030.08007812 22.0400390625 -1030.08007812 22.0400390625 -967.440429688 24.3603515625 c 2,22,-1
 -925.6796875 26.6796875 l 2,23,24
 -807.360351562 33.6396484375 -807.360351562 33.6396484375 -633.360351562 33.6396484375 c 0,25,26
 -445.440429688 33.6396484375 -445.440429688 33.6396484375 -281.879882812 26.099609375 c 128,-1,27
 -118.3203125 18.5595703125 -118.3203125 18.5595703125 -83.51953125 8.1201171875 c 0,28,29
 -41.759765625 -4.6396484375 -41.759765625 -4.6396484375 -13.33984375 -23.2001953125 c 128,-1,30
 15.080078125 -41.759765625 15.080078125 -41.759765625 15.080078125 -53.3603515625 c 0,31,32
 15.080078125 -61.48046875 15.080078125 -61.48046875 -2.3203125 -61.48046875 c 0,33,34
 -11.599609375 -61.48046875 -11.599609375 -61.48046875 -17.400390625 -60.3203125 c 0,35,36
 -38.2802734375 -58 -38.2802734375 -58 -50.4599609375 -64.9599609375 c 128,-1,37
 -62.6396484375 -71.919921875 -62.6396484375 -71.919921875 -62.6396484375 -84.6796875 c 0,38,39
 -62.6396484375 -99.759765625 -62.6396484375 -99.759765625 -46.400390625 -111.360351562 c 0,40,0
 -26.6796875 -126.440429688 -26.6796875 -126.440429688 19.7197265625 -126.440429688 c 0,1,2
EndSplineSet
EndChar

StartChar: k
Encoding: 107 107 38
Width: 0
GlyphClass: 1
Flags: W
LayerCount: 2
Back
SplineSet
-23 -309 m 0,1,2
 7 -309 7 -309 25 -300 c 0,3,4
 37 -293 37 -293 45 -273.5 c 128,-1,5
 53 -254 53 -254 53 -233 c 0,6,7
 53 -221 53 -221 50 -210 c 0,8,9
 43 -189 43 -189 -1 -168 c 128,-1,10
 -45 -147 -45 -147 -113 -132 c 0,11,12
 -160 -123 -160 -123 -233.5 -119.5 c 128,-1,13
 -307 -116 -307 -116 -470 -116 c 0,14,15
 -715 -116 -715 -116 -852.5 -129.5 c 128,-1,16
 -990 -143 -990 -143 -990 -166 c 0,17,18
 -990 -174 -990 -174 -979 -177.5 c 128,-1,19
 -968 -181 -968 -181 -937 -181 c 0,20,21
 -928 -181 -928 -181 -874 -179 c 2,22,-1
 -838 -177 l 2,23,24
 -736 -171 -736 -171 -586 -171 c 0,25,26
 -424 -171 -424 -171 -283 -177.5 c 128,-1,27
 -142 -184 -142 -184 -112 -193 c 0,28,29
 -76 -204 -76 -204 -51.5 -220 c 128,-1,30
 -27 -236 -27 -236 -27 -246 c 0,31,32
 -27 -253 -27 -253 -42 -253 c 0,33,34
 -50 -253 -50 -253 -55 -252 c 0,35,36
 -73 -250 -73 -250 -83.5 -256 c 128,-1,37
 -94 -262 -94 -262 -94 -273 c 0,38,39
 -94 -286 -94 -286 -80 -296 c 0,40,0
 -63 -309 -63 -309 -23 -309 c 0,1,2
-579 -317.5 m 128,-1,42
 -561 -320 -561 -320 -536 -320 c 0,43,44
 -504 -320 -504 -320 -492.5 -318.5 c 128,-1,45
 -481 -317 -481 -317 -475.5 -310.5 c 128,-1,46
 -470 -304 -470 -304 -462 -286 c 0,47,48
 -456 -272 -456 -272 -446.5 -258.5 c 128,-1,49
 -437 -245 -437 -245 -430 -241 c 0,50,51
 -420 -235 -420 -235 -430 -233 c 128,-1,52
 -440 -231 -440 -231 -479 -230 c 0,53,54
 -515 -230 -515 -230 -527.5 -231.5 c 128,-1,55
 -540 -233 -540 -233 -545.5 -238.5 c 128,-1,56
 -551 -244 -551 -244 -556 -260 c 0,57,58
 -561 -273 -561 -273 -568 -283.5 c 128,-1,59
 -575 -294 -575 -294 -582 -296 c 0,60,61
 -588 -298 -588 -298 -592.5 -302.5 c 128,-1,62
 -597 -307 -597 -307 -597 -311 c 256,63,41
 -597 -315 -597 -315 -579 -317.5 c 128,-1,42
EndSplineSet
Fore
SplineSet
19.7197265625 -126.440429688 m 0,1,2
 54.51953125 -126.440429688 54.51953125 -126.440429688 75.400390625 -116 c 0,3,4
 89.3203125 -107.879882812 89.3203125 -107.879882812 98.599609375 -85.259765625 c 128,-1,5
 107.879882812 -62.6396484375 107.879882812 -62.6396484375 107.879882812 -38.2802734375 c 0,6,7
 107.879882812 -24.3603515625 107.879882812 -24.3603515625 104.400390625 -11.599609375 c 0,8,9
 96.2802734375 12.759765625 96.2802734375 12.759765625 45.240234375 37.1201171875 c 128,-1,10
 -5.7998046875 61.48046875 -5.7998046875 61.48046875 -84.6796875 78.8798828125 c 0,11,12
 -139.200195312 89.3203125 -139.200195312 89.3203125 -224.459960938 93.3798828125 c 128,-1,13
 -309.719726562 97.4404296875 -309.719726562 97.4404296875 -498.799804688 97.4404296875 c 0,14,15
 -783 97.4404296875 -783 97.4404296875 -942.5 81.7802734375 c 128,-1,16
 -1102 66.1201171875 -1102 66.1201171875 -1102 39.4404296875 c 0,17,18
 -1102 30.16015625 -1102 30.16015625 -1089.24023438 26.099609375 c 128,-1,19
 -1076.48046875 22.0400390625 -1076.48046875 22.0400390625 -1040.51953125 22.0400390625 c 0,20,21
 -1030.08007812 22.0400390625 -1030.08007812 22.0400390625 -967.440429688 24.3603515625 c 2,22,-1
 -925.6796875 26.6796875 l 2,23,24
 -807.360351562 33.6396484375 -807.360351562 33.6396484375 -633.360351562 33.6396484375 c 0,25,26
 -445.440429688 33.6396484375 -445.440429688 33.6396484375 -281.879882812 26.099609375 c 128,-1,27
 -118.3203125 18.5595703125 -118.3203125 18.5595703125 -83.51953125 8.1201171875 c 0,28,29
 -41.759765625 -4.6396484375 -41.759765625 -4.6396484375 -13.33984375 -23.2001953125 c 128,-1,30
 15.080078125 -41.759765625 15.080078125 -41.759765625 15.080078125 -53.3603515625 c 0,31,32
 15.080078125 -61.48046875 15.080078125 -61.48046875 -2.3203125 -61.48046875 c 0,33,34
 -11.599609375 -61.48046875 -11.599609375 -61.48046875 -17.400390625 -60.3203125 c 0,35,36
 -38.2802734375 -58 -38.2802734375 -58 -50.4599609375 -64.9599609375 c 128,-1,37
 -62.6396484375 -71.919921875 -62.6396484375 -71.919921875 -62.6396484375 -84.6796875 c 0,38,39
 -62.6396484375 -99.759765625 -62.6396484375 -99.759765625 -46.400390625 -111.360351562 c 0,40,0
 -26.6796875 -126.440429688 -26.6796875 -126.440429688 19.7197265625 -126.440429688 c 0,1,2
-625.240234375 -136.299804688 m 128,-1,42
 -604.360351562 -139.200195312 -604.360351562 -139.200195312 -575.360351562 -139.200195312 c 0,43,44
 -538.240234375 -139.200195312 -538.240234375 -139.200195312 -524.900390625 -137.459960938 c 128,-1,45
 -511.559570312 -135.719726562 -511.559570312 -135.719726562 -505.1796875 -128.1796875 c 128,-1,46
 -498.799804688 -120.639648438 -498.799804688 -120.639648438 -489.51953125 -99.759765625 c 0,47,48
 -482.559570312 -83.51953125 -482.559570312 -83.51953125 -471.540039062 -67.8603515625 c 128,-1,49
 -460.51953125 -52.2001953125 -460.51953125 -52.2001953125 -452.400390625 -47.5595703125 c 0,50,51
 -440.799804688 -40.599609375 -440.799804688 -40.599609375 -452.400390625 -38.2802734375 c 128,-1,52
 -464 -35.9599609375 -464 -35.9599609375 -509.240234375 -34.7998046875 c 0,53,54
 -551 -34.7998046875 -551 -34.7998046875 -565.5 -36.5400390625 c 128,-1,55
 -580 -38.2802734375 -580 -38.2802734375 -586.379882812 -44.66015625 c 128,-1,56
 -592.759765625 -51.0400390625 -592.759765625 -51.0400390625 -598.559570312 -69.599609375 c 0,57,58
 -604.360351562 -84.6796875 -604.360351562 -84.6796875 -612.48046875 -96.8603515625 c 128,-1,59
 -620.599609375 -109.040039062 -620.599609375 -109.040039062 -628.719726562 -111.360351562 c 0,60,61
 -635.6796875 -113.6796875 -635.6796875 -113.6796875 -640.900390625 -118.900390625 c 128,-1,62
 -646.120117188 -124.120117188 -646.120117188 -124.120117188 -646.120117188 -128.759765625 c 256,63,41
 -646.120117188 -133.400390625 -646.120117188 -133.400390625 -625.240234375 -136.299804688 c 128,-1,42
EndSplineSet
EndChar

StartChar: l
Encoding: 108 108 39
Width: 0
GlyphClass: 1
Flags: W
LayerCount: 2
Back
SplineSet
175 -309 m 0,1,2
 205 -309 205 -309 223 -300 c 0,3,4
 235 -293 235 -293 243 -273.5 c 128,-1,5
 251 -254 251 -254 251 -233 c 0,6,7
 251 -221 251 -221 248 -210 c 0,8,9
 241 -189 241 -189 196.5 -167 c 128,-1,10
 152 -145 152 -145 85 -132 c 0,11,12
 34 -122 34 -122 -12 -119 c 128,-1,13
 -58 -116 -58 -116 -212 -116 c 0,14,15
 -449 -116 -449 -116 -566 -128.5 c 128,-1,16
 -683 -141 -683 -141 -683 -164 c 0,17,18
 -683 -173 -683 -173 -672 -177 c 128,-1,19
 -661 -181 -661 -181 -629 -181 c 0,20,21
 -590 -181 -590 -181 -530 -177 c 0,22,23
 -446 -172 -446 -172 -304 -172 c 0,24,25
 -168 -172 -168 -172 -56 -178 c 128,-1,26
 56 -184 56 -184 86 -193 c 0,27,28
 122 -204 122 -204 146.5 -220 c 128,-1,29
 171 -236 171 -236 171 -246 c 0,30,31
 171 -253 171 -253 156 -253 c 0,32,33
 148 -253 148 -253 143 -252 c 0,34,35
 125 -250 125 -250 114.5 -256 c 128,-1,36
 104 -262 104 -262 104 -273 c 0,37,38
 104 -286 104 -286 118 -296 c 0,39,0
 135 -309 135 -309 175 -309 c 0,1,2
-289 -317.5 m 128,-1,41
 -271 -320 -271 -320 -246 -320 c 0,42,43
 -214 -320 -214 -320 -202.5 -318.5 c 128,-1,44
 -191 -317 -191 -317 -185.5 -310.5 c 128,-1,45
 -180 -304 -180 -304 -172 -286 c 0,46,47
 -166 -272 -166 -272 -156.5 -258.5 c 128,-1,48
 -147 -245 -147 -245 -140 -241 c 0,49,50
 -130 -235 -130 -235 -140 -233 c 128,-1,51
 -150 -231 -150 -231 -189 -230 c 0,52,53
 -225 -230 -225 -230 -237.5 -231.5 c 128,-1,54
 -250 -233 -250 -233 -255.5 -238.5 c 128,-1,55
 -261 -244 -261 -244 -266 -260 c 0,56,57
 -271 -273 -271 -273 -278 -283.5 c 128,-1,58
 -285 -294 -285 -294 -292 -296 c 0,59,60
 -298 -298 -298 -298 -302.5 -302.5 c 128,-1,61
 -307 -307 -307 -307 -307 -311 c 256,62,40
 -307 -315 -307 -315 -289 -317.5 c 128,-1,41
EndSplineSet
Fore
SplineSet
249.400390625 -126.440429688 m 0,1,2
 284.200195312 -126.440429688 284.200195312 -126.440429688 305.080078125 -116 c 0,3,4
 319 -107.879882812 319 -107.879882812 328.280273438 -85.259765625 c 128,-1,5
 337.559570312 -62.6396484375 337.559570312 -62.6396484375 337.559570312 -38.2802734375 c 0,6,7
 337.559570312 -24.3603515625 337.559570312 -24.3603515625 334.080078125 -11.599609375 c 0,8,9
 325.959960938 12.759765625 325.959960938 12.759765625 274.33984375 38.2802734375 c 128,-1,10
 222.719726562 63.7998046875 222.719726562 63.7998046875 145 78.8798828125 c 0,11,12
 85.83984375 90.48046875 85.83984375 90.48046875 32.48046875 93.9599609375 c 128,-1,13
 -20.8798828125 97.4404296875 -20.8798828125 97.4404296875 -199.51953125 97.4404296875 c 0,14,15
 -474.440429688 97.4404296875 -474.440429688 97.4404296875 -610.16015625 82.9404296875 c 128,-1,16
 -745.879882812 68.4404296875 -745.879882812 68.4404296875 -745.879882812 41.759765625 c 0,17,18
 -745.879882812 31.3203125 -745.879882812 31.3203125 -733.120117188 26.6796875 c 128,-1,19
 -720.360351562 22.0400390625 -720.360351562 22.0400390625 -683.240234375 22.0400390625 c 0,20,21
 -638 22.0400390625 -638 22.0400390625 -568.400390625 26.6796875 c 0,22,23
 -470.959960938 32.48046875 -470.959960938 32.48046875 -306.240234375 32.48046875 c 0,24,25
 -148.48046875 32.48046875 -148.48046875 32.48046875 -18.5595703125 25.51953125 c 128,-1,26
 111.360351562 18.5595703125 111.360351562 18.5595703125 146.16015625 8.1201171875 c 0,27,28
 187.919921875 -4.6396484375 187.919921875 -4.6396484375 216.33984375 -23.2001953125 c 128,-1,29
 244.759765625 -41.759765625 244.759765625 -41.759765625 244.759765625 -53.3603515625 c 0,30,31
 244.759765625 -61.48046875 244.759765625 -61.48046875 227.360351562 -61.48046875 c 0,32,33
 218.080078125 -61.48046875 218.080078125 -61.48046875 212.280273438 -60.3203125 c 0,34,35
 191.400390625 -58 191.400390625 -58 179.219726562 -64.9599609375 c 128,-1,36
 167.040039062 -71.919921875 167.040039062 -71.919921875 167.040039062 -84.6796875 c 0,37,38
 167.040039062 -99.759765625 167.040039062 -99.759765625 183.280273438 -111.360351562 c 0,39,0
 203 -126.440429688 203 -126.440429688 249.400390625 -126.440429688 c 0,1,2
-288.83984375 -136.299804688 m 128,-1,41
 -267.959960938 -139.200195312 -267.959960938 -139.200195312 -238.959960938 -139.200195312 c 0,42,43
 -201.83984375 -139.200195312 -201.83984375 -139.200195312 -188.5 -137.459960938 c 128,-1,44
 -175.16015625 -135.719726562 -175.16015625 -135.719726562 -168.780273438 -128.1796875 c 128,-1,45
 -162.400390625 -120.639648438 -162.400390625 -120.639648438 -153.120117188 -99.759765625 c 0,46,47
 -146.16015625 -83.51953125 -146.16015625 -83.51953125 -135.139648438 -67.8603515625 c 128,-1,48
 -124.120117188 -52.2001953125 -124.120117188 -52.2001953125 -116 -47.5595703125 c 0,49,50
 -104.400390625 -40.599609375 -104.400390625 -40.599609375 -116 -38.2802734375 c 128,-1,51
 -127.599609375 -35.9599609375 -127.599609375 -35.9599609375 -172.83984375 -34.7998046875 c 0,52,53
 -214.599609375 -34.7998046875 -214.599609375 -34.7998046875 -229.099609375 -36.5400390625 c 128,-1,54
 -243.599609375 -38.2802734375 -243.599609375 -38.2802734375 -249.98046875 -44.66015625 c 128,-1,55
 -256.360351562 -51.0400390625 -256.360351562 -51.0400390625 -262.16015625 -69.599609375 c 0,56,57
 -267.959960938 -84.6796875 -267.959960938 -84.6796875 -276.080078125 -96.8603515625 c 128,-1,58
 -284.200195312 -109.040039062 -284.200195312 -109.040039062 -292.3203125 -111.360351562 c 0,59,60
 -299.280273438 -113.6796875 -299.280273438 -113.6796875 -304.5 -118.900390625 c 128,-1,61
 -309.719726562 -124.120117188 -309.719726562 -124.120117188 -309.719726562 -128.759765625 c 256,62,40
 -309.719726562 -133.400390625 -309.719726562 -133.400390625 -288.83984375 -136.299804688 c 128,-1,41
EndSplineSet
EndChar

StartChar: n
Encoding: 110 110 41
Width: 0
GlyphClass: 1
Flags: W
LayerCount: 2
Back
SplineSet
-607 -441 m 2,1,-1
 -575 -441 l 2,2,3
 -505 -439 -505 -439 -446 -424 c 128,-1,4
 -387 -409 -387 -409 -319.5 -374.5 c 128,-1,5
 -252 -340 -252 -340 -157 -276 c 0,6,7
 -71 -219 -71 -219 -4 -180 c 0,8,9
 29 -161 29 -161 45 -144.5 c 128,-1,10
 61 -128 61 -128 54 -121 c 0,11,12
 51 -118 51 -118 28.5 -116 c 128,-1,13
 6 -114 6 -114 -24 -114 c 0,14,15
 -85 -114 -85 -114 -119 -120 c 0,16,17
 -166 -128 -166 -128 -191 -136.5 c 128,-1,18
 -216 -145 -216 -145 -231 -159 c 0,19,20
 -252 -179 -252 -179 -305.5 -217 c 128,-1,21
 -359 -255 -359 -255 -396 -277 c 0,22,23
 -497 -336 -497 -336 -577 -360 c 0,24,25
 -630 -375 -630 -375 -685 -375 c 0,26,27
 -787 -375 -787 -375 -917 -324 c 0,28,29
 -978 -300 -978 -300 -988 -300 c 0,30,31
 -996 -300 -996 -300 -1000 -306 c 0,32,33
 -1004 -310 -1004 -310 -1004 -315 c 0,34,35
 -1004 -324 -1004 -324 -991 -333.5 c 128,-1,36
 -978 -343 -978 -343 -947 -359 c 0,37,38
 -827 -420 -827 -420 -689 -438 c 0,39,0
 -665 -441 -665 -441 -607 -441 c 2,1,-1
EndSplineSet
Fore
SplineSet
-657.719726562 -279.559570312 m 2,1,-1
 -620.599609375 -279.559570312 l 2,2,3
 -539.400390625 -277.240234375 -539.400390625 -277.240234375 -470.959960938 -259.83984375 c 128,-1,4
 -402.51953125 -242.440429688 -402.51953125 -242.440429688 -324.219726562 -202.419921875 c 128,-1,5
 -245.919921875 -162.400390625 -245.919921875 -162.400390625 -135.719726562 -88.16015625 c 0,6,7
 -35.9599609375 -22.0400390625 -35.9599609375 -22.0400390625 41.759765625 23.2001953125 c 0,8,9
 80.0400390625 45.240234375 80.0400390625 45.240234375 98.599609375 64.3798828125 c 128,-1,10
 117.16015625 83.51953125 117.16015625 83.51953125 109.040039062 91.6396484375 c 0,11,12
 105.559570312 95.1201171875 105.559570312 95.1201171875 79.4599609375 97.4404296875 c 128,-1,13
 53.3603515625 99.759765625 53.3603515625 99.759765625 18.5595703125 99.759765625 c 0,14,15
 -52.2001953125 99.759765625 -52.2001953125 99.759765625 -91.6396484375 92.7998046875 c 0,16,17
 -146.16015625 83.51953125 -146.16015625 83.51953125 -175.16015625 73.66015625 c 128,-1,18
 -204.16015625 63.7998046875 -204.16015625 63.7998046875 -221.559570312 47.5595703125 c 0,19,20
 -245.919921875 24.3603515625 -245.919921875 24.3603515625 -307.98046875 -19.7197265625 c 128,-1,21
 -370.040039062 -63.7998046875 -370.040039062 -63.7998046875 -412.959960938 -89.3203125 c 0,22,23
 -530.120117188 -157.759765625 -530.120117188 -157.759765625 -622.919921875 -185.599609375 c 0,24,25
 -684.400390625 -203 -684.400390625 -203 -748.200195312 -203 c 0,26,27
 -866.51953125 -203 -866.51953125 -203 -1017.3203125 -143.83984375 c 0,28,29
 -1088.08007812 -116 -1088.08007812 -116 -1099.6796875 -116 c 0,30,31
 -1108.95996094 -116 -1108.95996094 -116 -1113.59960938 -122.959960938 c 0,32,33
 -1118.24023438 -127.599609375 -1118.24023438 -127.599609375 -1118.24023438 -133.400390625 c 0,34,35
 -1118.24023438 -143.83984375 -1118.24023438 -143.83984375 -1103.16015625 -154.860351562 c 128,-1,36
 -1088.08007812 -165.879882812 -1088.08007812 -165.879882812 -1052.12011719 -184.440429688 c 0,37,38
 -912.919921875 -255.200195312 -912.919921875 -255.200195312 -752.83984375 -276.080078125 c 0,39,0
 -725 -279.559570312 -725 -279.559570312 -657.719726562 -279.559570312 c 2,1,-1
EndSplineSet
EndChar

StartChar: o
Encoding: 111 111 42
Width: 1218
GlyphClass: 1
Flags: W
LayerCount: 2
Back
SplineSet
656 337 m 0,1,2
 675 337 675 337 673 349 c 0,3,4
 672 359 672 359 632.5 381 c 128,-1,5
 593 403 593 403 555 414 c 2,6,-1
 512 427 l 1,7,-1
 546 434 l 2,8,9
 606 447 606 447 662 489 c 128,-1,10
 718 531 718 531 736 577 c 0,11,12
 740 588 740 588 745 626 c 128,-1,13
 750 664 750 664 752 706 c 0,14,15
 756 780 756 780 766.5 814 c 128,-1,16
 777 848 777 848 800 861 c 0,17,18
 812 869 812 869 812 890 c 0,19,20
 812 904 812 904 806.5 917.5 c 128,-1,21
 801 931 801 931 791 938 c 0,22,23
 773 952 773 952 752 952 c 0,24,25
 733 952 733 952 708 939 c 0,26,27
 676 922 676 922 657 874.5 c 128,-1,28
 638 827 638 827 631 738 c 0,29,30
 622 634 622 634 597.5 582.5 c 128,-1,31
 573 531 573 531 518 499 c 0,32,33
 496 486 496 486 469 475.5 c 128,-1,34
 442 465 442 465 424 462 c 2,35,-1
 380 455 l 1,36,-1
 565 366 l 2,37,0
 628 337 628 337 656 337 c 0,1,2
1032 212 m 0,39,40
 1051 212 1051 212 1049 224 c 0,41,42
 1048 234 1048 234 1008.5 256 c 128,-1,43
 969 278 969 278 931 289 c 2,44,-1
 888 302 l 1,45,-1
 922 309 l 2,46,47
 982 322 982 322 1038 364 c 128,-1,48
 1094 406 1094 406 1112 452 c 0,49,50
 1116 463 1116 463 1121 501 c 128,-1,51
 1126 539 1126 539 1128 581 c 0,52,53
 1132 655 1132 655 1142.5 689 c 128,-1,54
 1153 723 1153 723 1176 736 c 0,55,56
 1188 744 1188 744 1188 765 c 0,57,58
 1188 779 1188 779 1182.5 792.5 c 128,-1,59
 1177 806 1177 806 1167 813 c 0,60,61
 1149 827 1149 827 1128 827 c 0,62,63
 1109 827 1109 827 1084 814 c 0,64,65
 1052 797 1052 797 1033 749.5 c 128,-1,66
 1014 702 1014 702 1007 613 c 0,67,68
 998 509 998 509 973.5 457.5 c 128,-1,69
 949 406 949 406 894 374 c 0,70,71
 872 361 872 361 845 350.5 c 128,-1,72
 818 340 818 340 800 337 c 2,73,-1
 756 330 l 1,74,-1
 941 241 l 2,75,38
 1004 212 1004 212 1032 212 c 0,39,40
608 102 m 0,77,78
 635 102 635 102 643 106 c 0,79,80
 654 110 654 110 654 119 c 0,81,82
 654 129 654 129 642 133 c 0,83,84
 631 137 631 137 623 153 c 128,-1,85
 615 169 615 169 599 223 c 0,86,87
 588 260 588 260 578 278 c 128,-1,88
 568 296 568 296 553 304 c 128,-1,89
 538 312 538 312 511 316 c 0,90,91
 492 319 492 319 474 319 c 0,92,93
 453 319 453 319 438.5 315 c 128,-1,94
 424 311 424 311 421 304 c 2,95,-1
 421 302 l 2,96,97
 421 299 421 299 425 295 c 128,-1,98
 429 291 429 291 436 289 c 0,99,100
 449 284 449 284 457 268 c 128,-1,101
 465 252 465 252 482 196 c 0,102,103
 494 156 494 156 508.5 136 c 128,-1,104
 523 116 523 116 547 109 c 0,105,76
 568 102 568 102 608 102 c 0,77,78
1047 -10.5 m 128,-1,107
 1087 8 1087 8 1094 25 c 0,108,109
 1100 40 1100 40 1100 53 c 0,110,111
 1100 92 1100 92 1046 119 c 128,-1,112
 992 146 992 146 876 166 c 0,113,114
 820 176 820 176 801 176 c 0,115,116
 784 176 784 176 779 168 c 0,117,118
 772 158 772 158 772 153 c 0,119,120
 772 146 772 146 783.5 141.5 c 128,-1,121
 795 137 795 137 834 126 c 0,122,123
 883 112 883 112 906 96.5 c 128,-1,124
 929 81 929 81 929 60 c 0,125,126
 929 17 929 17 855.5 -6 c 128,-1,127
 782 -29 782 -29 652 -29 c 0,128,129
 631 -29 631 -29 583 -27 c 0,130,131
 507 -25 507 -25 461.5 -19 c 128,-1,132
 416 -13 416 -13 380 -1 c 0,133,134
 315 20 315 20 278.5 44.5 c 128,-1,135
 242 69 242 69 242 90 c 0,136,137
 242 115 242 115 292 125 c 0,138,139
 311 129 311 129 327 134 c 128,-1,140
 343 139 343 139 346 142 c 0,141,142
 354 151 354 151 329 158.5 c 128,-1,143
 304 166 304 166 260 171 c 128,-1,144
 216 176 216 176 172 176 c 0,145,146
 113 176 113 176 85 168 c 0,147,148
 49 158 49 158 39.5 150 c 128,-1,149
 30 142 30 142 30 120 c 0,150,151
 30 77 30 77 78 38.5 c 128,-1,152
 126 0 126 0 210 -24 c 0,153,154
 299 -49 299 -49 409.5 -62.5 c 128,-1,155
 520 -76 520 -76 634 -76 c 0,156,157
 814 -76 814 -76 945 -44 c 0,158,106
 1007 -29 1007 -29 1047 -10.5 c 128,-1,107
EndSplineSet
Fore
SplineSet
807.360351562 622.919921875 m 0,1,2
 829.400390625 622.919921875 829.400390625 622.919921875 827.080078125 636.83984375 c 0,3,4
 825.919921875 648.440429688 825.919921875 648.440429688 780.099609375 673.959960938 c 128,-1,5
 734.280273438 699.48046875 734.280273438 699.48046875 690.200195312 712.240234375 c 2,6,-1
 640.3203125 727.3203125 l 1,7,-1
 679.759765625 735.440429688 l 2,8,9
 749.360351562 750.51953125 749.360351562 750.51953125 814.3203125 799.240234375 c 128,-1,10
 879.280273438 847.959960938 879.280273438 847.959960938 900.16015625 901.3203125 c 0,11,12
 904.799804688 914.080078125 904.799804688 914.080078125 910.599609375 958.16015625 c 128,-1,13
 916.400390625 1002.24023438 916.400390625 1002.24023438 918.719726562 1050.95996094 c 0,14,15
 923.360351562 1136.79980469 923.360351562 1136.79980469 935.540039062 1176.24023438 c 128,-1,16
 947.719726562 1215.6796875 947.719726562 1215.6796875 974.400390625 1230.75976562 c 0,17,18
 988.3203125 1240.04003906 988.3203125 1240.04003906 988.3203125 1264.40039062 c 0,19,20
 988.3203125 1280.63964844 988.3203125 1280.63964844 981.940429688 1296.29980469 c 128,-1,21
 975.559570312 1311.95996094 975.559570312 1311.95996094 963.959960938 1320.08007812 c 0,22,23
 943.080078125 1336.3203125 943.080078125 1336.3203125 918.719726562 1336.3203125 c 0,24,25
 896.6796875 1336.3203125 896.6796875 1336.3203125 867.6796875 1321.24023438 c 0,26,27
 830.559570312 1301.51953125 830.559570312 1301.51953125 808.51953125 1246.41992188 c 128,-1,28
 786.48046875 1191.3203125 786.48046875 1191.3203125 778.360351562 1088.08007812 c 0,29,30
 767.919921875 967.440429688 767.919921875 967.440429688 739.5 907.700195312 c 128,-1,31
 711.080078125 847.959960938 711.080078125 847.959960938 647.280273438 810.83984375 c 0,32,33
 621.759765625 795.759765625 621.759765625 795.759765625 590.440429688 783.580078125 c 128,-1,34
 559.120117188 771.400390625 559.120117188 771.400390625 538.240234375 767.919921875 c 2,35,-1
 487.200195312 759.799804688 l 1,36,-1
 701.799804688 656.559570312 l 2,37,0
 774.879882812 622.919921875 774.879882812 622.919921875 807.360351562 622.919921875 c 0,1,2
1243.51953125 477.919921875 m 0,39,40
 1265.55957031 477.919921875 1265.55957031 477.919921875 1263.24023438 491.83984375 c 0,41,42
 1262.08007812 503.440429688 1262.08007812 503.440429688 1216.25976562 528.959960938 c 128,-1,43
 1170.44042969 554.48046875 1170.44042969 554.48046875 1126.36035156 567.240234375 c 2,44,-1
 1076.48046875 582.3203125 l 1,45,-1
 1115.91992188 590.440429688 l 2,46,47
 1185.51953125 605.51953125 1185.51953125 605.51953125 1250.48046875 654.240234375 c 128,-1,48
 1315.44042969 702.959960938 1315.44042969 702.959960938 1336.3203125 756.3203125 c 0,49,50
 1340.95996094 769.080078125 1340.95996094 769.080078125 1346.75976562 813.16015625 c 128,-1,51
 1352.55957031 857.240234375 1352.55957031 857.240234375 1354.87988281 905.959960938 c 0,52,53
 1359.51953125 991.799804688 1359.51953125 991.799804688 1371.70019531 1031.24023438 c 128,-1,54
 1383.87988281 1070.6796875 1383.87988281 1070.6796875 1410.55957031 1085.75976562 c 0,55,56
 1424.48046875 1095.04003906 1424.48046875 1095.04003906 1424.48046875 1119.40039062 c 0,57,58
 1424.48046875 1135.63964844 1424.48046875 1135.63964844 1418.09960938 1151.29980469 c 128,-1,59
 1411.71972656 1166.95996094 1411.71972656 1166.95996094 1400.12011719 1175.08007812 c 0,60,61
 1379.24023438 1191.3203125 1379.24023438 1191.3203125 1354.87988281 1191.3203125 c 0,62,63
 1332.83984375 1191.3203125 1332.83984375 1191.3203125 1303.83984375 1176.24023438 c 0,64,65
 1266.71972656 1156.51953125 1266.71972656 1156.51953125 1244.6796875 1101.41992188 c 128,-1,66
 1222.63964844 1046.3203125 1222.63964844 1046.3203125 1214.51953125 943.080078125 c 0,67,68
 1204.08007812 822.440429688 1204.08007812 822.440429688 1175.66015625 762.700195312 c 128,-1,69
 1147.24023438 702.959960938 1147.24023438 702.959960938 1083.44042969 665.83984375 c 0,70,71
 1057.91992188 650.759765625 1057.91992188 650.759765625 1026.59960938 638.580078125 c 128,-1,72
 995.280273438 626.400390625 995.280273438 626.400390625 974.400390625 622.919921875 c 2,73,-1
 923.360351562 614.799804688 l 1,74,-1
 1137.95996094 511.559570312 l 2,75,38
 1211.04003906 477.919921875 1211.04003906 477.919921875 1243.51953125 477.919921875 c 0,39,40
751.6796875 350.3203125 m 0,77,78
 783 350.3203125 783 350.3203125 792.280273438 354.959960938 c 0,79,80
 805.040039062 359.599609375 805.040039062 359.599609375 805.040039062 370.040039062 c 0,81,82
 805.040039062 381.639648438 805.040039062 381.639648438 791.120117188 386.280273438 c 0,83,84
 778.360351562 390.919921875 778.360351562 390.919921875 769.080078125 409.48046875 c 128,-1,85
 759.799804688 428.040039062 759.799804688 428.040039062 741.240234375 490.6796875 c 0,86,87
 728.48046875 533.599609375 728.48046875 533.599609375 716.879882812 554.48046875 c 128,-1,88
 705.280273438 575.360351562 705.280273438 575.360351562 687.879882812 584.639648438 c 128,-1,89
 670.48046875 593.919921875 670.48046875 593.919921875 639.16015625 598.559570312 c 0,90,91
 617.120117188 602.040039062 617.120117188 602.040039062 596.240234375 602.040039062 c 0,92,93
 571.879882812 602.040039062 571.879882812 602.040039062 555.059570312 597.400390625 c 128,-1,94
 538.240234375 592.759765625 538.240234375 592.759765625 534.759765625 584.639648438 c 2,95,-1
 534.759765625 582.3203125 l 2,96,97
 534.759765625 578.83984375 534.759765625 578.83984375 539.400390625 574.200195312 c 128,-1,98
 544.040039062 569.559570312 544.040039062 569.559570312 552.16015625 567.240234375 c 0,99,100
 567.240234375 561.440429688 567.240234375 561.440429688 576.51953125 542.879882812 c 128,-1,101
 585.799804688 524.3203125 585.799804688 524.3203125 605.51953125 459.360351562 c 0,102,103
 619.440429688 412.959960938 619.440429688 412.959960938 636.259765625 389.759765625 c 128,-1,104
 653.080078125 366.559570312 653.080078125 366.559570312 680.919921875 358.440429688 c 0,105,76
 705.280273438 350.3203125 705.280273438 350.3203125 751.6796875 350.3203125 c 0,77,78
1260.91992188 219.8203125 m 128,-1,107
 1307.3203125 241.280273438 1307.3203125 241.280273438 1315.44042969 261 c 0,108,109
 1322.40039062 278.400390625 1322.40039062 278.400390625 1322.40039062 293.48046875 c 0,110,111
 1322.40039062 338.719726562 1322.40039062 338.719726562 1259.75976562 370.040039062 c 128,-1,112
 1197.12011719 401.360351562 1197.12011719 401.360351562 1062.55957031 424.559570312 c 0,113,114
 997.599609375 436.16015625 997.599609375 436.16015625 975.559570312 436.16015625 c 0,115,116
 955.83984375 436.16015625 955.83984375 436.16015625 950.040039062 426.879882812 c 0,117,118
 941.919921875 415.280273438 941.919921875 415.280273438 941.919921875 409.48046875 c 0,119,120
 941.919921875 401.360351562 941.919921875 401.360351562 955.259765625 396.139648438 c 128,-1,121
 968.599609375 390.919921875 968.599609375 390.919921875 1013.83984375 378.16015625 c 0,122,123
 1070.6796875 361.919921875 1070.6796875 361.919921875 1097.36035156 343.940429688 c 128,-1,124
 1124.04003906 325.959960938 1124.04003906 325.959960938 1124.04003906 301.599609375 c 0,125,126
 1124.04003906 251.719726562 1124.04003906 251.719726562 1038.78027344 225.040039062 c 128,-1,127
 953.51953125 198.360351562 953.51953125 198.360351562 802.719726562 198.360351562 c 0,128,129
 778.360351562 198.360351562 778.360351562 198.360351562 722.6796875 200.6796875 c 0,130,131
 634.51953125 203 634.51953125 203 581.740234375 209.959960938 c 128,-1,132
 528.959960938 216.919921875 528.959960938 216.919921875 487.200195312 230.83984375 c 0,133,134
 411.799804688 255.200195312 411.799804688 255.200195312 369.459960938 283.620117188 c 128,-1,135
 327.120117188 312.040039062 327.120117188 312.040039062 327.120117188 336.400390625 c 0,136,137
 327.120117188 365.400390625 327.120117188 365.400390625 385.120117188 377 c 0,138,139
 407.16015625 381.639648438 407.16015625 381.639648438 425.719726562 387.440429688 c 128,-1,140
 444.280273438 393.240234375 444.280273438 393.240234375 447.759765625 396.719726562 c 0,141,142
 457.040039062 407.16015625 457.040039062 407.16015625 428.040039062 415.860351562 c 128,-1,143
 399.040039062 424.559570312 399.040039062 424.559570312 348 430.360351562 c 128,-1,144
 296.959960938 436.16015625 296.959960938 436.16015625 245.919921875 436.16015625 c 0,145,146
 177.48046875 436.16015625 177.48046875 436.16015625 145 426.879882812 c 0,147,148
 103.240234375 415.280273438 103.240234375 415.280273438 92.2197265625 406 c 128,-1,149
 81.2001953125 396.719726562 81.2001953125 396.719726562 81.2001953125 371.200195312 c 0,150,151
 81.2001953125 321.3203125 81.2001953125 321.3203125 136.879882812 276.66015625 c 128,-1,152
 192.559570312 232 192.559570312 232 290 204.16015625 c 0,153,154
 393.240234375 175.16015625 393.240234375 175.16015625 521.419921875 159.5 c 128,-1,155
 649.599609375 143.83984375 649.599609375 143.83984375 781.83984375 143.83984375 c 0,156,157
 990.639648438 143.83984375 990.639648438 143.83984375 1142.59960938 180.959960938 c 0,158,106
 1214.51953125 198.360351562 1214.51953125 198.360351562 1260.91992188 219.8203125 c 128,-1,107
EndSplineSet
EndChar

StartChar: q
Encoding: 113 113 44
Width: 1130
GlyphClass: 1
Flags: W
LayerCount: 2
Back
SplineSet
1047 -10.5 m 128,-1,1
 1087 8 1087 8 1094 25 c 0,2,3
 1100 40 1100 40 1100 53 c 0,4,5
 1100 92 1100 92 1046 119 c 128,-1,6
 992 146 992 146 876 166 c 0,7,8
 820 176 820 176 801 176 c 0,9,10
 784 176 784 176 779 168 c 0,11,12
 772 158 772 158 772 153 c 0,13,14
 772 146 772 146 783.5 141.5 c 128,-1,15
 795 137 795 137 834 126 c 0,16,17
 883 112 883 112 906 96.5 c 128,-1,18
 929 81 929 81 929 60 c 0,19,20
 929 17 929 17 855.5 -6 c 128,-1,21
 782 -29 782 -29 652 -29 c 0,22,23
 631 -29 631 -29 583 -27 c 0,24,25
 507 -25 507 -25 461.5 -19 c 128,-1,26
 416 -13 416 -13 380 -1 c 0,27,28
 315 20 315 20 278.5 44.5 c 128,-1,29
 242 69 242 69 242 90 c 0,30,31
 242 115 242 115 292 125 c 0,32,33
 311 129 311 129 327 134 c 128,-1,34
 343 139 343 139 346 142 c 0,35,36
 354 151 354 151 329 158.5 c 128,-1,37
 304 166 304 166 260 171 c 128,-1,38
 216 176 216 176 172 176 c 0,39,40
 113 176 113 176 85 168 c 0,41,42
 49 158 49 158 39.5 150 c 128,-1,43
 30 142 30 142 30 120 c 0,44,45
 30 77 30 77 78 38.5 c 128,-1,46
 126 0 126 0 210 -24 c 0,47,48
 299 -49 299 -49 409.5 -62.5 c 128,-1,49
 520 -76 520 -76 634 -76 c 0,50,51
 814 -76 814 -76 945 -44 c 0,52,0
 1007 -29 1007 -29 1047 -10.5 c 128,-1,1
EndSplineSet
Fore
SplineSet
1260.91992188 219.8203125 m 128,-1,1
 1307.3203125 241.280273438 1307.3203125 241.280273438 1315.44042969 261 c 0,2,3
 1322.40039062 278.400390625 1322.40039062 278.400390625 1322.40039062 293.48046875 c 0,4,5
 1322.40039062 338.719726562 1322.40039062 338.719726562 1259.75976562 370.040039062 c 128,-1,6
 1197.12011719 401.360351562 1197.12011719 401.360351562 1062.55957031 424.559570312 c 0,7,8
 997.599609375 436.16015625 997.599609375 436.16015625 975.559570312 436.16015625 c 0,9,10
 955.83984375 436.16015625 955.83984375 436.16015625 950.040039062 426.879882812 c 0,11,12
 941.919921875 415.280273438 941.919921875 415.280273438 941.919921875 409.48046875 c 0,13,14
 941.919921875 401.360351562 941.919921875 401.360351562 955.259765625 396.139648438 c 128,-1,15
 968.599609375 390.919921875 968.599609375 390.919921875 1013.83984375 378.16015625 c 0,16,17
 1070.6796875 361.919921875 1070.6796875 361.919921875 1097.36035156 343.940429688 c 128,-1,18
 1124.04003906 325.959960938 1124.04003906 325.959960938 1124.04003906 301.599609375 c 0,19,20
 1124.04003906 251.719726562 1124.04003906 251.719726562 1038.78027344 225.040039062 c 128,-1,21
 953.51953125 198.360351562 953.51953125 198.360351562 802.719726562 198.360351562 c 0,22,23
 778.360351562 198.360351562 778.360351562 198.360351562 722.6796875 200.6796875 c 0,24,25
 634.51953125 203 634.51953125 203 581.740234375 209.959960938 c 128,-1,26
 528.959960938 216.919921875 528.959960938 216.919921875 487.200195312 230.83984375 c 0,27,28
 411.799804688 255.200195312 411.799804688 255.200195312 369.459960938 283.620117188 c 128,-1,29
 327.120117188 312.040039062 327.120117188 312.040039062 327.120117188 336.400390625 c 0,30,31
 327.120117188 365.400390625 327.120117188 365.400390625 385.120117188 377 c 0,32,33
 407.16015625 381.639648438 407.16015625 381.639648438 425.719726562 387.440429688 c 128,-1,34
 444.280273438 393.240234375 444.280273438 393.240234375 447.759765625 396.719726562 c 0,35,36
 457.040039062 407.16015625 457.040039062 407.16015625 428.040039062 415.860351562 c 128,-1,37
 399.040039062 424.559570312 399.040039062 424.559570312 348 430.360351562 c 128,-1,38
 296.959960938 436.16015625 296.959960938 436.16015625 245.919921875 436.16015625 c 0,39,40
 177.48046875 436.16015625 177.48046875 436.16015625 145 426.879882812 c 0,41,42
 103.240234375 415.280273438 103.240234375 415.280273438 92.2197265625 406 c 128,-1,43
 81.2001953125 396.719726562 81.2001953125 396.719726562 81.2001953125 371.200195312 c 0,44,45
 81.2001953125 321.3203125 81.2001953125 321.3203125 136.879882812 276.66015625 c 128,-1,46
 192.559570312 232 192.559570312 232 290 204.16015625 c 0,47,48
 393.240234375 175.16015625 393.240234375 175.16015625 521.419921875 159.5 c 128,-1,49
 649.599609375 143.83984375 649.599609375 143.83984375 781.83984375 143.83984375 c 0,50,51
 990.639648438 143.83984375 990.639648438 143.83984375 1142.59960938 180.959960938 c 0,52,0
 1214.51953125 198.360351562 1214.51953125 198.360351562 1260.91992188 219.8203125 c 128,-1,1
EndSplineSet
EndChar

StartChar: r
Encoding: 114 114 45
Width: 1218
GlyphClass: 1
Flags: W
LayerCount: 2
Back
SplineSet
1032 212 m 0,1,2
 1051 212 1051 212 1049 224 c 0,3,4
 1048 234 1048 234 1008.5 256 c 128,-1,5
 969 278 969 278 931 289 c 2,6,-1
 888 302 l 1,7,-1
 922 309 l 2,8,9
 982 322 982 322 1038 364 c 128,-1,10
 1094 406 1094 406 1112 452 c 0,11,12
 1116 463 1116 463 1121 501 c 128,-1,13
 1126 539 1126 539 1128 581 c 0,14,15
 1132 655 1132 655 1142.5 689 c 128,-1,16
 1153 723 1153 723 1176 736 c 0,17,18
 1188 744 1188 744 1188 765 c 0,19,20
 1188 779 1188 779 1182.5 792.5 c 128,-1,21
 1177 806 1177 806 1167 813 c 0,22,23
 1149 827 1149 827 1128 827 c 0,24,25
 1109 827 1109 827 1084 814 c 0,26,27
 1052 797 1052 797 1033 749.5 c 128,-1,28
 1014 702 1014 702 1007 613 c 0,29,30
 998 509 998 509 973.5 457.5 c 128,-1,31
 949 406 949 406 894 374 c 0,32,33
 872 361 872 361 845 350.5 c 128,-1,34
 818 340 818 340 800 337 c 2,35,-1
 756 330 l 1,36,-1
 941 241 l 2,37,0
 1004 212 1004 212 1032 212 c 0,1,2
1047 -10.5 m 128,-1,39
 1087 8 1087 8 1094 25 c 0,40,41
 1100 40 1100 40 1100 53 c 0,42,43
 1100 92 1100 92 1046 119 c 128,-1,44
 992 146 992 146 876 166 c 0,45,46
 820 176 820 176 801 176 c 0,47,48
 784 176 784 176 779 168 c 0,49,50
 772 158 772 158 772 153 c 0,51,52
 772 146 772 146 783.5 141.5 c 128,-1,53
 795 137 795 137 834 126 c 0,54,55
 883 112 883 112 906 96.5 c 128,-1,56
 929 81 929 81 929 60 c 0,57,58
 929 17 929 17 855.5 -6 c 128,-1,59
 782 -29 782 -29 652 -29 c 0,60,61
 631 -29 631 -29 583 -27 c 0,62,63
 507 -25 507 -25 461.5 -19 c 128,-1,64
 416 -13 416 -13 380 -1 c 0,65,66
 315 20 315 20 278.5 44.5 c 128,-1,67
 242 69 242 69 242 90 c 0,68,69
 242 115 242 115 292 125 c 0,70,71
 311 129 311 129 327 134 c 128,-1,72
 343 139 343 139 346 142 c 0,73,74
 354 151 354 151 329 158.5 c 128,-1,75
 304 166 304 166 260 171 c 128,-1,76
 216 176 216 176 172 176 c 0,77,78
 113 176 113 176 85 168 c 0,79,80
 49 158 49 158 39.5 150 c 128,-1,81
 30 142 30 142 30 120 c 0,82,83
 30 77 30 77 78 38.5 c 128,-1,84
 126 0 126 0 210 -24 c 0,85,86
 299 -49 299 -49 409.5 -62.5 c 128,-1,87
 520 -76 520 -76 634 -76 c 0,88,89
 814 -76 814 -76 945 -44 c 0,90,38
 1007 -29 1007 -29 1047 -10.5 c 128,-1,39
EndSplineSet
Fore
SplineSet
1243.51953125 477.919921875 m 0,1,2
 1265.55957031 477.919921875 1265.55957031 477.919921875 1263.24023438 491.83984375 c 0,3,4
 1262.08007812 503.440429688 1262.08007812 503.440429688 1216.25976562 528.959960938 c 128,-1,5
 1170.44042969 554.48046875 1170.44042969 554.48046875 1126.36035156 567.240234375 c 2,6,-1
 1076.48046875 582.3203125 l 1,7,-1
 1115.91992188 590.440429688 l 2,8,9
 1185.51953125 605.51953125 1185.51953125 605.51953125 1250.48046875 654.240234375 c 128,-1,10
 1315.44042969 702.959960938 1315.44042969 702.959960938 1336.3203125 756.3203125 c 0,11,12
 1340.95996094 769.080078125 1340.95996094 769.080078125 1346.75976562 813.16015625 c 128,-1,13
 1352.55957031 857.240234375 1352.55957031 857.240234375 1354.87988281 905.959960938 c 0,14,15
 1359.51953125 991.799804688 1359.51953125 991.799804688 1371.70019531 1031.24023438 c 128,-1,16
 1383.87988281 1070.6796875 1383.87988281 1070.6796875 1410.55957031 1085.75976562 c 0,17,18
 1424.48046875 1095.04003906 1424.48046875 1095.04003906 1424.48046875 1119.40039062 c 0,19,20
 1424.48046875 1135.63964844 1424.48046875 1135.63964844 1418.09960938 1151.29980469 c 128,-1,21
 1411.71972656 1166.95996094 1411.71972656 1166.95996094 1400.12011719 1175.08007812 c 0,22,23
 1379.24023438 1191.3203125 1379.24023438 1191.3203125 1354.87988281 1191.3203125 c 0,24,25
 1332.83984375 1191.3203125 1332.83984375 1191.3203125 1303.83984375 1176.24023438 c 0,26,27
 1266.71972656 1156.51953125 1266.71972656 1156.51953125 1244.6796875 1101.41992188 c 128,-1,28
 1222.63964844 1046.3203125 1222.63964844 1046.3203125 1214.51953125 943.080078125 c 0,29,30
 1204.08007812 822.440429688 1204.08007812 822.440429688 1175.66015625 762.700195312 c 128,-1,31
 1147.24023438 702.959960938 1147.24023438 702.959960938 1083.44042969 665.83984375 c 0,32,33
 1057.91992188 650.759765625 1057.91992188 650.759765625 1026.59960938 638.580078125 c 128,-1,34
 995.280273438 626.400390625 995.280273438 626.400390625 974.400390625 622.919921875 c 2,35,-1
 923.360351562 614.799804688 l 1,36,-1
 1137.95996094 511.559570312 l 2,37,0
 1211.04003906 477.919921875 1211.04003906 477.919921875 1243.51953125 477.919921875 c 0,1,2
1260.91992188 219.8203125 m 128,-1,39
 1307.3203125 241.280273438 1307.3203125 241.280273438 1315.44042969 261 c 0,40,41
 1322.40039062 278.400390625 1322.40039062 278.400390625 1322.40039062 293.48046875 c 0,42,43
 1322.40039062 338.719726562 1322.40039062 338.719726562 1259.75976562 370.040039062 c 128,-1,44
 1197.12011719 401.360351562 1197.12011719 401.360351562 1062.55957031 424.559570312 c 0,45,46
 997.599609375 436.16015625 997.599609375 436.16015625 975.559570312 436.16015625 c 0,47,48
 955.83984375 436.16015625 955.83984375 436.16015625 950.040039062 426.879882812 c 0,49,50
 941.919921875 415.280273438 941.919921875 415.280273438 941.919921875 409.48046875 c 0,51,52
 941.919921875 401.360351562 941.919921875 401.360351562 955.259765625 396.139648438 c 128,-1,53
 968.599609375 390.919921875 968.599609375 390.919921875 1013.83984375 378.16015625 c 0,54,55
 1070.6796875 361.919921875 1070.6796875 361.919921875 1097.36035156 343.940429688 c 128,-1,56
 1124.04003906 325.959960938 1124.04003906 325.959960938 1124.04003906 301.599609375 c 0,57,58
 1124.04003906 251.719726562 1124.04003906 251.719726562 1038.78027344 225.040039062 c 128,-1,59
 953.51953125 198.360351562 953.51953125 198.360351562 802.719726562 198.360351562 c 0,60,61
 778.360351562 198.360351562 778.360351562 198.360351562 722.6796875 200.6796875 c 0,62,63
 634.51953125 203 634.51953125 203 581.740234375 209.959960938 c 128,-1,64
 528.959960938 216.919921875 528.959960938 216.919921875 487.200195312 230.83984375 c 0,65,66
 411.799804688 255.200195312 411.799804688 255.200195312 369.459960938 283.620117188 c 128,-1,67
 327.120117188 312.040039062 327.120117188 312.040039062 327.120117188 336.400390625 c 0,68,69
 327.120117188 365.400390625 327.120117188 365.400390625 385.120117188 377 c 0,70,71
 407.16015625 381.639648438 407.16015625 381.639648438 425.719726562 387.440429688 c 128,-1,72
 444.280273438 393.240234375 444.280273438 393.240234375 447.759765625 396.719726562 c 0,73,74
 457.040039062 407.16015625 457.040039062 407.16015625 428.040039062 415.860351562 c 128,-1,75
 399.040039062 424.559570312 399.040039062 424.559570312 348 430.360351562 c 128,-1,76
 296.959960938 436.16015625 296.959960938 436.16015625 245.919921875 436.16015625 c 0,77,78
 177.48046875 436.16015625 177.48046875 436.16015625 145 426.879882812 c 0,79,80
 103.240234375 415.280273438 103.240234375 415.280273438 92.2197265625 406 c 128,-1,81
 81.2001953125 396.719726562 81.2001953125 396.719726562 81.2001953125 371.200195312 c 0,82,83
 81.2001953125 321.3203125 81.2001953125 321.3203125 136.879882812 276.66015625 c 128,-1,84
 192.559570312 232 192.559570312 232 290 204.16015625 c 0,85,86
 393.240234375 175.16015625 393.240234375 175.16015625 521.419921875 159.5 c 128,-1,87
 649.599609375 143.83984375 649.599609375 143.83984375 781.83984375 143.83984375 c 0,88,89
 990.639648438 143.83984375 990.639648438 143.83984375 1142.59960938 180.959960938 c 0,90,38
 1214.51953125 198.360351562 1214.51953125 198.360351562 1260.91992188 219.8203125 c 128,-1,39
EndSplineSet
EndChar

StartChar: s
Encoding: 115 115 46
Width: 0
GlyphClass: 1
Flags: W
LayerCount: 2
Back
SplineSet
-268 215 m 0,1,2
 -219 215 -219 215 -197.5 230.5 c 128,-1,3
 -176 246 -176 246 -176 281 c 0,4,5
 -176 313 -176 313 -198.5 327.5 c 128,-1,6
 -221 342 -221 342 -277 345 c 0,7,8
 -288 346 -288 346 -308 346 c 0,9,10
 -360 346 -360 346 -360 330 c 0,11,12
 -360 321 -360 321 -341 299 c 2,13,-1
 -314 270 l 1,14,-1
 -343 270 l 2,15,16
 -365 270 -365 270 -414 286 c 128,-1,17
 -463 302 -463 302 -510 324 c 0,18,19
 -535 335 -535 335 -544 335 c 0,20,21
 -555 335 -555 335 -555 322 c 0,22,23
 -555 316 -555 316 -552 305 c 0,24,25
 -546 280 -546 280 -506 260.5 c 128,-1,26
 -466 241 -466 241 -396 229 c 0,27,0
 -314 215 -314 215 -268 215 c 0,1,2
EndSplineSet
Fore
SplineSet
-264.48046875 481.400390625 m 0,1,2
 -207.639648438 481.400390625 -207.639648438 481.400390625 -182.700195312 499.379882812 c 128,-1,3
 -157.759765625 517.360351562 -157.759765625 517.360351562 -157.759765625 557.959960938 c 0,4,5
 -157.759765625 595.080078125 -157.759765625 595.080078125 -183.860351562 611.900390625 c 128,-1,6
 -209.959960938 628.719726562 -209.959960938 628.719726562 -274.919921875 632.200195312 c 0,7,8
 -287.6796875 633.360351562 -287.6796875 633.360351562 -310.879882812 633.360351562 c 0,9,10
 -371.200195312 633.360351562 -371.200195312 633.360351562 -371.200195312 614.799804688 c 0,11,12
 -371.200195312 604.360351562 -371.200195312 604.360351562 -349.16015625 578.83984375 c 2,13,-1
 -317.83984375 545.200195312 l 1,14,-1
 -351.48046875 545.200195312 l 2,15,16
 -377 545.200195312 -377 545.200195312 -433.83984375 563.759765625 c 128,-1,17
 -490.6796875 582.3203125 -490.6796875 582.3203125 -545.200195312 607.83984375 c 0,18,19
 -574.200195312 620.599609375 -574.200195312 620.599609375 -584.639648438 620.599609375 c 0,20,21
 -597.400390625 620.599609375 -597.400390625 620.599609375 -597.400390625 605.51953125 c 0,22,23
 -597.400390625 598.559570312 -597.400390625 598.559570312 -593.919921875 585.799804688 c 0,24,25
 -586.959960938 556.799804688 -586.959960938 556.799804688 -540.559570312 534.1796875 c 128,-1,26
 -494.16015625 511.559570312 -494.16015625 511.559570312 -412.959960938 497.639648438 c 0,27,0
 -317.83984375 481.400390625 -317.83984375 481.400390625 -264.48046875 481.400390625 c 0,1,2
EndSplineSet
EndChar

StartChar: t
Encoding: 116 116 47
Width: 1130
GlyphClass: 1
Flags: W
LayerCount: 2
Back
SplineSet
306 212 m 0,1,2
 325 212 325 212 323 224 c 0,3,4
 322 234 322 234 282.5 256 c 128,-1,5
 243 278 243 278 205 289 c 2,6,-1
 162 302 l 1,7,-1
 196 309 l 2,8,9
 256 322 256 322 312 364 c 128,-1,10
 368 406 368 406 386 452 c 0,11,12
 390 463 390 463 395 501 c 128,-1,13
 400 539 400 539 402 581 c 0,14,15
 406 655 406 655 416.5 689 c 128,-1,16
 427 723 427 723 450 736 c 0,17,18
 462 744 462 744 462 765 c 0,19,20
 462 779 462 779 456.5 792.5 c 128,-1,21
 451 806 451 806 441 813 c 0,22,23
 423 827 423 827 402 827 c 0,24,25
 383 827 383 827 358 814 c 0,26,27
 326 797 326 797 307 749.5 c 128,-1,28
 288 702 288 702 281 613 c 0,29,30
 272 509 272 509 247.5 457.5 c 128,-1,31
 223 406 223 406 168 374 c 0,32,33
 146 361 146 361 119 350.5 c 128,-1,34
 92 340 92 340 74 337 c 2,35,-1
 30 330 l 1,36,-1
 215 241 l 2,37,0
 278 212 278 212 306 212 c 0,1,2
1047 -10.5 m 128,-1,39
 1087 8 1087 8 1094 25 c 0,40,41
 1100 40 1100 40 1100 53 c 0,42,43
 1100 92 1100 92 1046 119 c 128,-1,44
 992 146 992 146 876 166 c 0,45,46
 820 176 820 176 801 176 c 0,47,48
 784 176 784 176 779 168 c 0,49,50
 772 158 772 158 772 153 c 0,51,52
 772 146 772 146 783.5 141.5 c 128,-1,53
 795 137 795 137 834 126 c 0,54,55
 883 112 883 112 906 96.5 c 128,-1,56
 929 81 929 81 929 60 c 0,57,58
 929 17 929 17 855.5 -6 c 128,-1,59
 782 -29 782 -29 652 -29 c 0,60,61
 631 -29 631 -29 583 -27 c 0,62,63
 507 -25 507 -25 461.5 -19 c 128,-1,64
 416 -13 416 -13 380 -1 c 0,65,66
 315 20 315 20 278.5 44.5 c 128,-1,67
 242 69 242 69 242 90 c 0,68,69
 242 115 242 115 292 125 c 0,70,71
 311 129 311 129 327 134 c 128,-1,72
 343 139 343 139 346 142 c 0,73,74
 354 151 354 151 329 158.5 c 128,-1,75
 304 166 304 166 260 171 c 128,-1,76
 216 176 216 176 172 176 c 0,77,78
 113 176 113 176 85 168 c 0,79,80
 49 158 49 158 39.5 150 c 128,-1,81
 30 142 30 142 30 120 c 0,82,83
 30 77 30 77 78 38.5 c 128,-1,84
 126 0 126 0 210 -24 c 0,85,86
 299 -49 299 -49 409.5 -62.5 c 128,-1,87
 520 -76 520 -76 634 -76 c 0,88,89
 814 -76 814 -76 945 -44 c 0,90,38
 1007 -29 1007 -29 1047 -10.5 c 128,-1,39
EndSplineSet
Fore
SplineSet
401.360351562 477.919921875 m 0,1,2
 423.400390625 477.919921875 423.400390625 477.919921875 421.080078125 491.83984375 c 0,3,4
 419.919921875 503.440429688 419.919921875 503.440429688 374.099609375 528.959960938 c 128,-1,5
 328.280273438 554.48046875 328.280273438 554.48046875 284.200195312 567.240234375 c 2,6,-1
 234.3203125 582.3203125 l 1,7,-1
 273.759765625 590.440429688 l 2,8,9
 343.360351562 605.51953125 343.360351562 605.51953125 408.3203125 654.240234375 c 128,-1,10
 473.280273438 702.959960938 473.280273438 702.959960938 494.16015625 756.3203125 c 0,11,12
 498.799804688 769.080078125 498.799804688 769.080078125 504.599609375 813.16015625 c 128,-1,13
 510.400390625 857.240234375 510.400390625 857.240234375 512.719726562 905.959960938 c 0,14,15
 517.360351562 991.799804688 517.360351562 991.799804688 529.540039062 1031.24023438 c 128,-1,16
 541.719726562 1070.6796875 541.719726562 1070.6796875 568.400390625 1085.75976562 c 0,17,18
 582.3203125 1095.04003906 582.3203125 1095.04003906 582.3203125 1119.40039062 c 0,19,20
 582.3203125 1135.63964844 582.3203125 1135.63964844 575.940429688 1151.29980469 c 128,-1,21
 569.559570312 1166.95996094 569.559570312 1166.95996094 557.959960938 1175.08007812 c 0,22,23
 537.080078125 1191.3203125 537.080078125 1191.3203125 512.719726562 1191.3203125 c 0,24,25
 490.6796875 1191.3203125 490.6796875 1191.3203125 461.6796875 1176.24023438 c 0,26,27
 424.559570312 1156.51953125 424.559570312 1156.51953125 402.51953125 1101.41992188 c 128,-1,28
 380.48046875 1046.3203125 380.48046875 1046.3203125 372.360351562 943.080078125 c 0,29,30
 361.919921875 822.440429688 361.919921875 822.440429688 333.5 762.700195312 c 128,-1,31
 305.080078125 702.959960938 305.080078125 702.959960938 241.280273438 665.83984375 c 0,32,33
 215.759765625 650.759765625 215.759765625 650.759765625 184.440429688 638.580078125 c 128,-1,34
 153.120117188 626.400390625 153.120117188 626.400390625 132.240234375 622.919921875 c 2,35,-1
 81.2001953125 614.799804688 l 1,36,-1
 295.799804688 511.559570312 l 2,37,0
 368.879882812 477.919921875 368.879882812 477.919921875 401.360351562 477.919921875 c 0,1,2
1260.91992188 219.8203125 m 128,-1,39
 1307.3203125 241.280273438 1307.3203125 241.280273438 1315.44042969 261 c 0,40,41
 1322.40039062 278.400390625 1322.40039062 278.400390625 1322.40039062 293.48046875 c 0,42,43
 1322.40039062 338.719726562 1322.40039062 338.719726562 1259.75976562 370.040039062 c 128,-1,44
 1197.12011719 401.360351562 1197.12011719 401.360351562 1062.55957031 424.559570312 c 0,45,46
 997.599609375 436.16015625 997.599609375 436.16015625 975.559570312 436.16015625 c 0,47,48
 955.83984375 436.16015625 955.83984375 436.16015625 950.040039062 426.879882812 c 0,49,50
 941.919921875 415.280273438 941.919921875 415.280273438 941.919921875 409.48046875 c 0,51,52
 941.919921875 401.360351562 941.919921875 401.360351562 955.259765625 396.139648438 c 128,-1,53
 968.599609375 390.919921875 968.599609375 390.919921875 1013.83984375 378.16015625 c 0,54,55
 1070.6796875 361.919921875 1070.6796875 361.919921875 1097.36035156 343.940429688 c 128,-1,56
 1124.04003906 325.959960938 1124.04003906 325.959960938 1124.04003906 301.599609375 c 0,57,58
 1124.04003906 251.719726562 1124.04003906 251.719726562 1038.78027344 225.040039062 c 128,-1,59
 953.51953125 198.360351562 953.51953125 198.360351562 802.719726562 198.360351562 c 0,60,61
 778.360351562 198.360351562 778.360351562 198.360351562 722.6796875 200.6796875 c 0,62,63
 634.51953125 203 634.51953125 203 581.740234375 209.959960938 c 128,-1,64
 528.959960938 216.919921875 528.959960938 216.919921875 487.200195312 230.83984375 c 0,65,66
 411.799804688 255.200195312 411.799804688 255.200195312 369.459960938 283.620117188 c 128,-1,67
 327.120117188 312.040039062 327.120117188 312.040039062 327.120117188 336.400390625 c 0,68,69
 327.120117188 365.400390625 327.120117188 365.400390625 385.120117188 377 c 0,70,71
 407.16015625 381.639648438 407.16015625 381.639648438 425.719726562 387.440429688 c 128,-1,72
 444.280273438 393.240234375 444.280273438 393.240234375 447.759765625 396.719726562 c 0,73,74
 457.040039062 407.16015625 457.040039062 407.16015625 428.040039062 415.860351562 c 128,-1,75
 399.040039062 424.559570312 399.040039062 424.559570312 348 430.360351562 c 128,-1,76
 296.959960938 436.16015625 296.959960938 436.16015625 245.919921875 436.16015625 c 0,77,78
 177.48046875 436.16015625 177.48046875 436.16015625 145 426.879882812 c 0,79,80
 103.240234375 415.280273438 103.240234375 415.280273438 92.2197265625 406 c 128,-1,81
 81.2001953125 396.719726562 81.2001953125 396.719726562 81.2001953125 371.200195312 c 0,82,83
 81.2001953125 321.3203125 81.2001953125 321.3203125 136.879882812 276.66015625 c 128,-1,84
 192.559570312 232 192.559570312 232 290 204.16015625 c 0,85,86
 393.240234375 175.16015625 393.240234375 175.16015625 521.419921875 159.5 c 128,-1,87
 649.599609375 143.83984375 649.599609375 143.83984375 781.83984375 143.83984375 c 0,88,89
 990.639648438 143.83984375 990.639648438 143.83984375 1142.59960938 180.959960938 c 0,90,38
 1214.51953125 198.360351562 1214.51953125 198.360351562 1260.91992188 219.8203125 c 128,-1,39
EndSplineSet
EndChar

StartChar: u
Encoding: 117 117 48
Width: 1130
GlyphClass: 1
Flags: W
LayerCount: 2
Back
SplineSet
656 337 m 0,1,2
 675 337 675 337 673 349 c 0,3,4
 672 359 672 359 632.5 381 c 128,-1,5
 593 403 593 403 555 414 c 2,6,-1
 512 427 l 1,7,-1
 546 434 l 2,8,9
 606 447 606 447 662 489 c 128,-1,10
 718 531 718 531 736 577 c 0,11,12
 740 588 740 588 745 626 c 128,-1,13
 750 664 750 664 752 706 c 0,14,15
 756 780 756 780 766.5 814 c 128,-1,16
 777 848 777 848 800 861 c 0,17,18
 812 869 812 869 812 890 c 0,19,20
 812 904 812 904 806.5 917.5 c 128,-1,21
 801 931 801 931 791 938 c 0,22,23
 773 952 773 952 752 952 c 0,24,25
 733 952 733 952 708 939 c 0,26,27
 676 922 676 922 657 874.5 c 128,-1,28
 638 827 638 827 631 738 c 0,29,30
 622 634 622 634 597.5 582.5 c 128,-1,31
 573 531 573 531 518 499 c 0,32,33
 496 486 496 486 469 475.5 c 128,-1,34
 442 465 442 465 424 462 c 2,35,-1
 380 455 l 1,36,-1
 565 366 l 2,37,0
 628 337 628 337 656 337 c 0,1,2
608 102 m 0,39,40
 635 102 635 102 643 106 c 0,41,42
 654 110 654 110 654 119 c 0,43,44
 654 129 654 129 642 133 c 0,45,46
 631 137 631 137 623 153 c 128,-1,47
 615 169 615 169 599 223 c 0,48,49
 588 260 588 260 578 278 c 128,-1,50
 568 296 568 296 553 304 c 128,-1,51
 538 312 538 312 511 316 c 0,52,53
 492 319 492 319 474 319 c 0,54,55
 453 319 453 319 438.5 315 c 128,-1,56
 424 311 424 311 421 304 c 2,57,-1
 421 302 l 2,58,59
 421 299 421 299 425 295 c 128,-1,60
 429 291 429 291 436 289 c 0,61,62
 449 284 449 284 457 268 c 128,-1,63
 465 252 465 252 482 196 c 0,64,65
 494 156 494 156 508.5 136 c 128,-1,66
 523 116 523 116 547 109 c 0,67,38
 568 102 568 102 608 102 c 0,39,40
1047 -10.5 m 128,-1,69
 1087 8 1087 8 1094 25 c 0,70,71
 1100 40 1100 40 1100 53 c 0,72,73
 1100 92 1100 92 1046 119 c 128,-1,74
 992 146 992 146 876 166 c 0,75,76
 820 176 820 176 801 176 c 0,77,78
 784 176 784 176 779 168 c 0,79,80
 772 158 772 158 772 153 c 0,81,82
 772 146 772 146 783.5 141.5 c 128,-1,83
 795 137 795 137 834 126 c 0,84,85
 883 112 883 112 906 96.5 c 128,-1,86
 929 81 929 81 929 60 c 0,87,88
 929 17 929 17 855.5 -6 c 128,-1,89
 782 -29 782 -29 652 -29 c 0,90,91
 631 -29 631 -29 583 -27 c 0,92,93
 507 -25 507 -25 461.5 -19 c 128,-1,94
 416 -13 416 -13 380 -1 c 0,95,96
 315 20 315 20 278.5 44.5 c 128,-1,97
 242 69 242 69 242 90 c 0,98,99
 242 115 242 115 292 125 c 0,100,101
 311 129 311 129 327 134 c 128,-1,102
 343 139 343 139 346 142 c 0,103,104
 354 151 354 151 329 158.5 c 128,-1,105
 304 166 304 166 260 171 c 128,-1,106
 216 176 216 176 172 176 c 0,107,108
 113 176 113 176 85 168 c 0,109,110
 49 158 49 158 39.5 150 c 128,-1,111
 30 142 30 142 30 120 c 0,112,113
 30 77 30 77 78 38.5 c 128,-1,114
 126 0 126 0 210 -24 c 0,115,116
 299 -49 299 -49 409.5 -62.5 c 128,-1,117
 520 -76 520 -76 634 -76 c 0,118,119
 814 -76 814 -76 945 -44 c 0,120,68
 1007 -29 1007 -29 1047 -10.5 c 128,-1,69
EndSplineSet
Fore
SplineSet
807.360351562 622.919921875 m 0,1,2
 829.400390625 622.919921875 829.400390625 622.919921875 827.080078125 636.83984375 c 0,3,4
 825.919921875 648.440429688 825.919921875 648.440429688 780.099609375 673.959960938 c 128,-1,5
 734.280273438 699.48046875 734.280273438 699.48046875 690.200195312 712.240234375 c 2,6,-1
 640.3203125 727.3203125 l 1,7,-1
 679.759765625 735.440429688 l 2,8,9
 749.360351562 750.51953125 749.360351562 750.51953125 814.3203125 799.240234375 c 128,-1,10
 879.280273438 847.959960938 879.280273438 847.959960938 900.16015625 901.3203125 c 0,11,12
 904.799804688 914.080078125 904.799804688 914.080078125 910.599609375 958.16015625 c 128,-1,13
 916.400390625 1002.24023438 916.400390625 1002.24023438 918.719726562 1050.95996094 c 0,14,15
 923.360351562 1136.79980469 923.360351562 1136.79980469 935.540039062 1176.24023438 c 128,-1,16
 947.719726562 1215.6796875 947.719726562 1215.6796875 974.400390625 1230.75976562 c 0,17,18
 988.3203125 1240.04003906 988.3203125 1240.04003906 988.3203125 1264.40039062 c 0,19,20
 988.3203125 1280.63964844 988.3203125 1280.63964844 981.940429688 1296.29980469 c 128,-1,21
 975.559570312 1311.95996094 975.559570312 1311.95996094 963.959960938 1320.08007812 c 0,22,23
 943.080078125 1336.3203125 943.080078125 1336.3203125 918.719726562 1336.3203125 c 0,24,25
 896.6796875 1336.3203125 896.6796875 1336.3203125 867.6796875 1321.24023438 c 0,26,27
 830.559570312 1301.51953125 830.559570312 1301.51953125 808.51953125 1246.41992188 c 128,-1,28
 786.48046875 1191.3203125 786.48046875 1191.3203125 778.360351562 1088.08007812 c 0,29,30
 767.919921875 967.440429688 767.919921875 967.440429688 739.5 907.700195312 c 128,-1,31
 711.080078125 847.959960938 711.080078125 847.959960938 647.280273438 810.83984375 c 0,32,33
 621.759765625 795.759765625 621.759765625 795.759765625 590.440429688 783.580078125 c 128,-1,34
 559.120117188 771.400390625 559.120117188 771.400390625 538.240234375 767.919921875 c 2,35,-1
 487.200195312 759.799804688 l 1,36,-1
 701.799804688 656.559570312 l 2,37,0
 774.879882812 622.919921875 774.879882812 622.919921875 807.360351562 622.919921875 c 0,1,2
751.6796875 350.3203125 m 0,39,40
 783 350.3203125 783 350.3203125 792.280273438 354.959960938 c 0,41,42
 805.040039062 359.599609375 805.040039062 359.599609375 805.040039062 370.040039062 c 0,43,44
 805.040039062 381.639648438 805.040039062 381.639648438 791.120117188 386.280273438 c 0,45,46
 778.360351562 390.919921875 778.360351562 390.919921875 769.080078125 409.48046875 c 128,-1,47
 759.799804688 428.040039062 759.799804688 428.040039062 741.240234375 490.6796875 c 0,48,49
 728.48046875 533.599609375 728.48046875 533.599609375 716.879882812 554.48046875 c 128,-1,50
 705.280273438 575.360351562 705.280273438 575.360351562 687.879882812 584.639648438 c 128,-1,51
 670.48046875 593.919921875 670.48046875 593.919921875 639.16015625 598.559570312 c 0,52,53
 617.120117188 602.040039062 617.120117188 602.040039062 596.240234375 602.040039062 c 0,54,55
 571.879882812 602.040039062 571.879882812 602.040039062 555.059570312 597.400390625 c 128,-1,56
 538.240234375 592.759765625 538.240234375 592.759765625 534.759765625 584.639648438 c 2,57,-1
 534.759765625 582.3203125 l 2,58,59
 534.759765625 578.83984375 534.759765625 578.83984375 539.400390625 574.200195312 c 128,-1,60
 544.040039062 569.559570312 544.040039062 569.559570312 552.16015625 567.240234375 c 0,61,62
 567.240234375 561.440429688 567.240234375 561.440429688 576.51953125 542.879882812 c 128,-1,63
 585.799804688 524.3203125 585.799804688 524.3203125 605.51953125 459.360351562 c 0,64,65
 619.440429688 412.959960938 619.440429688 412.959960938 636.259765625 389.759765625 c 128,-1,66
 653.080078125 366.559570312 653.080078125 366.559570312 680.919921875 358.440429688 c 0,67,38
 705.280273438 350.3203125 705.280273438 350.3203125 751.6796875 350.3203125 c 0,39,40
1260.91992188 219.8203125 m 128,-1,69
 1307.3203125 241.280273438 1307.3203125 241.280273438 1315.44042969 261 c 0,70,71
 1322.40039062 278.400390625 1322.40039062 278.400390625 1322.40039062 293.48046875 c 0,72,73
 1322.40039062 338.719726562 1322.40039062 338.719726562 1259.75976562 370.040039062 c 128,-1,74
 1197.12011719 401.360351562 1197.12011719 401.360351562 1062.55957031 424.559570312 c 0,75,76
 997.599609375 436.16015625 997.599609375 436.16015625 975.559570312 436.16015625 c 0,77,78
 955.83984375 436.16015625 955.83984375 436.16015625 950.040039062 426.879882812 c 0,79,80
 941.919921875 415.280273438 941.919921875 415.280273438 941.919921875 409.48046875 c 0,81,82
 941.919921875 401.360351562 941.919921875 401.360351562 955.259765625 396.139648438 c 128,-1,83
 968.599609375 390.919921875 968.599609375 390.919921875 1013.83984375 378.16015625 c 0,84,85
 1070.6796875 361.919921875 1070.6796875 361.919921875 1097.36035156 343.940429688 c 128,-1,86
 1124.04003906 325.959960938 1124.04003906 325.959960938 1124.04003906 301.599609375 c 0,87,88
 1124.04003906 251.719726562 1124.04003906 251.719726562 1038.78027344 225.040039062 c 128,-1,89
 953.51953125 198.360351562 953.51953125 198.360351562 802.719726562 198.360351562 c 0,90,91
 778.360351562 198.360351562 778.360351562 198.360351562 722.6796875 200.6796875 c 0,92,93
 634.51953125 203 634.51953125 203 581.740234375 209.959960938 c 128,-1,94
 528.959960938 216.919921875 528.959960938 216.919921875 487.200195312 230.83984375 c 0,95,96
 411.799804688 255.200195312 411.799804688 255.200195312 369.459960938 283.620117188 c 128,-1,97
 327.120117188 312.040039062 327.120117188 312.040039062 327.120117188 336.400390625 c 0,98,99
 327.120117188 365.400390625 327.120117188 365.400390625 385.120117188 377 c 0,100,101
 407.16015625 381.639648438 407.16015625 381.639648438 425.719726562 387.440429688 c 128,-1,102
 444.280273438 393.240234375 444.280273438 393.240234375 447.759765625 396.719726562 c 0,103,104
 457.040039062 407.16015625 457.040039062 407.16015625 428.040039062 415.860351562 c 128,-1,105
 399.040039062 424.559570312 399.040039062 424.559570312 348 430.360351562 c 128,-1,106
 296.959960938 436.16015625 296.959960938 436.16015625 245.919921875 436.16015625 c 0,107,108
 177.48046875 436.16015625 177.48046875 436.16015625 145 426.879882812 c 0,109,110
 103.240234375 415.280273438 103.240234375 415.280273438 92.2197265625 406 c 128,-1,111
 81.2001953125 396.719726562 81.2001953125 396.719726562 81.2001953125 371.200195312 c 0,112,113
 81.2001953125 321.3203125 81.2001953125 321.3203125 136.879882812 276.66015625 c 128,-1,114
 192.559570312 232 192.559570312 232 290 204.16015625 c 0,115,116
 393.240234375 175.16015625 393.240234375 175.16015625 521.419921875 159.5 c 128,-1,117
 649.599609375 143.83984375 649.599609375 143.83984375 781.83984375 143.83984375 c 0,118,119
 990.639648438 143.83984375 990.639648438 143.83984375 1142.59960938 180.959960938 c 0,120,68
 1214.51953125 198.360351562 1214.51953125 198.360351562 1260.91992188 219.8203125 c 128,-1,69
EndSplineSet
EndChar

StartChar: v
Encoding: 118 118 49
Width: 1256
GlyphClass: 1
Flags: W
LayerCount: 2
Back
SplineSet
287 173 m 128,-1,1
 317 171 317 171 347 171 c 256,2,3
 377 171 377 171 391.5 175.5 c 128,-1,4
 406 180 406 180 417 191 c 0,5,6
 427 201 427 201 430.5 210 c 128,-1,7
 434 219 434 219 434 238 c 256,8,9
 434 257 434 257 431 296 c 1,10,11
 431 290 431 290 427 334 c 2,12,-1
 425 359 l 2,13,14
 425 371 425 371 431.5 375.5 c 128,-1,15
 438 380 438 380 456 380 c 0,16,17
 472 380 472 380 478.5 382.5 c 128,-1,18
 485 385 485 385 485 392 c 0,19,20
 485 402 485 402 479.5 407 c 128,-1,21
 474 412 474 412 457 414 c 128,-1,22
 440 416 440 416 402 418 c 0,23,24
 388 419 388 419 364 419 c 0,25,26
 324 419 324 419 310.5 409 c 128,-1,27
 297 399 297 399 297 366 c 0,28,29
 297 348 297 348 300 321 c 0,30,31
 302 287 302 287 302 278 c 0,32,33
 302 243 302 243 291 231.5 c 128,-1,34
 280 220 280 220 249 220 c 0,35,36
 229 220 229 220 222.5 216.5 c 128,-1,37
 216 213 216 213 218 203 c 0,38,39
 220 196 220 196 228 189 c 128,-1,40
 236 182 236 182 246 179 c 0,41,0
 257 175 257 175 287 173 c 128,-1,1
860 182 m 0,43,44
 887 182 887 182 895 186 c 0,45,46
 906 190 906 190 906 199 c 0,47,48
 906 209 906 209 894 213 c 0,49,50
 883 217 883 217 875 233 c 128,-1,51
 867 249 867 249 851 303 c 0,52,53
 840 340 840 340 830 358 c 128,-1,54
 820 376 820 376 805 384 c 128,-1,55
 790 392 790 392 763 396 c 0,56,57
 743 399 743 399 726 399 c 0,58,59
 705 399 705 399 690.5 395 c 128,-1,60
 676 391 676 391 673 384 c 2,61,-1
 673 382 l 2,62,63
 673 379 673 379 677 375 c 128,-1,64
 681 371 681 371 688 369 c 0,65,66
 701 364 701 364 709 348 c 128,-1,67
 717 332 717 332 734 276 c 0,68,69
 746 236 746 236 760.5 216 c 128,-1,70
 775 196 775 196 799 189 c 0,71,42
 820 182 820 182 860 182 c 0,43,44
1060 182 m 0,73,74
 1087 182 1087 182 1095 186 c 0,75,76
 1106 190 1106 190 1106 199 c 0,77,78
 1106 209 1106 209 1094 213 c 0,79,80
 1083 217 1083 217 1075.5 232.5 c 128,-1,81
 1068 248 1068 248 1051 303 c 0,82,83
 1040 339 1040 339 1030 357 c 128,-1,84
 1020 375 1020 375 1005 383.5 c 128,-1,85
 990 392 990 392 963 396 c 0,86,87
 944 399 944 399 926 399 c 0,88,89
 905 399 905 399 890.5 395 c 128,-1,90
 876 391 876 391 873 384 c 2,91,-1
 873 382 l 2,92,93
 873 379 873 379 877 375 c 128,-1,94
 881 371 881 371 888 369 c 0,95,96
 901 364 901 364 909 348 c 128,-1,97
 917 332 917 332 934 276 c 0,98,99
 946 236 946 236 960.5 216 c 128,-1,100
 975 196 975 196 999 189 c 0,101,72
 1020 182 1020 182 1060 182 c 0,73,74
1214 -52 m 0,103,104
 1220 -52 1220 -52 1223 -46.5 c 128,-1,105
 1226 -41 1226 -41 1226 -32 c 0,106,107
 1226 -9 1226 -9 1211 3 c 0,108,109
 1111 88 1111 88 981 107 c 0,110,111
 957 110 957 110 856 110 c 0,112,113
 740 110 740 110 610 107 c 0,114,115
 479 104 479 104 371 104 c 0,116,117
 259 104 259 104 226 108 c 0,118,119
 90 125 90 125 57 145 c 0,120,121
 53 148 53 148 47 148 c 0,122,123
 38 148 38 148 33.5 139.5 c 128,-1,124
 29 131 29 131 31 118 c 0,125,126
 38 80 38 80 88 51 c 128,-1,127
 138 22 138 22 223 7 c 0,128,129
 318 -9 318 -9 426 -9 c 2,130,-1
 463 -9 l 2,131,132
 583 -6 583 -6 850 -6 c 0,133,134
 971 -6 971 -6 987 -7 c 0,135,136
 1089 -14 1089 -14 1145 -28 c 0,137,138
 1163 -32 1163 -32 1182 -38.5 c 128,-1,139
 1201 -45 1201 -45 1206 -49 c 0,140,102
 1211 -52 1211 -52 1214 -52 c 0,103,104
EndSplineSet
Fore
SplineSet
379.3203125 432.6796875 m 128,-1,1
 414.120117188 430.360351562 414.120117188 430.360351562 448.919921875 430.360351562 c 256,2,3
 483.719726562 430.360351562 483.719726562 430.360351562 500.540039062 435.580078125 c 128,-1,4
 517.360351562 440.799804688 517.360351562 440.799804688 530.120117188 453.559570312 c 0,5,6
 541.719726562 465.16015625 541.719726562 465.16015625 545.780273438 475.599609375 c 128,-1,7
 549.83984375 486.040039062 549.83984375 486.040039062 549.83984375 508.080078125 c 256,8,9
 549.83984375 530.120117188 549.83984375 530.120117188 546.360351562 575.360351562 c 1,10,11
 546.360351562 568.400390625 546.360351562 568.400390625 541.719726562 619.440429688 c 2,12,-1
 539.400390625 648.440429688 l 2,13,14
 539.400390625 662.360351562 539.400390625 662.360351562 546.940429688 667.580078125 c 128,-1,15
 554.48046875 672.799804688 554.48046875 672.799804688 575.360351562 672.799804688 c 0,16,17
 593.919921875 672.799804688 593.919921875 672.799804688 601.459960938 675.700195312 c 128,-1,18
 609 678.599609375 609 678.599609375 609 686.719726562 c 0,19,20
 609 698.3203125 609 698.3203125 602.620117188 704.120117188 c 128,-1,21
 596.240234375 709.919921875 596.240234375 709.919921875 576.51953125 712.240234375 c 128,-1,22
 556.799804688 714.559570312 556.799804688 714.559570312 512.719726562 716.879882812 c 0,23,24
 496.48046875 718.040039062 496.48046875 718.040039062 468.639648438 718.040039062 c 0,25,26
 422.240234375 718.040039062 422.240234375 718.040039062 406.580078125 706.440429688 c 128,-1,27
 390.919921875 694.83984375 390.919921875 694.83984375 390.919921875 656.559570312 c 0,28,29
 390.919921875 635.6796875 390.919921875 635.6796875 394.400390625 604.360351562 c 0,30,31
 396.719726562 564.919921875 396.719726562 564.919921875 396.719726562 554.48046875 c 0,32,33
 396.719726562 513.879882812 396.719726562 513.879882812 383.959960938 500.540039062 c 128,-1,34
 371.200195312 487.200195312 371.200195312 487.200195312 335.240234375 487.200195312 c 0,35,36
 312.040039062 487.200195312 312.040039062 487.200195312 304.5 483.139648438 c 128,-1,37
 296.959960938 479.080078125 296.959960938 479.080078125 299.280273438 467.48046875 c 0,38,39
 301.599609375 459.360351562 301.599609375 459.360351562 310.879882812 451.240234375 c 128,-1,40
 320.16015625 443.120117188 320.16015625 443.120117188 331.759765625 439.639648438 c 0,41,0
 344.51953125 435 344.51953125 435 379.3203125 432.6796875 c 128,-1,1
1044 443.120117188 m 0,43,44
 1075.3203125 443.120117188 1075.3203125 443.120117188 1084.59960938 447.759765625 c 0,45,46
 1097.36035156 452.400390625 1097.36035156 452.400390625 1097.36035156 462.83984375 c 0,47,48
 1097.36035156 474.440429688 1097.36035156 474.440429688 1083.44042969 479.080078125 c 0,49,50
 1070.6796875 483.719726562 1070.6796875 483.719726562 1061.40039062 502.280273438 c 128,-1,51
 1052.12011719 520.83984375 1052.12011719 520.83984375 1033.55957031 583.48046875 c 0,52,53
 1020.79980469 626.400390625 1020.79980469 626.400390625 1009.20019531 647.280273438 c 128,-1,54
 997.599609375 668.16015625 997.599609375 668.16015625 980.200195312 677.440429688 c 128,-1,55
 962.799804688 686.719726562 962.799804688 686.719726562 931.48046875 691.360351562 c 0,56,57
 908.280273438 694.83984375 908.280273438 694.83984375 888.559570312 694.83984375 c 0,58,59
 864.200195312 694.83984375 864.200195312 694.83984375 847.379882812 690.200195312 c 128,-1,60
 830.559570312 685.559570312 830.559570312 685.559570312 827.080078125 677.440429688 c 2,61,-1
 827.080078125 675.120117188 l 2,62,63
 827.080078125 671.639648438 827.080078125 671.639648438 831.719726562 667 c 128,-1,64
 836.360351562 662.360351562 836.360351562 662.360351562 844.48046875 660.040039062 c 0,65,66
 859.559570312 654.240234375 859.559570312 654.240234375 868.83984375 635.6796875 c 128,-1,67
 878.120117188 617.120117188 878.120117188 617.120117188 897.83984375 552.16015625 c 0,68,69
 911.759765625 505.759765625 911.759765625 505.759765625 928.580078125 482.559570312 c 128,-1,70
 945.400390625 459.360351562 945.400390625 459.360351562 973.240234375 451.240234375 c 0,71,42
 997.599609375 443.120117188 997.599609375 443.120117188 1044 443.120117188 c 0,43,44
1276 443.120117188 m 0,73,74
 1307.3203125 443.120117188 1307.3203125 443.120117188 1316.59960938 447.759765625 c 0,75,76
 1329.36035156 452.400390625 1329.36035156 452.400390625 1329.36035156 462.83984375 c 0,77,78
 1329.36035156 474.440429688 1329.36035156 474.440429688 1315.44042969 479.080078125 c 0,79,80
 1302.6796875 483.719726562 1302.6796875 483.719726562 1293.98046875 501.700195312 c 128,-1,81
 1285.28027344 519.6796875 1285.28027344 519.6796875 1265.55957031 583.48046875 c 0,82,83
 1252.79980469 625.240234375 1252.79980469 625.240234375 1241.20019531 646.120117188 c 128,-1,84
 1229.59960938 667 1229.59960938 667 1212.20019531 676.860351562 c 128,-1,85
 1194.79980469 686.719726562 1194.79980469 686.719726562 1163.48046875 691.360351562 c 0,86,87
 1141.44042969 694.83984375 1141.44042969 694.83984375 1120.55957031 694.83984375 c 0,88,89
 1096.20019531 694.83984375 1096.20019531 694.83984375 1079.37988281 690.200195312 c 128,-1,90
 1062.55957031 685.559570312 1062.55957031 685.559570312 1059.08007812 677.440429688 c 2,91,-1
 1059.08007812 675.120117188 l 2,92,93
 1059.08007812 671.639648438 1059.08007812 671.639648438 1063.71972656 667 c 128,-1,94
 1068.36035156 662.360351562 1068.36035156 662.360351562 1076.48046875 660.040039062 c 0,95,96
 1091.55957031 654.240234375 1091.55957031 654.240234375 1100.83984375 635.6796875 c 128,-1,97
 1110.12011719 617.120117188 1110.12011719 617.120117188 1129.83984375 552.16015625 c 0,98,99
 1143.75976562 505.759765625 1143.75976562 505.759765625 1160.58007812 482.559570312 c 128,-1,100
 1177.40039062 459.360351562 1177.40039062 459.360351562 1205.24023438 451.240234375 c 0,101,72
 1229.59960938 443.120117188 1229.59960938 443.120117188 1276 443.120117188 c 0,73,74
1454.63964844 171.6796875 m 0,103,104
 1461.59960938 171.6796875 1461.59960938 171.6796875 1465.08007812 178.059570312 c 128,-1,105
 1468.55957031 184.440429688 1468.55957031 184.440429688 1468.55957031 194.879882812 c 0,106,107
 1468.55957031 221.559570312 1468.55957031 221.559570312 1451.16015625 235.48046875 c 0,108,109
 1335.16015625 334.080078125 1335.16015625 334.080078125 1184.36035156 356.120117188 c 0,110,111
 1156.51953125 359.599609375 1156.51953125 359.599609375 1039.36035156 359.599609375 c 0,112,113
 904.799804688 359.599609375 904.799804688 359.599609375 754 356.120117188 c 0,114,115
 602.040039062 352.639648438 602.040039062 352.639648438 476.759765625 352.639648438 c 0,116,117
 346.83984375 352.639648438 346.83984375 352.639648438 308.559570312 357.280273438 c 0,118,119
 150.799804688 377 150.799804688 377 112.51953125 400.200195312 c 0,120,121
 107.879882812 403.6796875 107.879882812 403.6796875 100.919921875 403.6796875 c 0,122,123
 90.48046875 403.6796875 90.48046875 403.6796875 85.259765625 393.8203125 c 128,-1,124
 80.0400390625 383.959960938 80.0400390625 383.959960938 82.3603515625 368.879882812 c 0,125,126
 90.48046875 324.799804688 90.48046875 324.799804688 148.48046875 291.16015625 c 128,-1,127
 206.48046875 257.51953125 206.48046875 257.51953125 305.080078125 240.120117188 c 0,128,129
 415.280273438 221.559570312 415.280273438 221.559570312 540.559570312 221.559570312 c 2,130,-1
 583.48046875 221.559570312 l 2,131,132
 722.6796875 225.040039062 722.6796875 225.040039062 1032.40039062 225.040039062 c 0,133,134
 1172.75976562 225.040039062 1172.75976562 225.040039062 1191.3203125 223.879882812 c 0,135,136
 1309.63964844 215.759765625 1309.63964844 215.759765625 1374.59960938 199.51953125 c 0,137,138
 1395.48046875 194.879882812 1395.48046875 194.879882812 1417.51953125 187.33984375 c 128,-1,139
 1439.55957031 179.799804688 1439.55957031 179.799804688 1445.36035156 175.16015625 c 0,140,102
 1451.16015625 171.6796875 1451.16015625 171.6796875 1454.63964844 171.6796875 c 0,103,104
EndSplineSet
EndChar

